<svg xmlns="http://www.w3.org/2000/svg" xmlns:xlink="http://www.w3.org/1999/xlink" width="1000" zoomAndPan="magnify" viewBox="0 0 750 149.999998" height="200" preserveAspectRatio="xMidYMid meet" version="1.0"><defs><filter x="0%" y="0%" width="100%" height="100%" id="0792110226"><feColorMatrix values="0 0 0 0 1 0 0 0 0 1 0 0 0 0 1 0 0 0 1 0" color-interpolation-filters="sRGB"/></filter><g/><clipPath id="dab9dd9d7d"><path d="M 46 15 L 133 15 L 133 135 L 46 135 Z M 46 15 " clip-rule="nonzero"/></clipPath><clipPath id="513aef5e5c"><path d="M 119.921875 27.332031 C 119.527344 26.933594 119.128906 26.554688 118.730469 26.175781 C 111.265625 19.257812 101.265625 15.023438 90.355469 15.023438 C 66.046875 15.023438 46.160156 34.550781 46.160156 59.222656 L 46.160156 90.828125 C 46.160156 95.160156 46.800781 99.335938 47.972656 103.289062 C 49.351562 107.9375 51.507812 112.285156 54.269531 116.160156 C 62.226562 127.371094 75.328125 134.707031 90.035156 134.707031 C 97.484375 134.707031 104.496094 132.757812 110.585938 129.339844 C 123.476562 122.097656 132.25 108.277344 132.25 92.511719 L 132.25 56.914062 C 132.210938 45.402344 127.503906 34.929688 119.921875 27.332031 Z M 120.207031 89.167969 C 120.207031 105.953125 106.464844 119.695312 89.675781 119.695312 C 89.335938 119.695312 89.015625 119.695312 88.691406 119.679688 C 72.359375 119.148438 59.164062 105.632812 59.164062 89.167969 L 59.164062 58.957031 C 59.164062 43.265625 71.148438 30.242188 86.425781 28.617188 C 87.5 28.5 88.578125 28.445312 89.695312 28.445312 C 98.089844 28.445312 105.726562 31.886719 111.246094 37.40625 C 116.785156 42.945312 120.207031 50.5625 120.207031 58.957031 Z M 120.207031 89.167969 " clip-rule="evenodd"/></clipPath><clipPath id="9a7f82303e"><path d="M 22.5 69 L 108 69 L 108 121 L 22.5 121 Z M 22.5 69 " clip-rule="nonzero"/></clipPath><mask id="7c571c9769"><g filter="url(#0792110226)"><rect x="-75" width="900" fill="#000000" y="-15" height="179.999997" fill-opacity="0.8"/></g></mask><clipPath id="f0aa916f13"><path d="M 0.839844 0.121094 L 74.761719 0.121094 L 74.761719 40.441406 L 0.839844 40.441406 Z M 0.839844 0.121094 " clip-rule="nonzero"/></clipPath><clipPath id="9b23f5a4ee"><rect x="0" width="75" y="0" height="41"/></clipPath></defs><path fill="#ade8ff" d="M 124.496094 58.863281 L 124.496094 92.097656 C 124.515625 110.964844 107.539062 126.277344 88.839844 126.277344 C 71.109375 126.484375 53.320312 109.828125 53.378906 92.097656 L 53.378906 58.863281 C 53.359375 40.488281 70.203125 23.722656 88.839844 23.722656 C 107.480469 23.722656 124.496094 38.03125 124.496094 58.863281 Z M 124.496094 58.863281 " fill-opacity="1" fill-rule="nonzero"/><path fill="#07a5e1" d="M 57.105469 98.457031 L 61.359375 93.878906 C 61.546875 93.691406 61.847656 93.710938 62 93.9375 C 62.285156 94.351562 62.738281 94.863281 63.210938 94.578125 C 63.574219 94.367188 63.855469 93.902344 64.109375 93.578125 C 64.515625 93.0625 64.957031 92.542969 65.289062 91.980469 C 65.585938 91.480469 65.78125 90.925781 66.132812 90.464844 C 66.214844 90.355469 66.574219 89.882812 66.734375 89.957031 C 66.863281 90.015625 66.84375 90.390625 67.027344 90.347656 C 67.183594 90.3125 67.339844 90.074219 67.4375 89.953125 C 67.761719 89.558594 68.019531 89.113281 68.269531 88.667969 C 68.917969 87.492188 69.535156 86.320312 70.359375 85.257812 C 70.742188 84.765625 71.214844 84.207031 71.832031 84.019531 C 73.15625 83.609375 73.917969 85.339844 74.730469 86.039062 C 75.140625 86.390625 75.726562 86.375 76.1875 86.628906 C 76.457031 86.78125 76.539062 87.105469 76.765625 87.304688 C 77.136719 87.628906 77.625 87.78125 77.964844 88.140625 C 79.164062 89.417969 79.449219 91.289062 80.238281 92.800781 C 80.671875 93.636719 81.160156 94.941406 80.5 95.777344 C 80.078125 96.3125 79.441406 96.648438 78.890625 97.035156 C 78.097656 97.59375 77.308594 98.183594 76.386719 98.503906 C 75.792969 98.710938 75.167969 98.753906 74.554688 98.875 C 74.066406 98.96875 73.542969 99.136719 73.042969 99.132812 C 72.015625 99.121094 71.085938 98.613281 70.039062 98.65625 C 68.96875 98.699219 67.929688 98.972656 66.867188 99.070312 C 63.671875 99.363281 60.472656 99.605469 57.273438 99.875 L 57.105469 98.457031 " fill-opacity="1" fill-rule="nonzero"/><path fill="#ffffff" d="M 61.269531 99.015625 C 62.644531 97.359375 63.933594 95.457031 65.921875 94.484375 C 67.730469 93.601562 70.238281 93.667969 71.550781 91.925781 C 71.636719 91.8125 71.351562 91.621094 71.292969 91.546875 C 71.105469 91.316406 71.113281 91.074219 71.25 90.820312 C 71.570312 90.234375 71.964844 89.6875 72.234375 89.070312 C 72.300781 88.921875 72.472656 88.578125 72.351562 88.417969 C 72.242188 88.273438 71.992188 88.460938 71.890625 88.523438 C 71.566406 88.730469 70.730469 89.492188 70.617188 88.714844 C 70.503906 87.921875 71 87.292969 71.324219 86.625 C 71.554688 86.148438 71.671875 85.625 71.882812 85.144531 C 71.945312 85 72.371094 84.113281 72.621094 84.261719 C 72.890625 84.421875 72.925781 84.902344 73.074219 85.152344 C 73.277344 85.492188 73.648438 85.769531 73.9375 86.035156 C 74.390625 86.453125 75.050781 86.515625 75.519531 86.910156 C 77.117188 88.253906 78.234375 89.949219 80.046875 91.050781 C 80.925781 91.585938 83.1875 92.730469 82.753906 94.070312 C 82.570312 94.640625 81.957031 94.96875 81.445312 95.183594 C 80.253906 95.691406 78.957031 95.839844 77.699219 96.109375 C 76.472656 96.367188 75.292969 95.984375 74.070312 96.207031 C 73.050781 96.394531 72.078125 96.773438 71.066406 96.996094 C 67.8125 97.714844 64.53125 98.34375 61.269531 99.015625 " fill-opacity="1" fill-rule="nonzero"/><path fill="#07a5e1" d="M 67.738281 111.242188 C 67.839844 111.007812 67.800781 110.738281 67.617188 110.5625 C 65.914062 108.929688 67.359375 105.996094 67.570312 103.578125 C 67.625 102.984375 67.914062 102.117188 68.355469 101.519531 C 70.347656 98.8125 72.34375 96.109375 74.296875 93.375 C 75.1875 92.128906 75.992188 90.820312 76.914062 89.601562 C 77.632812 88.65625 78.691406 87.980469 79.351562 87.011719 C 79.980469 86.089844 80.261719 84.785156 81.171875 84.074219 C 81.421875 83.878906 81.425781 84.460938 81.613281 84.53125 C 81.835938 84.613281 82.222656 84.175781 82.359375 84.035156 C 83.46875 82.878906 83.777344 81.207031 84.96875 80.113281 C 85.238281 79.863281 85.019531 80.558594 85.257812 80.507812 C 85.347656 80.488281 85.464844 80.296875 85.527344 80.230469 C 85.757812 79.976562 85.996094 79.730469 86.234375 79.480469 C 87.183594 78.496094 88.164062 77.523438 88.949219 76.394531 C 89.265625 75.933594 89.359375 75.414062 89.609375 74.925781 C 89.699219 74.753906 89.835938 74.523438 90.046875 74.484375 C 90.910156 74.320312 91.695312 75.550781 92.234375 76.035156 C 93.171875 76.882812 94.304688 77.742188 95.070312 78.746094 C 95.347656 79.105469 95.304688 79.691406 95.675781 79.941406 C 95.933594 80.117188 95.921875 80.390625 96.089844 80.628906 C 96.417969 81.085938 96.863281 81.476562 97.289062 81.835938 C 97.53125 82.039062 97.6875 82.339844 97.972656 82.496094 C 98.121094 82.574219 98.167969 82.460938 98.171875 82.328125 C 98.183594 82.035156 98.148438 81.628906 98.507812 81.875 C 98.566406 81.914062 98.605469 81.960938 98.652344 82.023438 C 98.707031 82.097656 98.785156 82.265625 98.824219 82.335938 C 99.003906 82.6875 99.300781 82.953125 99.488281 83.296875 C 99.660156 83.601562 99.75 83.949219 99.957031 84.238281 C 100.042969 84.355469 100.179688 84.464844 100.332031 84.417969 C 100.378906 84.40625 100.417969 84.359375 100.460938 84.304688 C 100.484375 84.277344 100.511719 84.25 100.542969 84.222656 C 100.628906 84.152344 100.722656 84.085938 100.820312 84.039062 C 101.210938 83.84375 101.207031 84.386719 101.367188 84.609375 C 101.84375 85.28125 102.386719 85.90625 102.929688 86.519531 C 103.335938 86.980469 103.734375 87.445312 104.132812 87.910156 C 104.195312 87.984375 104.46875 88.1875 104.480469 88.304688 C 104.496094 88.414062 104.554688 88.511719 104.628906 88.589844 C 107.128906 91.246094 109.601562 93.929688 112.058594 96.625 L 112.566406 97.105469 C 112.683594 97.230469 113.019531 97.78125 113.132812 98.015625 C 113.398438 98.5625 113.714844 99.148438 113.878906 99.738281 C 114.386719 101.5625 113.226562 102.933594 112.425781 104.402344 C 111.96875 105.242188 111.375 106.074219 110.785156 106.707031 C 109.632812 107.957031 108.222656 109.011719 106.796875 109.925781 C 105.386719 110.835938 103.6875 111.335938 102.128906 111.921875 C 98.945312 113.121094 95.789062 114.058594 92.457031 114.761719 C 90.953125 115.082031 89.53125 115.308594 87.992188 115.238281 C 84.820312 115.089844 81.632812 114.847656 78.554688 114.019531 C 76.339844 113.421875 72.234375 115.035156 70.179688 114.03125 C 69.4375 113.664062 66.992188 112.910156 67.734375 111.238281 Z M 67.738281 111.242188 " fill-opacity="1" fill-rule="nonzero"/><path fill="#ffffff" d="M 79.574219 91.875 C 79.71875 91.679688 79.871094 91.496094 80.046875 91.363281 C 80.738281 90.503906 81.414062 89.632812 82.207031 88.863281 C 82.984375 88.105469 83.886719 87.523438 84.609375 86.707031 C 85.796875 85.363281 86.6875 83.789062 87.867188 82.441406 C 88.578125 81.632812 89.4375 81.039062 90.230469 80.324219 C 90.535156 80.050781 91.058594 79.65625 91.144531 79.226562 C 91.203125 78.957031 90.816406 79.117188 90.695312 79.160156 C 90.226562 79.339844 89.777344 79.585938 89.332031 79.824219 C 89.300781 79.84375 88.726562 80.152344 88.726562 80.148438 C 88.621094 79.902344 88.988281 79.523438 89.117188 79.363281 C 89.488281 78.90625 90.371094 78.199219 90.347656 77.550781 C 90.335938 77.335938 90.078125 77.617188 90.027344 77.664062 C 89.921875 77.769531 89.339844 78.484375 89.179688 78.203125 C 89.078125 78.027344 89.207031 77.769531 89.289062 77.613281 C 89.511719 77.183594 89.945312 76.804688 90.089844 76.339844 C 90.210938 75.941406 90.078125 75.464844 90.09375 75.054688 C 90.101562 74.921875 90.105469 74.617188 90.242188 74.539062 C 90.324219 74.492188 90.527344 74.824219 90.578125 74.886719 C 90.917969 75.285156 91.269531 75.671875 91.652344 76.027344 C 91.855469 76.222656 92.070312 76.40625 92.304688 76.566406 C 92.378906 76.617188 92.457031 76.667969 92.535156 76.710938 C 92.570312 76.730469 92.679688 76.765625 92.640625 76.769531 C 92.46875 76.78125 92.027344 76.421875 91.878906 76.535156 C 91.855469 76.550781 92.140625 76.816406 92.164062 76.839844 C 92.457031 77.121094 92.757812 77.386719 93.066406 77.648438 C 93.886719 78.34375 94.742188 78.980469 95.414062 79.824219 C 96.335938 80.984375 96.753906 82.457031 97.699219 83.570312 C 98.144531 84.089844 98.6875 84.039062 99.226562 84.363281 C 99.292969 84.40625 99.828125 84.710938 99.742188 84.851562 C 99.570312 85.136719 99.144531 85.292969 98.902344 85.566406 C 98.472656 86.050781 97.984375 86.527344 97.527344 86.992188 C 97.515625 87.003906 97.523438 86.175781 97.359375 86.257812 C 97.003906 86.433594 96.535156 87.035156 96.261719 87.34375 C 96.167969 87.445312 95.976562 87.613281 96.136719 87.675781 C 96.046875 87.8125 95.9375 87.941406 95.804688 88.066406 C 95.519531 88.339844 95.382812 87.742188 95.125 88.042969 C 94.875 88.332031 94.683594 88.628906 94.511719 88.972656 C 94.449219 89.101562 94.257812 89.617188 94.082031 89.722656 C 94.042969 89.746094 94.070312 89.628906 94.070312 89.582031 C 94.066406 89.460938 94.089844 89.175781 94.011719 89.078125 C 93.941406 88.992188 93.820312 89.191406 93.726562 89.25 C 92.992188 89.738281 92.796875 90.835938 92.460938 91.578125 C 92.445312 91.609375 91.933594 92.59375 91.941406 92.519531 C 91.660156 92.851562 91.425781 93.136719 91.269531 93.34375 C 91.25 93.375 92.089844 93.667969 92.117188 93.699219 C 92.296875 93.921875 92.070312 94.105469 92.441406 94.210938 C 92.675781 94.277344 92.902344 94.339844 93.121094 94.457031 C 93.144531 94.472656 93.296875 94.535156 93.289062 94.582031 C 93.253906 94.753906 92.664062 94.597656 92.871094 94.78125 C 93.242188 95.109375 93.65625 95.09375 94.078125 95.214844 C 94.214844 95.253906 94.351562 95.335938 94.492188 95.355469 C 94.679688 95.375 94.867188 95.371094 95.050781 95.355469 C 95.117188 95.347656 95.339844 95.230469 95.34375 95.292969 C 95.882812 95.453125 96.351562 95.105469 96.648438 94.679688 C 96.886719 94.332031 97.0625 93.925781 97.367188 93.625 C 98.273438 92.730469 99.421875 92.128906 100.214844 91.117188 C 100.488281 90.765625 101.21875 90.25 101.167969 89.75 C 101.152344 89.601562 100.847656 89.773438 100.773438 89.800781 C 100.449219 89.9375 100.125 90.097656 99.789062 90.203125 C 99.699219 90.230469 99.53125 90.300781 99.441406 90.25 C 99.390625 90.21875 99.625 89.976562 99.644531 89.957031 C 99.800781 89.785156 100.335938 89.367188 100.320312 89.109375 C 100.296875 88.761719 99.660156 89.101562 99.511719 88.929688 C 99.445312 88.851562 99.5625 88.648438 99.601562 88.578125 C 99.75 88.320312 100.15625 88.027344 100.179688 87.714844 C 100.195312 87.503906 99.871094 87.472656 99.875 87.253906 C 99.882812 86.875 100.246094 86.582031 100.347656 86.234375 C 100.445312 85.878906 100.277344 85.515625 100.367188 85.160156 C 100.386719 85.078125 100.546875 84.511719 100.628906 84.5 C 100.632812 84.5 100.683594 84.648438 100.683594 84.652344 C 100.753906 84.847656 100.828125 85.042969 100.929688 85.226562 C 101.171875 85.660156 101.695312 85.921875 101.890625 86.375 C 102.027344 86.695312 101.757812 87.078125 102.023438 87.363281 C 102.375 87.742188 103.023438 87.953125 103.449219 88.253906 C 103.578125 88.34375 103.871094 88.511719 103.894531 88.691406 C 103.917969 88.914062 103.652344 89.226562 103.527344 89.382812 C 103.085938 89.921875 102.503906 90.316406 101.988281 90.773438 C 100.769531 91.859375 99.296875 92.722656 98.191406 93.925781 C 97.3125 94.886719 96.878906 96.183594 95.832031 97 C 95.601562 97.179688 95.261719 97.363281 95.046875 97.53125 C 94.78125 97.734375 93.960938 97.214844 93.753906 97.121094 C 92.515625 96.5625 91.726562 95.910156 90.800781 94.917969 C 90.527344 94.625 90.226562 94.335938 89.988281 94.015625 C 89.921875 93.925781 89.804688 93.445312 89.636719 93.53125 C 88.503906 94.121094 88.445312 96.210938 87.128906 96.613281 C 86.757812 96.726562 86.539062 96.167969 86.21875 96.25 C 85.910156 96.328125 85.527344 96.914062 85.320312 97.144531 C 84.632812 97.902344 83.796875 99.105469 82.789062 99.464844 C 82.542969 99.554688 82.472656 99.328125 82.4375 99.125 C 82.433594 99.113281 82.394531 98.789062 82.382812 98.796875 C 81.90625 99.054688 81.464844 99.640625 81.09375 100.027344 C 80.132812 101.042969 79.253906 102.136719 78.351562 103.203125 C 77.808594 103.84375 77.265625 104.496094 76.617188 105.035156 C 75.832031 105.691406 74.949219 106.214844 74.199219 106.914062 C 72.839844 108.183594 71.589844 109.820312 69.898438 110.667969 C 67.984375 111.625 66.554688 110.171875 65.605469 108.601562 C 65.285156 108.070312 64.703125 107.363281 64.8125 106.695312 C 65.03125 105.375 66.160156 103.953125 67.003906 102.964844 C 69.457031 100.105469 72.824219 98.269531 75.808594 96.039062 C 76.410156 95.589844 77.1875 95.117188 77.640625 94.511719 C 78.035156 93.980469 78.183594 93.230469 78.792969 92.890625 C 78.910156 92.824219 78.96875 92.683594 79.058594 92.582031 C 79.238281 92.375 79.402344 92.117188 79.582031 91.875 " fill-opacity="1" fill-rule="nonzero"/><path fill="#07a5e1" d="M 122.4375 99.34375 C 120.507812 101.046875 113.570312 91.15625 111.058594 88.226562 C 108.710938 85.46875 108.523438 85.65625 108.144531 85.65625 C 107.769531 85.65625 100.226562 88.832031 92.398438 98.796875 C 84.570312 108.757812 119.394531 108.722656 119.394531 108.722656 Z M 122.4375 99.34375 " fill-opacity="1" fill-rule="nonzero"/><path fill="#ffffff" d="M 117.289062 105.238281 C 117.300781 105.109375 117.492188 104.953125 117.578125 104.863281 C 117.859375 104.566406 118.144531 104.289062 118.359375 103.9375 C 118.644531 103.476562 118.941406 103.023438 119.21875 102.558594 C 119.46875 102.144531 120.058594 101.328125 120.007812 100.792969 C 119.953125 100.164062 119.464844 99.773438 119.136719 99.273438 C 118.945312 98.972656 118.828125 98.738281 118.578125 98.476562 C 118.277344 98.167969 118.175781 97.851562 117.78125 97.632812 C 117.769531 97.625 117.445312 97.445312 117.441406 97.449219 C 117.316406 97.546875 117.453125 98.0625 117.152344 97.972656 C 116.835938 97.875 116.625 97.429688 116.453125 97.1875 C 116.007812 96.558594 115.484375 95.984375 115.082031 95.316406 C 114.953125 95.097656 114.75 94.949219 114.617188 94.734375 C 114.613281 94.730469 114.316406 94.246094 114.316406 94.253906 C 114.230469 94.898438 114.558594 95.675781 114.699219 96.292969 C 114.714844 96.371094 114.90625 96.960938 114.820312 97.074219 C 114.765625 97.140625 114.707031 96.945312 114.664062 96.871094 C 114.457031 96.53125 114.296875 96.199219 114.132812 95.839844 C 113.691406 94.871094 113.296875 93.890625 112.859375 92.921875 C 112.050781 91.152344 110.929688 89.496094 109.6875 88.011719 C 109.527344 87.820312 109.429688 87.5625 109.261719 87.386719 C 109.125 87.246094 108.902344 87.183594 108.757812 87.035156 C 108.730469 87.007812 108.511719 86.691406 108.472656 86.734375 C 107.921875 87.355469 107.710938 88.199219 107.285156 88.886719 C 106.820312 89.234375 106.152344 89.789062 106.15625 90.183594 C 106.164062 90.65625 107.402344 90.523438 107.132812 90.90625 C 106.636719 91.617188 105.648438 92.058594 105.027344 92.667969 C 104.773438 92.917969 104.398438 93.289062 104.429688 93.683594 C 104.484375 94.398438 105.84375 94.066406 106.273438 94.054688 C 106.453125 94.046875 106.804688 94.027344 106.863281 94.261719 C 106.917969 94.5 106.519531 94.796875 106.375 94.925781 C 105.847656 95.394531 104.988281 95.863281 104.695312 96.535156 C 104.347656 97.351562 106.203125 97.023438 106.140625 97.609375 C 106.109375 97.9375 105.542969 98.234375 105.3125 98.398438 C 104.621094 98.882812 103.328125 99.539062 103.140625 100.457031 C 103.011719 101.089844 103.9375 100.769531 103.972656 101.355469 C 104.035156 102.394531 103 103.359375 103.5 104.417969 C 103.984375 105.449219 105.667969 105.90625 106.667969 106.152344 C 109.71875 106.910156 113.417969 106.875 116.386719 105.769531 C 116.769531 105.628906 117.0625 105.445312 117.289062 105.242188 Z M 117.289062 105.238281 " fill-opacity="1" fill-rule="nonzero"/><path fill="#07a5e1" d="M 69.808594 116.507812 C 71.191406 115.566406 71.046875 114.90625 72.1875 113.671875 C 73.386719 112.382812 75.953125 110.425781 77.476562 109.464844 C 78.066406 109.085938 77.984375 109.828125 77.996094 110.214844 C 78 110.339844 77.992188 110.613281 78.1875 110.550781 C 78.855469 110.347656 79.429688 109.625 79.859375 109.113281 C 80.78125 108.011719 81.570312 106.847656 82.679688 105.917969 C 82.925781 105.707031 83.527344 105.167969 83.890625 105.289062 C 84.175781 105.382812 84.113281 106.136719 84.507812 105.800781 C 85.703125 104.785156 86.578125 103.441406 87.835938 102.476562 C 88.570312 101.914062 89.546875 101.929688 90.207031 101.222656 C 91.140625 100.214844 91.890625 98.382812 93.347656 98.035156 C 93.886719 97.90625 94.820312 98.6875 95.226562 98.949219 C 97.152344 100.191406 99.167969 101.585938 100.914062 103.066406 C 102.289062 104.234375 103.542969 105.605469 105.066406 106.589844 C 105.589844 106.925781 106.625 107.519531 107.28125 107.386719 C 107.546875 107.335938 107.277344 106.707031 107.589844 106.78125 C 108.1875 106.929688 108.808594 107.410156 109.296875 107.769531 C 110.554688 108.707031 111.605469 109.882812 112.820312 110.875 C 114.207031 112.003906 115.980469 112.480469 117.40625 113.550781 C 118.03125 114.015625 118.742188 114.742188 118.828125 115.566406 C 118.949219 116.699219 117.28125 117.914062 116.578125 118.617188 C 113.921875 121.273438 110.902344 123.488281 107.5625 125.214844 C 104.792969 126.648438 101.839844 127.726562 98.765625 128.296875 C 87.566406 130.367188 76.839844 125.109375 69.8125 116.507812 " fill-opacity="1" fill-rule="nonzero"/><path fill="#ffffff" d="M 115.609375 108.289062 C 113.628906 107.324219 111.445312 106.128906 109.246094 105.777344 C 108.691406 105.6875 108.695312 106.59375 108.179688 106.445312 C 106.945312 106.089844 106.027344 104.425781 104.570312 104.800781 C 104.320312 104.867188 104.789062 105.871094 104.644531 105.808594 C 103.183594 105.203125 102.6875 103.296875 101.679688 102.222656 C 101.28125 101.796875 101.085938 102.507812 100.789062 102.367188 C 99.910156 101.941406 99.351562 100.75 98.351562 100.53125 C 98.242188 100.503906 98.261719 100.820312 98.261719 100.867188 C 98.257812 101.210938 98.300781 101.558594 98.320312 101.90625 C 98.320312 101.917969 98.335938 102.265625 98.296875 102.242188 C 97.347656 101.777344 96.851562 100.339844 96.214844 99.554688 C 95.96875 99.25 95.558594 98.777344 95.125 98.785156 C 94.605469 98.796875 94.769531 99.925781 94.820312 100.238281 C 94.832031 100.304688 94.949219 100.730469 94.792969 100.683594 C 94.359375 100.546875 93.972656 99.644531 93.769531 99.292969 C 93.09375 98.132812 92.421875 96.308594 91.070312 95.773438 C 90.671875 95.613281 90.363281 94.910156 90.15625 94.558594 C 90.140625 94.53125 89.960938 94.144531 89.945312 94.144531 C 89.902344 94.144531 89.890625 94.390625 89.890625 94.394531 C 89.867188 94.664062 89.9375 94.875 90.035156 95.121094 C 90.269531 95.691406 90.519531 96.273438 90.800781 96.820312 C 91.015625 97.238281 91.316406 97.65625 91.371094 98.136719 C 91.457031 98.921875 90.46875 99.105469 89.933594 99.375 C 89.546875 99.570312 89.332031 99.839844 89.578125 100.253906 C 89.816406 100.660156 90.285156 100.96875 90.648438 101.25 C 91.398438 101.835938 92.179688 102.375 92.902344 102.992188 C 93.277344 103.3125 93.976562 103.828125 93.992188 104.382812 C 94.007812 104.988281 92.496094 104.53125 92.214844 104.464844 C 92.144531 104.449219 91.464844 104.316406 91.507812 104.371094 C 92.699219 105.949219 94.855469 106.53125 96.355469 107.75 C 96.730469 108.054688 97.148438 108.304688 97.503906 108.632812 C 97.574219 108.699219 97.804688 108.882812 97.726562 109.003906 C 97.679688 109.074219 97.441406 108.992188 97.386719 108.980469 C 97.066406 108.902344 96.753906 108.789062 96.441406 108.683594 C 95.367188 108.3125 94.304688 107.898438 93.199219 107.636719 C 92.972656 107.582031 92.226562 107.347656 92.035156 107.589844 C 91.933594 107.714844 92.777344 108.078125 92.867188 108.132812 C 93.671875 108.628906 94.488281 109.15625 95.195312 109.792969 C 95.257812 109.851562 95.847656 110.359375 95.640625 110.492188 C 95.304688 110.703125 94.597656 110.605469 94.226562 110.566406 C 92.964844 110.433594 91.761719 109.949219 90.492188 109.878906 C 90.160156 109.859375 89.019531 109.628906 88.863281 110.011719 C 88.785156 110.210938 89.035156 110.402344 89.167969 110.5 C 89.578125 110.796875 90.058594 110.96875 90.511719 111.179688 C 92.066406 111.898438 93.648438 112.609375 95.269531 113.160156 C 95.589844 113.269531 96.75 113.527344 96.804688 113.929688 C 96.828125 114.089844 96.550781 114.101562 96.457031 114.101562 C 96.058594 114.105469 95.65625 114 95.277344 113.902344 C 94.015625 113.582031 92.769531 113.144531 91.46875 113.015625 C 91.089844 112.976562 90.261719 112.878906 89.972656 113.230469 C 89.820312 113.414062 90.691406 113.925781 90.828125 114.015625 C 91.570312 114.5 92.328125 114.96875 93.03125 115.511719 C 93.238281 115.671875 93.703125 115.957031 93.734375 116.253906 C 93.78125 116.636719 93.132812 116.640625 92.902344 116.632812 C 92.230469 116.613281 91.570312 116.453125 90.894531 116.453125 C 90.65625 116.453125 90.242188 116.457031 90.121094 116.71875 C 90.003906 116.972656 90.363281 117.269531 90.515625 117.414062 C 90.921875 117.785156 92.289062 118.574219 91.886719 119.269531 C 91.261719 120.34375 89.542969 118.929688 88.65625 119.410156 C 88.328125 119.585938 88.464844 119.902344 88.582031 120.175781 C 88.761719 120.589844 89.117188 121.148438 88.835938 121.585938 C 88.480469 122.144531 87.566406 122.136719 87.277344 122.730469 C 87.191406 122.90625 87.363281 123.136719 87.457031 123.273438 C 87.464844 123.285156 87.652344 123.542969 87.636719 123.550781 C 87.363281 123.691406 86.539062 123.152344 86.75 123.96875 C 86.933594 124.6875 88.308594 124.839844 88.894531 124.925781 C 91.179688 125.265625 93.679688 124.996094 95.929688 124.535156 C 104.78125 122.722656 111.328125 115.898438 115.609375 108.285156 " fill-opacity="1" fill-rule="nonzero"/><path fill="#ffffff" d="M 106.207031 53.347656 C 106.359375 53.472656 106.082031 53.558594 105.988281 53.589844 C 105.664062 53.703125 105.320312 53.761719 104.984375 53.824219 C 103.707031 54.050781 102.429688 54.140625 101.140625 54.242188 C 99.308594 54.382812 97.457031 54.535156 95.621094 54.339844 C 94.015625 54.167969 92.457031 53.714844 90.90625 53.277344 C 86.867188 52.144531 82.824219 52.046875 78.652344 51.988281 C 76.453125 51.960938 74.253906 51.824219 72.054688 51.890625 C 70.308594 51.941406 68.546875 52.164062 66.796875 52.125 C 66.390625 52.113281 65.328125 52.15625 65.027344 51.816406 C 64.949219 51.730469 65.253906 51.78125 65.367188 51.757812 C 65.601562 51.714844 65.835938 51.664062 66.066406 51.605469 C 66.929688 51.382812 67.773438 51.085938 68.640625 50.890625 C 68.976562 50.8125 69.3125 50.75 69.644531 50.664062 C 69.660156 50.660156 69.996094 50.578125 69.96875 50.535156 C 69.921875 50.453125 69.539062 50.472656 69.453125 50.46875 C 68.953125 50.4375 68.453125 50.445312 67.953125 50.472656 C 65.804688 50.601562 63.6875 50.894531 61.535156 50.988281 C 60.894531 51.015625 60.25 51.058594 59.613281 51.144531 C 59.523438 51.15625 58.53125 51.257812 58.585938 51.164062 C 58.714844 50.949219 59.152344 50.898438 59.367188 50.863281 C 60.101562 50.746094 60.863281 50.777344 61.601562 50.789062 C 64.40625 50.847656 67.320312 50.347656 70.09375 49.953125 C 71.066406 49.816406 72.035156 49.664062 73 49.488281 C 73.355469 49.421875 73.710938 49.355469 74.066406 49.28125 C 74.171875 49.261719 74.277344 49.238281 74.382812 49.214844 C 74.429688 49.207031 74.550781 49.214844 74.519531 49.179688 C 74.441406 49.089844 73.921875 49.167969 73.792969 49.167969 C 73.019531 49.175781 72.242188 49.203125 71.46875 49.238281 C 68.234375 49.398438 65.046875 49.902344 61.824219 50.160156 C 60.90625 50.234375 59.980469 50.285156 59.0625 50.253906 C 58.992188 50.25 58.210938 50.191406 58.214844 50.179688 C 58.234375 50.113281 58.550781 50.070312 58.605469 50.054688 C 58.921875 49.96875 59.234375 49.859375 59.542969 49.746094 C 60.375 49.433594 61.195312 49.078125 61.984375 48.667969 C 62.480469 48.410156 63.019531 48.027344 63.582031 47.929688 C 64.058594 47.847656 64.566406 47.90625 65.050781 47.886719 C 65.148438 47.882812 65.46875 47.910156 65.539062 47.816406 C 65.667969 47.648438 65.28125 47.222656 65.21875 47.046875 C 64.964844 46.351562 64.839844 45.613281 64.863281 44.871094 C 64.914062 43.046875 65.824219 41.199219 67.695312 40.625 C 68.578125 40.351562 69.265625 40.8125 69.855469 41.421875 C 70.097656 41.667969 70.554688 42.289062 70.96875 42.191406 C 71.410156 42.082031 71.121094 41.117188 71.488281 40.871094 C 71.707031 40.722656 72.078125 41.007812 72.246094 41.125 C 72.335938 41.191406 72.605469 41.375 72.496094 41.34375 C 71.84375 41.15625 72.640625 40.152344 73.039062 40.109375 C 73.464844 40.066406 73.867188 40.578125 74.101562 40.867188 C 74.179688 40.960938 74.253906 41.058594 74.324219 41.160156 C 74.363281 41.21875 74.410156 41.398438 74.445312 41.335938 C 74.71875 40.863281 74.710938 40.058594 74.933594 39.523438 C 75.566406 38.003906 77.019531 37.773438 78.5 38.089844 C 79.355469 38.273438 80.480469 38.621094 80.945312 39.433594 C 81.335938 40.109375 81.367188 41.484375 82.105469 41.9375 C 82.042969 41.707031 82.6875 41.394531 82.773438 41.339844 C 83.480469 40.878906 84.269531 40.878906 85.09375 40.945312 C 85.601562 40.988281 85.972656 41.191406 86.125 41.714844 C 86.175781 41.894531 86.175781 42.292969 86.355469 42.40625 C 86.53125 42.519531 87.015625 42.277344 87.171875 42.226562 C 87.628906 42.074219 88.09375 41.992188 88.550781 42.207031 C 89.285156 42.546875 89.121094 43.609375 89.6875 43.96875 C 90.253906 44.324219 91.164062 43.980469 91.804688 44.304688 C 92.15625 44.484375 92.386719 44.863281 92.519531 45.226562 C 92.566406 45.351562 92.515625 45.777344 92.65625 45.84375 C 92.765625 45.894531 92.925781 45.722656 93.03125 45.691406 C 93.296875 45.613281 93.640625 45.660156 93.902344 45.730469 C 96.054688 46.292969 98.316406 46.296875 100.515625 46.683594 C 101.90625 46.929688 103.292969 47.179688 104.679688 47.433594 C 105.054688 47.503906 105.464844 47.574219 105.832031 47.675781 C 106 47.71875 106.339844 47.789062 106.339844 47.789062 C 106.339844 47.789062 106.109375 47.726562 105.992188 47.722656 C 105.945312 47.71875 105.582031 47.722656 105.527344 47.722656 C 104.894531 47.746094 104.257812 47.761719 103.625 47.78125 C 101.421875 47.847656 99.214844 47.945312 97.007812 47.9375 C 96.261719 47.933594 95.511719 47.90625 94.765625 47.898438 C 94.535156 47.894531 94.308594 47.902344 94.078125 47.894531 C 93.933594 47.890625 93.550781 47.757812 93.644531 47.871094 C 93.90625 48.195312 94.621094 48.066406 94.96875 48.292969 C 96.027344 48.984375 97.539062 49.332031 98.523438 50.949219 C 98.714844 51.25 99.015625 51.421875 99.375 51.460938 C 100.679688 51.554688 103.921875 51.953125 106.207031 53.351562 " fill-opacity="0.2706" fill-rule="nonzero"/><path fill="#ffffff" d="M 78.558594 49.597656 C 76.546875 49.359375 74.515625 49.007812 72.523438 49.132812 C 72.515625 49.125 72.816406 48.980469 72.882812 48.949219 C 72.890625 48.945312 72.894531 48.941406 72.90625 48.9375 C 73.03125 48.855469 73.183594 48.765625 73.332031 48.671875 C 73.496094 48.566406 73.433594 48.316406 73.238281 48.300781 C 69.828125 48.023438 66.375 48.535156 62.960938 48.128906 C 62.957031 48.128906 62.953125 48.128906 62.945312 48.128906 C 62.0625 48.105469 64.191406 47.746094 64.40625 47.746094 C 64.417969 47.746094 64.429688 47.742188 64.445312 47.738281 C 67.214844 47.054688 70.90625 47.070312 72.929688 45.066406 C 72.949219 45.042969 72.964844 45.019531 72.972656 44.992188 C 73.738281 43.019531 78.097656 39.804688 81.289062 41.675781 C 81.296875 41.679688 81.308594 41.6875 81.316406 41.695312 C 82.066406 42.339844 82.972656 41.945312 84.191406 42.324219 C 84.277344 42.347656 84.332031 42.429688 84.332031 42.519531 C 84.332031 42.59375 84.34375 42.671875 84.351562 42.667969 C 84.8125 42.300781 84.976562 41.917969 85.59375 41.707031 C 86.558594 41.375 87.273438 41.828125 87.976562 42.421875 C 87.992188 42.4375 88.007812 42.457031 88.019531 42.476562 C 88.808594 43.851562 89.542969 42.84375 90.652344 43.285156 C 90.664062 43.289062 90.679688 43.296875 90.691406 43.304688 C 91.324219 43.675781 91.128906 44.652344 91.582031 45.144531 C 92.027344 45.628906 92.871094 45.183594 93.367188 45.492188 C 93.90625 45.832031 94.089844 46.597656 94.734375 46.804688 C 94.746094 46.8125 94.761719 46.8125 94.773438 46.816406 C 96.097656 47.019531 97.40625 46.210938 98.753906 46.3125 C 99.644531 46.328125 100.347656 47.488281 101.160156 47.835938 C 101.488281 47.976562 102.207031 47.625 102.523438 47.582031 C 103.441406 47.460938 104.390625 47.515625 105.320312 47.46875 C 106.179688 47.453125 107.160156 47.277344 108.042969 47.375 C 108.285156 47.402344 108.28125 47.75 108.039062 47.777344 C 107.414062 47.878906 106.808594 48.003906 106.179688 48.058594 C 101.441406 48.507812 96.636719 47.292969 91.949219 48.265625 C 91.921875 48.269531 91.507812 48.339844 91.667969 48.445312 C 92.441406 48.96875 93.84375 48.898438 94.714844 48.988281 C 97.433594 49.335938 100.199219 49.242188 102.925781 49.417969 C 103.183594 49.433594 103.175781 49.8125 102.921875 49.820312 C 94.886719 50.136719 86.582031 50.160156 78.558594 49.601562 Z M 78.558594 49.597656 " fill-opacity="0.5882" fill-rule="nonzero"/><path fill="#ffffff" d="M 56.628906 62.4375 C 56.628906 62.4375 58.292969 60.679688 60.828125 60.832031 C 63.246094 60.964844 61.792969 57.332031 66.234375 57.183594 C 66.632812 57.164062 66.972656 56.859375 67.027344 56.484375 C 67.160156 55.746094 66.894531 55.121094 68.332031 54.6875 C 69.410156 54.347656 69.542969 52.796875 71.320312 53.195312 C 71.847656 53.308594 72.398438 53.289062 72.886719 53.078125 C 73.738281 52.71875 74.96875 52.683594 76.386719 54.347656 C 78.066406 56.351562 79.125 54.480469 80.488281 55.40625 C 81.167969 55.859375 81.359375 56.464844 81.375 56.9375 C 81.394531 57.332031 81.640625 57.675781 82.019531 57.789062 C 82.792969 58.015625 84.023438 58.621094 85.402344 59.660156 C 85.96875 60.074219 86.648438 60.300781 87.351562 60.28125 C 90.941406 60.167969 102.097656 59.828125 103.417969 60.207031 C 104.988281 60.660156 95.554688 61.890625 87.613281 61.984375 C 86.195312 62.058594 88.125 62.304688 87.371094 62.589844 C 86.613281 62.875 79.351562 63.003906 79.351562 63.003906 L 56.308594 64.214844 Z M 56.628906 62.4375 " fill-opacity="0.3412" fill-rule="nonzero"/><path fill="#ffffff" d="M 84.117188 61.25 C 84.011719 61.523438 84.367188 61.671875 84.566406 61.753906 C 85.132812 61.988281 85.757812 62.085938 86.359375 62.195312 C 88.421875 62.566406 90.445312 62.96875 92.542969 63.140625 C 93.0625 63.183594 93.585938 63.148438 94.105469 63.203125 C 94.246094 63.21875 94.582031 63.21875 94.671875 63.355469 C 94.730469 63.445312 94.484375 63.472656 94.445312 63.480469 C 94.167969 63.53125 93.886719 63.554688 93.609375 63.578125 C 92.398438 63.675781 91.1875 63.675781 89.972656 63.699219 C 88.710938 63.722656 87.410156 63.382812 86.191406 63.703125 C 85.992188 63.757812 85.742188 63.632812 85.535156 63.632812 C 84.746094 63.628906 84.015625 63.472656 83.222656 63.375 C 82.328125 63.265625 81.394531 63.296875 80.492188 63.246094 C 80.0625 63.222656 79.304688 63.003906 78.882812 63.113281 C 78.835938 63.128906 78.976562 63.152344 79.023438 63.167969 C 79.105469 63.199219 79.1875 63.238281 79.277344 63.257812 C 79.535156 63.324219 79.808594 63.371094 80.070312 63.441406 C 81.046875 63.691406 82.09375 63.820312 83.089844 63.988281 C 83.347656 64.03125 83.605469 64.082031 83.867188 64.105469 C 83.996094 64.113281 84.308594 64.070312 84.242188 64.183594 C 84.234375 64.195312 83.949219 64.164062 83.917969 64.160156 C 83.589844 64.152344 83.269531 64.070312 82.945312 64.046875 C 81.367188 63.9375 79.753906 63.96875 78.167969 63.960938 C 74.492188 63.941406 70.820312 64.042969 67.148438 64.039062 C 65.925781 64.039062 64.675781 64.019531 63.457031 63.914062 C 62.96875 63.875 62.464844 63.878906 62.003906 63.714844 C 61.847656 63.660156 61.691406 63.609375 61.535156 63.554688 C 61.472656 63.535156 61.289062 63.496094 61.351562 63.476562 C 61.933594 63.324219 62.707031 63.46875 63.3125 63.4375 C 64.90625 63.359375 66.496094 63.132812 68.089844 63.042969 C 68.777344 63.003906 68.761719 63.03125 69.453125 62.96875 C 69.460938 62.96875 70.375 62.957031 70.335938 62.804688 C 70.304688 62.691406 69.816406 62.574219 69.753906 62.550781 C 69.328125 62.40625 68.765625 62.261719 68.3125 62.3125 C 67.664062 62.390625 67.015625 62.332031 66.363281 62.347656 C 64.820312 62.386719 63.304688 62.410156 61.761719 62.339844 C 60.917969 62.300781 59.808594 62.382812 59.027344 62.007812 C 58.746094 61.871094 58.476562 61.703125 58.226562 61.519531 C 58.132812 61.453125 57.785156 61.03125 57.871094 61.132812 C 57.964844 60.726562 58.074219 60.300781 58.230469 59.902344 C 57.980469 59.84375 58.554688 59.128906 58.636719 59.042969 C 59.007812 58.660156 59.691406 58.230469 60.257812 58.269531 C 60.585938 58.289062 60.929688 58.800781 61.097656 59.035156 C 61.121094 59.066406 61.261719 59.226562 61.238281 59.273438 C 61.214844 59.3125 61.074219 59.113281 61.070312 59.082031 C 61.054688 58.921875 61.101562 58.757812 61.164062 58.613281 C 61.367188 58.117188 61.703125 57.652344 62.28125 57.691406 C 62.492188 57.703125 62.855469 57.84375 63 57.996094 C 63.046875 58.042969 63.070312 58.191406 63.070312 58.191406 C 63.070312 58.191406 63.253906 57.765625 63.371094 57.566406 C 63.429688 57.46875 63.476562 57.363281 63.542969 57.269531 C 63.765625 56.957031 63.804688 56.875 64.058594 56.707031 C 64.351562 56.511719 64.660156 56.335938 65.027344 56.414062 C 65.125 56.433594 65.207031 56.488281 65.292969 56.539062 C 65.339844 56.566406 65.476562 56.644531 65.429688 56.617188 C 64.921875 56.320312 65.445312 55.320312 65.675781 55.039062 C 66.304688 54.273438 67.648438 53.839844 68.550781 54.324219 C 68.839844 54.476562 69.101562 54.929688 69.195312 55.222656 C 69.226562 55.320312 69.15625 55.601562 69.15625 55.601562 C 69.140625 55.53125 69.34375 55.179688 69.355469 55.101562 C 69.457031 54.4375 69.609375 53.644531 70.234375 53.28125 C 70.390625 53.1875 70.5625 53.132812 70.738281 53.207031 C 70.828125 53.242188 70.929688 53.460938 70.976562 53.375 C 71.09375 53.175781 71.019531 52.671875 71.148438 52.402344 C 71.613281 51.460938 72.820312 50.90625 73.835938 51.148438 C 74.277344 51.257812 74.5 51.539062 74.550781 51.992188 C 74.5625 52.074219 74.539062 52.660156 74.644531 52.722656 C 74.648438 52.722656 74.828125 52.402344 74.859375 52.355469 C 75.054688 52.074219 75.269531 51.796875 75.65625 51.835938 C 76.15625 51.886719 76.601562 52.144531 76.757812 52.632812 C 76.78125 52.710938 76.925781 53.695312 77.117188 53.644531 C 77.371094 53.578125 77.613281 53.214844 77.867188 53.097656 C 78.425781 52.84375 79.035156 53.0625 79.527344 53.351562 C 79.761719 53.488281 79.953125 53.660156 79.953125 53.945312 C 79.953125 54.113281 79.707031 54.355469 79.851562 54.441406 C 79.925781 54.484375 79.980469 54.320312 80.0625 54.289062 C 80.289062 54.191406 80.558594 54.121094 80.808594 54.167969 C 81.007812 54.207031 81.167969 54.316406 81.324219 54.441406 C 82.261719 55.1875 81.417969 55.835938 81.175781 56.703125 C 81.144531 56.808594 81.640625 56.855469 81.691406 56.925781 C 81.765625 57.035156 81.605469 57.230469 81.550781 57.324219 C 81.523438 57.367188 81.625 57.261719 81.664062 57.234375 C 81.730469 57.1875 81.792969 57.136719 81.863281 57.101562 C 82.183594 56.941406 82.398438 56.882812 82.734375 57.035156 C 83.246094 57.269531 83.144531 57.773438 83.261719 58.183594 C 83.285156 58.273438 83.378906 58.027344 83.464844 57.992188 C 83.621094 57.925781 83.789062 57.890625 83.960938 57.878906 C 84.28125 57.859375 84.335938 58.140625 84.527344 58.328125 C 84.558594 58.355469 84.589844 58.378906 84.621094 58.394531 C 84.480469 58.300781 85.277344 58.179688 85.363281 58.4375 C 85.402344 58.554688 85.398438 58.699219 85.382812 58.816406 C 85.378906 58.855469 85.324219 58.90625 85.355469 58.925781 C 85.414062 58.960938 85.53125 58.835938 85.558594 58.816406 C 85.722656 58.699219 85.910156 58.609375 86.117188 58.636719 C 86.398438 58.671875 86.625 58.882812 86.875 59 C 87.136719 59.125 87.441406 59.136719 87.726562 59.136719 C 88.535156 59.144531 89.335938 59.003906 90.148438 59.03125 C 91.800781 59.089844 93.449219 59.261719 95.09375 59.417969 C 95.769531 59.484375 96.441406 59.597656 97.117188 59.652344 C 97.347656 59.671875 97.5625 59.734375 97.789062 59.769531 C 97.910156 59.789062 97.902344 59.789062 98.019531 59.820312 C 98.039062 59.824219 98.097656 59.847656 98.082031 59.835938 C 97.859375 59.707031 97.191406 59.863281 96.996094 59.867188 C 96.257812 59.882812 95.515625 59.875 94.777344 59.867188 C 92.4375 59.839844 90.085938 59.90625 87.75 60.042969 C 87.191406 60.078125 86.632812 60.140625 86.078125 60.171875 C 85.855469 60.1875 85.519531 60.136719 85.304688 60.195312 C 84.839844 60.320312 84.378906 60.804688 84.140625 61.210938 C 84.132812 61.222656 84.121094 61.238281 84.113281 61.25 " fill-opacity="0.6" fill-rule="nonzero"/><g clip-path="url(#dab9dd9d7d)"><g clip-path="url(#513aef5e5c)"><path fill="#07a5e1" d="M 131.179688 144.242188 L 32.902344 133.21875 L 47.226562 5.488281 L 145.507812 16.511719 Z M 131.179688 144.242188 " fill-opacity="1" fill-rule="nonzero"/></g></g><path fill="#ffffff" d="M 89.703125 121.34375 C 87.097656 121.34375 84.554688 121.027344 82.105469 120.460938 C 68.085938 117.101562 57.585938 104.617188 57.585938 89.660156 L 57.585938 58.269531 C 57.585938 40.699219 71.945312 26.664062 89.527344 26.566406 L 89.703125 26.566406 C 98.535156 26.566406 106.570312 30.140625 112.378906 35.871094 C 118.207031 41.621094 121.804688 48.867188 121.804688 58.25 L 121.804688 89.640625 L 121.824219 89.640625 C 121.824219 107.070312 107.367188 121.34375 89.703125 121.34375 M 89.703125 19.441406 C 69.496094 19.441406 51.238281 37.382812 51.28125 57.035156 L 51.28125 92.585938 C 51.21875 111.421875 70.242188 129.140625 89.328125 129.140625 C 89.453125 129.140625 89.578125 129.136719 89.703125 129.136719 C 97.34375 129.136719 104.71875 126.800781 110.945312 122.816406 C 121.226562 116.238281 128.347656 105.128906 128.347656 92.566406 L 128.347656 57.015625 C 128.347656 42.488281 120.671875 30.925781 109.613281 24.644531 C 103.726562 21.285156 96.863281 19.441406 89.703125 19.441406 " fill-opacity="1" fill-rule="nonzero"/><path fill="#07a5e1" d="M 115.164062 38.417969 L 113.898438 39.835938 C 113.5 40.289062 112.78125 40.328125 112.328125 39.929688 C 111.875 39.535156 111.835938 38.816406 112.234375 38.363281 L 113.5 36.945312 C 113.898438 36.488281 114.617188 36.453125 115.070312 36.847656 C 115.523438 37.265625 115.578125 37.964844 115.164062 38.417969 Z M 115.164062 38.417969 " fill-opacity="1" fill-rule="nonzero"/><path fill="#07a5e1" d="M 140.308594 68.613281 L 139.042969 70.03125 C 138.644531 70.484375 137.925781 70.523438 137.472656 70.125 C 137.019531 69.730469 136.984375 69.011719 137.378906 68.558594 L 138.644531 67.140625 C 139.042969 66.6875 139.761719 66.648438 140.214844 67.046875 C 140.667969 67.441406 140.707031 68.160156 140.308594 68.613281 Z M 140.308594 68.613281 " fill-opacity="1" fill-rule="nonzero"/><path fill="#07a5e1" d="M 122.125 38.769531 L 120.859375 40.1875 C 120.460938 40.640625 119.742188 40.679688 119.289062 40.28125 C 118.835938 39.886719 118.796875 39.167969 119.195312 38.710938 L 120.460938 37.296875 C 120.859375 36.839844 121.578125 36.804688 122.03125 37.199219 C 122.484375 37.597656 122.523438 38.296875 122.125 38.769531 Z M 122.125 38.769531 " fill-opacity="1" fill-rule="nonzero"/><path fill="#ffffff" d="M 112.179688 38.425781 L 113.460938 36.984375 L 111.695312 37.863281 Z M 112.179688 38.425781 " fill-opacity="1" fill-rule="evenodd"/><path fill="#ffffff" d="M 88.828125 116.890625 C 89.417969 116.800781 89.972656 117.210938 90.0625 117.808594 C 90.15625 118.402344 89.75 118.960938 89.15625 119.050781 C 88.566406 119.140625 88.011719 118.730469 87.921875 118.136719 C 87.832031 117.539062 88.238281 116.980469 88.828125 116.890625 Z M 88.871094 117.308594 C 89.238281 117.253906 89.578125 117.507812 89.632812 117.871094 C 89.691406 118.238281 89.4375 118.582031 89.074219 118.636719 C 88.710938 118.691406 88.367188 118.441406 88.3125 118.074219 C 88.257812 117.707031 88.507812 117.367188 88.871094 117.308594 Z M 88.871094 117.308594 " fill-opacity="0.2588" fill-rule="evenodd"/><g clip-path="url(#9a7f82303e)"><path fill="#07a5e1" d="M 107.523438 69.390625 C 107.535156 69.375 107.546875 69.359375 107.558594 69.34375 C 105.976562 70.582031 104.402344 71.800781 102.832031 72.992188 C 79.339844 90.679688 57.296875 102.03125 46.914062 103.484375 C 44.097656 103.882812 42.132812 103.523438 41.242188 102.386719 C 39.769531 100.496094 41.261719 96.46875 45.101562 91.007812 L 45.101562 69.511719 C 26.875 88.757812 18.066406 107.359375 24.703125 115.828125 C 28.957031 121.253906 39.257812 122.351562 53.210938 116.339844 C 68.113281 109.914062 87.171875 95.394531 107.515625 69.398438 C 107.535156 69.382812 107.550781 69.367188 107.558594 69.363281 C 107.546875 69.371094 107.535156 69.382812 107.523438 69.390625 Z M 107.523438 69.390625 " fill-opacity="1" fill-rule="nonzero"/><path fill="#ade8ff" d="M 107.558594 69.363281 C 87.199219 95.375 68.125 109.910156 53.210938 116.339844 C 39.257812 122.351562 28.957031 121.253906 24.703125 115.828125 C 18.066406 107.359375 26.875 88.757812 45.101562 69.511719 L 45.101562 75.390625 C 34.816406 84.9375 26.027344 100.023438 27.40625 109.0625 C 27.765625 111.425781 29.390625 113.390625 31.601562 114.277344 C 56.234375 124.183594 106.804688 70.15625 107.558594 69.359375 Z M 107.558594 69.363281 " fill-opacity="1" fill-rule="nonzero"/></g><g mask="url(#7c571c9769)"><g transform="matrix(1, 0, 0, 1, 33, 69)"><g clip-path="url(#9b23f5a4ee)"><g clip-path="url(#f0aa916f13)"><path fill="#ffffff" d="M 74.558594 0.363281 C 73.726562 1.0625 13.648438 50.550781 2.097656 38.378906 C -1.910156 34.144531 5.085938 21.195312 12.101562 14.050781 L 12.101562 22.007812 C 8.261719 27.46875 6.769531 31.496094 8.242188 33.386719 C 9.132812 34.523438 11.097656 34.882812 13.914062 34.484375 C 24.992188 32.933594 49.339844 20.117188 74.558594 0.363281 Z M 74.558594 0.363281 " fill-opacity="1" fill-rule="nonzero"/></g></g></g></g><path fill="#07a5e1" d="M 140.101562 58.425781 L 138.742188 59.957031 C 138.363281 60.390625 137.699219 60.429688 137.265625 60.050781 C 136.832031 59.671875 136.792969 59.011719 137.171875 58.578125 L 138.53125 57.042969 C 138.910156 56.609375 139.570312 56.574219 140.007812 56.949219 C 140.441406 57.347656 140.480469 58.007812 140.101562 58.425781 Z M 140.101562 58.425781 " fill-opacity="1" fill-rule="nonzero"/><path fill="#07a5e1" d="M 96.605469 64.390625 L 98.285156 62.914062 L 108.96875 64.675781 L 122.199219 50.324219 L 116.757812 45.335938 L 97.851562 39.324219 L 100.308594 36.960938 L 131.578125 40.835938 C 131.898438 40.871094 132.21875 40.757812 132.445312 40.550781 L 141.257812 32.042969 C 141.730469 31.589844 142.277344 31.25 142.882812 31.023438 C 144.46875 30.4375 147.550781 29.605469 149.027344 31.136719 C 150.59375 32.78125 149.121094 36.070312 148.324219 37.546875 C 148.082031 38.015625 147.738281 38.433594 147.34375 38.792969 L 138.417969 46.828125 C 138.191406 47.035156 138.058594 47.335938 138.058594 47.640625 L 138.910156 79.230469 L 136.511719 81.382812 L 131.972656 61.835938 L 127.550781 56.164062 L 112.179688 68.378906 L 112.878906 78.851562 L 111.386719 80.363281 L 106.738281 71.230469 C 106.453125 70.683594 106.035156 70.230469 105.507812 69.910156 L 96.605469 64.386719 Z M 96.605469 64.390625 " fill-opacity="1" fill-rule="nonzero"/><path fill="#ffffff" d="M 122.203125 50.308594 L 116.738281 45.308594 L 110.535156 43.332031 L 116.234375 45.640625 L 120.886719 50.46875 L 118.515625 54.320312 Z M 122.203125 50.308594 " fill-opacity="1" fill-rule="evenodd"/><path fill="#ffffff" d="M 127.550781 56.160156 L 132.195312 61.902344 L 133.539062 68.550781 L 131.835938 62.386719 L 127.308594 57.386719 L 123.269531 59.570312 Z M 127.550781 56.160156 " fill-opacity="1" fill-rule="evenodd"/><g fill="#07a5e1" fill-opacity="1"><g transform="translate(158.767937, 112.960044)"><g><path d="M 5.1875 -67.3125 L 53.65625 -67.3125 L 53.65625 -55.1875 L 35.765625 -55.1875 L 35.765625 0 L 23.078125 0 L 23.078125 -55.1875 L 5.1875 -55.1875 Z M 5.1875 -67.3125 "/></g></g></g><g fill="#07a5e1" fill-opacity="1"><g transform="translate(214.728364, 112.960044)"><g><path d="M 5.1875 -47.6875 L 25.390625 -47.6875 L 25.390625 -40.765625 L 27.109375 -40.765625 C 28.015625 -43.398438 29.539062 -45.4375 31.6875 -46.875 C 33.832031 -48.320312 36.410156 -49.046875 39.421875 -49.046875 C 44.171875 -49.046875 47.984375 -47.550781 50.859375 -44.5625 C 53.742188 -41.582031 55.1875 -37.050781 55.1875 -30.96875 L 55.1875 -28.84375 L 42.6875 -27.6875 L 42.6875 -29.046875 C 42.6875 -31.671875 42.015625 -33.765625 40.671875 -35.328125 C 39.328125 -36.898438 37.304688 -37.6875 34.609375 -37.6875 C 31.921875 -37.6875 29.804688 -36.753906 28.265625 -34.890625 C 26.734375 -33.035156 25.96875 -30.378906 25.96875 -26.921875 L 25.96875 -11.53125 L 36.921875 -11.53125 L 36.921875 0 L 4.03125 0 L 4.03125 -11.53125 L 13.84375 -11.53125 L 13.84375 -36.15625 L 5.1875 -36.15625 Z M 5.1875 -47.6875 "/></g></g></g><g fill="#07a5e1" fill-opacity="1"><g transform="translate(270.688791, 112.960044)"><g><path d="M 38.359375 -6.921875 C 37.078125 -3.910156 35.28125 -1.78125 32.96875 -0.53125 C 30.664062 0.71875 27.976562 1.34375 24.90625 1.34375 C 22.019531 1.34375 19.3125 0.800781 16.78125 -0.28125 C 14.25 -1.375 12.019531 -2.976562 10.09375 -5.09375 C 8.175781 -7.207031 6.65625 -9.769531 5.53125 -12.78125 C 4.40625 -15.800781 3.84375 -19.234375 3.84375 -23.078125 L 3.84375 -24.609375 C 3.84375 -28.398438 4.382812 -31.800781 5.46875 -34.8125 C 6.5625 -37.820312 8.035156 -40.382812 9.890625 -42.5 C 11.753906 -44.613281 13.921875 -46.234375 16.390625 -47.359375 C 18.859375 -48.484375 21.503906 -49.046875 24.328125 -49.046875 C 27.722656 -49.046875 30.460938 -48.46875 32.546875 -47.3125 C 34.628906 -46.15625 36.28125 -44.359375 37.5 -41.921875 L 39.234375 -41.921875 L 39.234375 -47.6875 L 51.34375 -47.6875 L 51.34375 -14.421875 C 51.34375 -12.492188 52.207031 -11.53125 53.9375 -11.53125 L 55.765625 -11.53125 L 55.765625 0 L 47.5 0 C 45.320312 0 43.539062 -0.640625 42.15625 -1.921875 C 40.78125 -3.203125 40.09375 -4.867188 40.09375 -6.921875 Z M 27.59375 -10.1875 C 31.125 -10.1875 33.945312 -11.359375 36.0625 -13.703125 C 38.175781 -16.046875 39.234375 -19.234375 39.234375 -23.265625 L 39.234375 -24.421875 C 39.234375 -28.460938 38.175781 -31.648438 36.0625 -33.984375 C 33.945312 -36.328125 31.125 -37.5 27.59375 -37.5 C 24.070312 -37.5 21.253906 -36.328125 19.140625 -33.984375 C 17.023438 -31.648438 15.96875 -28.460938 15.96875 -24.421875 L 15.96875 -23.265625 C 15.96875 -19.234375 17.023438 -16.046875 19.140625 -13.703125 C 21.253906 -11.359375 24.070312 -10.1875 27.59375 -10.1875 Z M 27.59375 -10.1875 "/></g></g></g><g fill="#07a5e1" fill-opacity="1"><g transform="translate(326.649218, 112.960044)"><g><path d="M 4.140625 -47.6875 L 17.21875 -47.6875 L 28.46875 -5.765625 L 30.1875 -5.765625 L 41.4375 -47.6875 L 54.515625 -47.6875 L 40.859375 0 L 17.78125 0 Z M 4.140625 -47.6875 "/></g></g></g><g fill="#07a5e1" fill-opacity="1"><g transform="translate(382.609645, 112.960044)"><g><path d="M 8.359375 -11.53125 L 24.515625 -11.53125 L 24.515625 -36.15625 L 9.515625 -36.15625 L 9.515625 -47.6875 L 36.640625 -47.6875 L 36.640625 -11.53125 L 50.484375 -11.53125 L 50.484375 0 L 8.359375 0 Z M 39.609375 -61.828125 C 39.609375 -60.546875 39.367188 -59.34375 38.890625 -58.21875 C 38.410156 -57.101562 37.753906 -56.144531 36.921875 -55.34375 C 36.085938 -54.539062 35.109375 -53.894531 33.984375 -53.40625 C 32.867188 -52.925781 31.703125 -52.6875 30.484375 -52.6875 C 29.203125 -52.6875 28.015625 -52.925781 26.921875 -53.40625 C 25.835938 -53.894531 24.875 -54.539062 24.03125 -55.34375 C 23.195312 -56.144531 22.539062 -57.101562 22.0625 -58.21875 C 21.582031 -59.34375 21.34375 -60.546875 21.34375 -61.828125 C 21.34375 -63.109375 21.582031 -64.304688 22.0625 -65.421875 C 22.539062 -66.546875 23.195312 -67.507812 24.03125 -68.3125 C 24.875 -69.113281 25.835938 -69.753906 26.921875 -70.234375 C 28.015625 -70.722656 29.203125 -70.96875 30.484375 -70.96875 C 31.703125 -70.96875 32.867188 -70.722656 33.984375 -70.234375 C 35.109375 -69.753906 36.085938 -69.113281 36.921875 -68.3125 C 37.753906 -67.507812 38.410156 -66.546875 38.890625 -65.421875 C 39.367188 -64.304688 39.609375 -63.109375 39.609375 -61.828125 Z M 39.609375 -61.828125 "/></g></g></g><g fill="#ffffff" fill-opacity="1"><g transform="translate(438.576518, 112.960044)"><g><path d="M 19.609375 -25.390625 L 19.609375 0 L 6.921875 0 L 6.921875 -67.3125 L 33.265625 -67.3125 C 36.734375 -67.3125 39.75 -66.75 42.3125 -65.625 C 44.875 -64.5 47.003906 -63.023438 48.703125 -61.203125 C 50.398438 -59.378906 51.679688 -57.296875 52.546875 -54.953125 C 53.410156 -52.609375 53.84375 -50.222656 53.84375 -47.796875 L 53.84375 -45.484375 C 53.84375 -42.984375 53.410156 -40.53125 52.546875 -38.125 C 51.679688 -35.71875 50.398438 -33.566406 48.703125 -31.671875 C 47.003906 -29.785156 44.875 -28.265625 42.3125 -27.109375 C 39.75 -25.960938 36.734375 -25.390625 33.265625 -25.390625 Z M 19.609375 -37.5 L 32.015625 -37.5 C 34.835938 -37.5 37.066406 -38.265625 38.703125 -39.796875 C 40.335938 -41.335938 41.15625 -43.328125 41.15625 -45.765625 L 41.15625 -46.921875 C 41.15625 -49.359375 40.335938 -51.34375 38.703125 -52.875 C 37.066406 -54.414062 34.835938 -55.1875 32.015625 -55.1875 L 19.609375 -55.1875 Z M 19.609375 -37.5 "/></g></g></g><g fill="#ffffff" fill-opacity="1"><g transform="translate(494.536945, 112.960044)"><g><path d="M 18.171875 -19.90625 C 18.234375 -18.488281 18.566406 -17.1875 19.171875 -16 C 19.785156 -14.820312 20.617188 -13.800781 21.671875 -12.9375 C 22.734375 -12.070312 23.953125 -11.394531 25.328125 -10.90625 C 26.710938 -10.425781 28.175781 -10.1875 29.71875 -10.1875 C 32.726562 -10.1875 35.035156 -10.710938 36.640625 -11.765625 C 38.242188 -12.828125 39.394531 -14.097656 40.09375 -15.578125 L 50.484375 -9.8125 C 49.898438 -8.59375 49.097656 -7.320312 48.078125 -6 C 47.054688 -4.6875 45.726562 -3.484375 44.09375 -2.390625 C 42.457031 -1.304688 40.46875 -0.414062 38.125 0.28125 C 35.78125 0.988281 33.039062 1.34375 29.90625 1.34375 C 26.3125 1.34375 23.039062 0.769531 20.09375 -0.375 C 17.144531 -1.53125 14.597656 -3.195312 12.453125 -5.375 C 10.304688 -7.5625 8.640625 -10.222656 7.453125 -13.359375 C 6.265625 -16.503906 5.671875 -20.066406 5.671875 -24.046875 L 5.671875 -24.609375 C 5.671875 -28.265625 6.296875 -31.597656 7.546875 -34.609375 C 8.796875 -37.628906 10.507812 -40.195312 12.6875 -42.3125 C 14.875 -44.425781 17.425781 -46.078125 20.34375 -47.265625 C 23.257812 -48.453125 26.382812 -49.046875 29.71875 -49.046875 C 33.8125 -49.046875 37.332031 -48.320312 40.28125 -46.875 C 43.238281 -45.4375 45.675781 -43.609375 47.59375 -41.390625 C 49.519531 -39.179688 50.929688 -36.742188 51.828125 -34.078125 C 52.722656 -31.421875 53.171875 -28.84375 53.171875 -26.34375 L 53.171875 -19.90625 Z M 29.609375 -38.078125 C 26.535156 -38.078125 24.035156 -37.289062 22.109375 -35.71875 C 20.191406 -34.144531 18.941406 -32.335938 18.359375 -30.296875 L 40.859375 -30.296875 C 40.484375 -32.535156 39.285156 -34.390625 37.265625 -35.859375 C 35.242188 -37.335938 32.691406 -38.078125 29.609375 -38.078125 Z M 29.609375 -38.078125 "/></g></g></g><g fill="#ffffff" fill-opacity="1"><g transform="translate(550.497372, 112.960044)"><g><path d="M 41.734375 -6.921875 L 40 -6.921875 C 39.488281 -5.828125 38.863281 -4.785156 38.125 -3.796875 C 37.382812 -2.804688 36.421875 -1.925781 35.234375 -1.15625 C 34.054688 -0.382812 32.648438 0.222656 31.015625 0.671875 C 29.378906 1.117188 27.40625 1.34375 25.09375 1.34375 C 22.144531 1.34375 19.40625 0.816406 16.875 -0.234375 C 14.34375 -1.296875 12.128906 -2.867188 10.234375 -4.953125 C 8.347656 -7.035156 6.875 -9.582031 5.8125 -12.59375 C 4.757812 -15.601562 4.234375 -19.066406 4.234375 -22.984375 L 4.234375 -24.71875 C 4.234375 -28.5625 4.789062 -31.988281 5.90625 -35 C 7.03125 -38.007812 8.570312 -40.554688 10.53125 -42.640625 C 12.488281 -44.722656 14.765625 -46.3125 17.359375 -47.40625 C 19.953125 -48.5 22.691406 -49.046875 25.578125 -49.046875 C 29.421875 -49.046875 32.460938 -48.320312 34.703125 -46.875 C 36.953125 -45.4375 38.71875 -43.398438 40 -40.765625 L 41.734375 -40.765625 L 41.734375 -67.3125 L 53.84375 -67.3125 L 53.84375 0 L 41.734375 0 Z M 29.046875 -10.1875 C 32.828125 -10.1875 35.882812 -11.390625 38.21875 -13.796875 C 40.5625 -16.203125 41.734375 -19.359375 41.734375 -23.265625 L 41.734375 -24.421875 C 41.734375 -28.335938 40.5625 -31.492188 38.21875 -33.890625 C 35.882812 -36.296875 32.828125 -37.5 29.046875 -37.5 C 25.253906 -37.5 22.1875 -36.328125 19.84375 -33.984375 C 17.507812 -31.648438 16.34375 -28.460938 16.34375 -24.421875 L 16.34375 -23.265625 C 16.34375 -19.234375 17.507812 -16.046875 19.84375 -13.703125 C 22.1875 -11.359375 25.253906 -10.1875 29.046875 -10.1875 Z M 29.046875 -10.1875 "/></g></g></g><g fill="#ffffff" fill-opacity="1"><g transform="translate(606.457799, 112.960044)"><g><path d="M 8.359375 -11.53125 L 24.515625 -11.53125 L 24.515625 -36.15625 L 9.515625 -36.15625 L 9.515625 -47.6875 L 36.640625 -47.6875 L 36.640625 -11.53125 L 50.484375 -11.53125 L 50.484375 0 L 8.359375 0 Z M 39.609375 -61.828125 C 39.609375 -60.546875 39.367188 -59.34375 38.890625 -58.21875 C 38.410156 -57.101562 37.753906 -56.144531 36.921875 -55.34375 C 36.085938 -54.539062 35.109375 -53.894531 33.984375 -53.40625 C 32.867188 -52.925781 31.703125 -52.6875 30.484375 -52.6875 C 29.203125 -52.6875 28.015625 -52.925781 26.921875 -53.40625 C 25.835938 -53.894531 24.875 -54.539062 24.03125 -55.34375 C 23.195312 -56.144531 22.539062 -57.101562 22.0625 -58.21875 C 21.582031 -59.34375 21.34375 -60.546875 21.34375 -61.828125 C 21.34375 -63.109375 21.582031 -64.304688 22.0625 -65.421875 C 22.539062 -66.546875 23.195312 -67.507812 24.03125 -68.3125 C 24.875 -69.113281 25.835938 -69.753906 26.921875 -70.234375 C 28.015625 -70.722656 29.203125 -70.96875 30.484375 -70.96875 C 31.703125 -70.96875 32.867188 -70.722656 33.984375 -70.234375 C 35.109375 -69.753906 36.085938 -69.113281 36.921875 -68.3125 C 37.753906 -67.507812 38.410156 -66.546875 38.890625 -65.421875 C 39.367188 -64.304688 39.609375 -63.109375 39.609375 -61.828125 Z M 39.609375 -61.828125 "/></g></g></g><g fill="#ffffff" fill-opacity="1"><g transform="translate(662.418226, 112.960044)"><g><path d="M 38.359375 -6.921875 C 37.078125 -3.910156 35.28125 -1.78125 32.96875 -0.53125 C 30.664062 0.71875 27.976562 1.34375 24.90625 1.34375 C 22.019531 1.34375 19.3125 0.800781 16.78125 -0.28125 C 14.25 -1.375 12.019531 -2.976562 10.09375 -5.09375 C 8.175781 -7.207031 6.65625 -9.769531 5.53125 -12.78125 C 4.40625 -15.800781 3.84375 -19.234375 3.84375 -23.078125 L 3.84375 -24.609375 C 3.84375 -28.398438 4.382812 -31.800781 5.46875 -34.8125 C 6.5625 -37.820312 8.035156 -40.382812 9.890625 -42.5 C 11.753906 -44.613281 13.921875 -46.234375 16.390625 -47.359375 C 18.859375 -48.484375 21.503906 -49.046875 24.328125 -49.046875 C 27.722656 -49.046875 30.460938 -48.46875 32.546875 -47.3125 C 34.628906 -46.15625 36.28125 -44.359375 37.5 -41.921875 L 39.234375 -41.921875 L 39.234375 -47.6875 L 51.34375 -47.6875 L 51.34375 -14.421875 C 51.34375 -12.492188 52.207031 -11.53125 53.9375 -11.53125 L 55.765625 -11.53125 L 55.765625 0 L 47.5 0 C 45.320312 0 43.539062 -0.640625 42.15625 -1.921875 C 40.78125 -3.203125 40.09375 -4.867188 40.09375 -6.921875 Z M 27.59375 -10.1875 C 31.125 -10.1875 33.945312 -11.359375 36.0625 -13.703125 C 38.175781 -16.046875 39.234375 -19.234375 39.234375 -23.265625 L 39.234375 -24.421875 C 39.234375 -28.460938 38.175781 -31.648438 36.0625 -33.984375 C 33.945312 -36.328125 31.125 -37.5 27.59375 -37.5 C 24.070312 -37.5 21.253906 -36.328125 19.140625 -33.984375 C 17.023438 -31.648438 15.96875 -28.460938 15.96875 -24.421875 L 15.96875 -23.265625 C 15.96875 -19.234375 17.023438 -16.046875 19.140625 -13.703125 C 21.253906 -11.359375 24.070312 -10.1875 27.59375 -10.1875 Z M 27.59375 -10.1875 "/></g></g></g></svg>