<svg width="446" height="384" viewBox="0 0 446 384" fill="none" xmlns="http://www.w3.org/2000/svg">
<path d="M317 108.599V190.875C317.047 237.578 275.021 275.49 228.734 275.49C184.833 276.005 140.792 234.771 140.937 190.875V108.599C140.89 63.1042 182.588 21.5938 228.734 21.5938C274.88 21.5938 317 57.0208 317 108.599Z" fill="#ADE8FF"/>
<path d="M150.161 206.615L160.693 195.286C161.161 194.818 161.911 194.865 162.281 195.427C162.984 196.458 164.109 197.719 165.276 197.016C166.177 196.49 166.88 195.339 167.51 194.542C168.51 193.266 169.604 191.974 170.427 190.578C171.156 189.349 171.641 187.974 172.51 186.828C172.713 186.557 173.604 185.385 174.005 185.573C174.318 185.719 174.276 186.646 174.729 186.542C175.12 186.453 175.505 185.859 175.745 185.568C176.542 184.583 177.193 183.484 177.802 182.38C179.406 179.469 180.932 176.568 182.979 173.937C183.927 172.724 185.094 171.339 186.62 170.87C189.906 169.859 191.786 174.141 193.802 175.875C194.818 176.75 196.266 176.708 197.401 177.339C198.073 177.708 198.281 178.516 198.844 179.005C199.755 179.812 200.963 180.182 201.807 181.083C204.771 184.24 205.484 188.87 207.432 192.615C208.51 194.677 209.713 197.911 208.088 199.979C207.042 201.312 205.458 202.141 204.094 203.099C202.135 204.479 200.182 205.937 197.901 206.734C196.432 207.245 194.885 207.354 193.365 207.646C192.156 207.885 190.865 208.297 189.625 208.286C187.078 208.26 184.776 207 182.187 207.109C179.542 207.214 176.963 207.891 174.333 208.13C166.422 208.859 158.5 209.458 150.583 210.125L150.161 206.615Z" fill="#234F68"/>
<path d="M160.469 208C163.875 203.896 167.068 199.187 171.995 196.781C176.469 194.599 182.672 194.76 185.927 190.448C186.141 190.167 185.438 189.687 185.292 189.51C184.823 188.943 184.844 188.344 185.188 187.713C185.974 186.255 186.953 184.901 187.62 183.38C187.781 183.005 188.214 182.161 187.906 181.76C187.635 181.401 187.016 181.865 186.771 182.026C185.969 182.542 183.891 184.427 183.615 182.5C183.333 180.531 184.563 178.984 185.37 177.318C185.938 176.146 186.229 174.854 186.75 173.656C186.906 173.302 187.964 171.109 188.583 171.479C189.24 171.87 189.328 173.062 189.698 173.682C190.198 174.521 191.12 175.208 191.833 175.865C192.958 176.896 194.594 177.057 195.75 178.026C199.708 181.354 202.474 185.552 206.964 188.281C209.13 189.599 214.734 192.437 213.661 195.76C213.208 197.167 211.693 197.974 210.427 198.516C207.479 199.771 204.26 200.141 201.151 200.802C198.115 201.443 195.193 200.49 192.167 201.047C189.641 201.51 187.234 202.448 184.729 203C176.667 204.776 168.552 206.333 160.469 207.995" fill="#437EB1"/>
<path d="M176.489 238.266C176.745 237.693 176.641 237.016 176.187 236.583C171.974 232.542 175.547 225.286 176.078 219.297C176.208 217.823 176.927 215.682 178.016 214.198C182.943 207.495 187.891 200.802 192.729 194.031C194.932 190.953 196.922 187.714 199.208 184.698C200.984 182.354 203.604 180.682 205.239 178.281C206.797 176 207.495 172.771 209.745 171.016C210.37 170.526 210.38 171.969 210.838 172.135C211.396 172.344 212.349 171.266 212.687 170.906C215.432 168.052 216.193 163.911 219.151 161.198C219.818 160.589 219.271 162.307 219.859 162.177C220.083 162.13 220.375 161.656 220.526 161.495C221.099 160.865 221.687 160.25 222.276 159.641C224.63 157.198 227.057 154.792 229 151.995C229.786 150.859 230.016 149.568 230.635 148.365C230.854 147.937 231.198 147.37 231.713 147.271C233.854 146.865 235.802 149.906 237.135 151.109C239.453 153.203 242.255 155.333 244.156 157.818C244.838 158.708 244.734 160.161 245.651 160.781C246.292 161.214 246.26 161.891 246.682 162.479C247.495 163.609 248.594 164.578 249.651 165.464C250.25 165.969 250.635 166.714 251.338 167.099C251.703 167.297 251.823 167.01 251.838 166.687C251.864 165.958 251.776 164.953 252.661 165.562C252.807 165.661 252.906 165.781 253.021 165.932C253.156 166.115 253.354 166.531 253.448 166.708C253.896 167.578 254.625 168.24 255.094 169.083C255.516 169.839 255.739 170.703 256.25 171.417C256.463 171.708 256.807 171.974 257.177 171.865C257.292 171.833 257.396 171.708 257.5 171.583C257.562 171.51 257.63 171.443 257.703 171.38C257.917 171.203 258.146 171.042 258.391 170.917C259.354 170.432 259.354 171.781 259.745 172.333C260.922 173.995 262.266 175.542 263.614 177.068C264.62 178.203 265.609 179.349 266.588 180.505C266.745 180.687 267.417 181.198 267.453 181.484C267.489 181.755 267.641 181.995 267.823 182.193C274.01 188.766 280.135 195.406 286.213 202.083L287.474 203.276C287.76 203.578 288.588 204.943 288.875 205.521C289.531 206.875 290.312 208.323 290.719 209.786C291.974 214.307 289.104 217.698 287.12 221.339C285.989 223.411 284.516 225.469 283.062 227.042C280.208 230.141 276.713 232.745 273.182 235.01C269.693 237.26 265.484 238.5 261.63 239.953C253.75 242.922 245.932 245.24 237.682 246.984C233.958 247.771 230.437 248.333 226.63 248.156C218.781 247.797 210.891 247.198 203.266 245.146C197.786 243.667 187.62 247.656 182.536 245.172C180.693 244.266 174.641 242.396 176.484 238.26L176.489 238.266Z" fill="#234F68"/>
<path d="M205.792 190.323C206.151 189.838 206.526 189.385 206.958 189.057C208.672 186.932 210.344 184.766 212.307 182.865C214.229 180.99 216.469 179.552 218.261 177.526C221.203 174.203 223.401 170.307 226.328 166.969C228.083 164.969 230.208 163.49 232.177 161.724C232.927 161.052 234.224 160.073 234.438 159.01C234.578 158.338 233.625 158.734 233.328 158.849C232.156 159.286 231.047 159.896 229.953 160.49C229.87 160.536 228.448 161.302 228.443 161.292C228.193 160.682 229.094 159.75 229.422 159.344C230.339 158.219 232.521 156.463 232.458 154.859C232.438 154.328 231.792 155.026 231.672 155.146C231.406 155.406 229.969 157.167 229.568 156.474C229.318 156.042 229.646 155.401 229.844 155.016C230.396 153.953 231.469 153.01 231.823 151.865C232.13 150.875 231.797 149.693 231.839 148.677C231.849 148.354 231.865 147.599 232.203 147.401C232.406 147.286 232.912 148.115 233.037 148.26C233.87 149.25 234.745 150.208 235.693 151.088C236.198 151.568 236.729 152.026 237.307 152.422C237.49 152.552 237.682 152.672 237.88 152.781C237.969 152.828 238.234 152.917 238.136 152.922C237.714 152.958 236.62 152.062 236.25 152.344C236.198 152.385 236.901 153.042 236.964 153.099C237.688 153.792 238.432 154.458 239.198 155.104C241.224 156.818 243.339 158.396 245.011 160.49C247.287 163.354 248.323 167.01 250.667 169.766C251.761 171.052 253.115 170.922 254.438 171.724C254.615 171.828 255.932 172.583 255.719 172.932C255.292 173.641 254.234 174.031 253.641 174.703C252.573 175.906 251.365 177.083 250.234 178.234C250.208 178.266 250.229 176.208 249.818 176.417C248.938 176.854 247.776 178.344 247.099 179.109C246.875 179.359 246.396 179.776 246.797 179.927C246.568 180.26 246.302 180.583 245.974 180.896C245.261 181.573 244.927 180.088 244.287 180.833C243.672 181.557 243.203 182.286 242.776 183.135C242.615 183.458 242.141 184.734 241.708 184.99C241.609 185.047 241.677 184.76 241.677 184.646C241.672 184.344 241.729 183.635 241.531 183.396C241.359 183.182 241.063 183.677 240.833 183.828C239.016 185.026 238.526 187.745 237.698 189.583C237.662 189.667 236.386 192.104 236.412 191.917C235.708 192.74 235.136 193.448 234.75 193.958C234.698 194.031 236.771 194.76 236.839 194.844C237.287 195.391 236.729 195.849 237.641 196.104C238.224 196.266 238.787 196.422 239.323 196.719C239.391 196.75 239.766 196.911 239.745 197.021C239.656 197.453 238.203 197.062 238.714 197.521C239.625 198.328 240.656 198.292 241.698 198.588C242.031 198.682 242.375 198.891 242.729 198.932C243.182 198.99 243.646 198.979 244.104 198.932C244.266 198.917 244.823 198.63 244.833 198.786C246.172 199.182 247.328 198.323 248.057 197.271C248.656 196.406 249.089 195.396 249.844 194.651C252.083 192.437 254.922 190.948 256.891 188.443C257.568 187.578 259.37 186.297 259.245 185.057C259.208 184.687 258.453 185.12 258.276 185.193C257.469 185.526 256.672 185.917 255.833 186.187C255.615 186.255 255.203 186.427 254.974 186.297C254.849 186.224 255.432 185.62 255.474 185.573C255.859 185.146 257.193 184.115 257.151 183.474C257.094 182.62 255.516 183.453 255.151 183.031C254.984 182.838 255.276 182.328 255.37 182.161C255.745 181.516 256.745 180.797 256.802 180.021C256.844 179.5 256.042 179.427 256.052 178.875C256.068 177.948 256.974 177.224 257.219 176.354C257.464 175.479 257.052 174.573 257.266 173.698C257.313 173.495 257.714 172.088 257.922 172.062C257.927 172.062 258.047 172.432 258.052 172.437C258.229 172.922 258.412 173.411 258.662 173.859C259.261 174.932 260.552 175.578 261.037 176.703C261.38 177.5 260.714 178.448 261.37 179.156C262.24 180.094 263.849 180.615 264.896 181.354C265.219 181.578 265.948 181.995 265.995 182.443C266.057 182.99 265.406 183.766 265.089 184.151C264.005 185.49 262.563 186.463 261.281 187.599C258.261 190.281 254.62 192.422 251.886 195.401C249.708 197.776 248.63 200.984 246.042 203.01C245.469 203.453 244.63 203.911 244.099 204.323C243.443 204.823 241.401 203.536 240.891 203.307C237.833 201.922 235.875 200.312 233.583 197.854C232.906 197.13 232.162 196.417 231.573 195.62C231.412 195.396 231.12 194.203 230.698 194.427C227.896 195.885 227.755 201.062 224.495 202.052C223.578 202.333 223.031 200.948 222.24 201.151C221.474 201.349 220.531 202.802 220.016 203.365C218.313 205.24 216.24 208.224 213.755 209.115C213.136 209.333 212.969 208.771 212.88 208.266C212.875 208.24 212.771 207.437 212.74 207.453C211.563 208.099 210.474 209.542 209.557 210.505C207.172 213.016 205 215.724 202.766 218.365C201.417 219.953 200.078 221.568 198.474 222.906C196.531 224.526 194.344 225.823 192.49 227.552C189.12 230.693 186.021 234.75 181.833 236.849C177.099 239.219 173.563 235.62 171.208 231.734C170.412 230.417 168.974 228.672 169.245 227.016C169.787 223.745 172.578 220.219 174.672 217.781C180.745 210.698 189.083 206.146 196.474 200.63C197.958 199.521 199.886 198.344 201.005 196.844C201.979 195.536 202.349 193.682 203.859 192.838C204.151 192.672 204.292 192.323 204.511 192.068C204.958 191.557 205.37 190.917 205.813 190.323" fill="#437EB1"/>
<path d="M311.906 208.813C307.13 213.026 289.958 188.547 283.734 181.292C277.927 174.458 277.458 174.927 276.526 174.927C275.588 174.927 256.917 182.792 237.542 207.453C218.161 232.12 304.37 232.026 304.37 232.026L311.906 208.813Z" fill="#234F68"/>
<path d="M299.161 223.406C299.193 223.089 299.661 222.698 299.875 222.474C300.573 221.74 301.276 221.052 301.813 220.182C302.516 219.047 303.25 217.917 303.943 216.771C304.557 215.75 306.016 213.724 305.896 212.396C305.755 210.844 304.542 209.88 303.74 208.635C303.255 207.896 302.969 207.307 302.349 206.667C301.604 205.896 301.359 205.12 300.38 204.573C300.349 204.557 299.547 204.115 299.542 204.12C299.229 204.359 299.563 205.635 298.823 205.411C298.036 205.177 297.521 204.073 297.089 203.474C295.984 201.917 294.693 200.49 293.698 198.844C293.375 198.302 292.87 197.932 292.542 197.401C292.536 197.396 291.802 196.193 291.797 196.214C291.594 197.807 292.406 199.734 292.745 201.26C292.786 201.453 293.26 202.917 293.047 203.187C292.917 203.354 292.771 202.87 292.661 202.693C292.151 201.849 291.755 201.026 291.344 200.135C290.25 197.745 289.281 195.312 288.193 192.911C286.198 188.531 283.417 184.432 280.344 180.76C279.948 180.286 279.703 179.646 279.281 179.214C278.948 178.865 278.401 178.708 278.042 178.344C277.974 178.276 277.427 177.49 277.333 177.599C275.974 179.135 275.448 181.224 274.396 182.927C273.25 183.786 271.594 185.156 271.604 186.13C271.615 187.302 274.682 186.974 274.021 187.922C272.792 189.682 270.339 190.781 268.807 192.286C268.172 192.906 267.245 193.823 267.323 194.802C267.458 196.568 270.823 195.745 271.885 195.714C272.339 195.703 273.203 195.651 273.344 196.234C273.49 196.823 272.5 197.557 272.146 197.87C270.839 199.031 268.703 200.193 267.984 201.859C267.12 203.88 271.714 203.068 271.563 204.516C271.479 205.328 270.089 206.062 269.505 206.469C267.797 207.672 264.594 209.297 264.135 211.562C263.818 213.135 266.109 212.344 266.198 213.792C266.354 216.365 263.786 218.75 265.021 221.375C266.224 223.922 270.391 225.052 272.865 225.667C280.422 227.542 289.578 227.453 296.932 224.724C297.87 224.375 298.599 223.922 299.161 223.411V223.406Z" fill="#437EB1"/>
<path d="M181.62 251.302C185.031 248.979 184.682 247.339 187.505 244.286C190.469 241.089 196.823 236.25 200.594 233.865C202.063 232.937 201.854 234.766 201.885 235.729C201.891 236.031 201.87 236.708 202.354 236.562C204.01 236.057 205.432 234.26 206.495 232.995C208.781 230.276 210.729 227.385 213.474 225.083C214.089 224.568 215.573 223.229 216.479 223.531C217.182 223.766 217.026 225.63 218.005 224.802C220.964 222.281 223.135 218.958 226.245 216.568C228.063 215.172 230.484 215.219 232.115 213.458C234.427 210.969 236.287 206.437 239.896 205.573C241.229 205.25 243.537 207.187 244.542 207.833C249.307 210.911 254.297 214.359 258.62 218.026C262.026 220.917 265.13 224.318 268.901 226.75C270.198 227.583 272.761 229.052 274.38 228.724C275.042 228.594 274.37 227.042 275.151 227.229C276.63 227.589 278.167 228.781 279.37 229.672C282.49 231.99 285.089 234.901 288.094 237.354C291.531 240.156 295.922 241.328 299.453 243.979C300.995 245.135 302.761 246.932 302.974 248.969C303.266 251.781 299.146 254.781 297.401 256.526C290.823 263.099 283.349 268.583 275.083 272.859C268.219 276.411 260.912 279.083 253.302 280.49C225.573 285.62 199.021 272.604 181.625 251.307" fill="#234F68"/>
<path d="M295 230.953C290.099 228.568 284.693 225.609 279.25 224.74C277.875 224.521 277.886 226.76 276.609 226.396C273.552 225.516 271.287 221.391 267.677 222.323C267.057 222.484 268.214 224.969 267.859 224.823C264.24 223.318 263.016 218.599 260.521 215.943C259.526 214.885 259.047 216.646 258.318 216.292C256.136 215.245 254.755 212.292 252.281 211.75C252.011 211.688 252.052 212.464 252.052 212.578C252.047 213.438 252.146 214.297 252.198 215.151C252.198 215.188 252.245 216.042 252.146 215.995C249.797 214.833 248.568 211.281 246.99 209.333C246.38 208.578 245.365 207.406 244.287 207.432C243.005 207.464 243.412 210.25 243.537 211.031C243.563 211.193 243.854 212.245 243.469 212.125C242.391 211.792 241.438 209.552 240.932 208.688C239.255 205.818 237.599 201.297 234.255 199.969C233.266 199.578 232.5 197.833 231.99 196.969C231.948 196.901 231.511 195.943 231.464 195.938C231.365 195.938 231.328 196.547 231.328 196.563C231.276 197.224 231.448 197.75 231.693 198.354C232.266 199.776 232.886 201.208 233.583 202.568C234.12 203.604 234.865 204.635 234.995 205.823C235.214 207.766 232.766 208.224 231.438 208.891C230.484 209.37 229.943 210.042 230.552 211.068C231.151 212.068 232.313 212.839 233.214 213.536C235.068 214.979 237 216.323 238.792 217.844C239.719 218.635 241.448 219.917 241.484 221.286C241.521 222.781 237.781 221.651 237.083 221.49C236.912 221.448 235.234 221.125 235.333 221.255C238.281 225.167 243.625 226.609 247.339 229.625C248.266 230.38 249.302 230.99 250.182 231.813C250.354 231.974 250.927 232.432 250.724 232.729C250.609 232.896 250.031 232.703 249.891 232.667C249.099 232.474 248.318 232.198 247.547 231.932C244.896 231.021 242.255 229.99 239.521 229.344C238.964 229.208 237.115 228.63 236.636 229.224C236.386 229.531 238.479 230.432 238.698 230.568C240.688 231.802 242.719 233.109 244.464 234.682C244.62 234.823 246.083 236.083 245.563 236.411C244.734 236.932 242.984 236.688 242.068 236.594C238.943 236.266 235.964 235.068 232.818 234.891C231.995 234.844 229.177 234.276 228.792 235.219C228.589 235.714 229.214 236.188 229.547 236.427C230.557 237.167 231.75 237.589 232.87 238.115C236.714 239.896 240.636 241.651 244.651 243.016C245.448 243.286 248.318 243.922 248.453 244.922C248.505 245.318 247.823 245.344 247.589 245.344C246.604 245.354 245.609 245.094 244.662 244.854C241.547 244.063 238.453 242.979 235.24 242.656C234.297 242.557 232.255 242.318 231.537 243.188C231.156 243.651 233.318 244.911 233.651 245.13C235.49 246.333 237.37 247.495 239.109 248.839C239.62 249.234 240.766 249.943 240.849 250.672C240.964 251.63 239.354 251.63 238.792 251.615C237.125 251.568 235.49 251.167 233.818 251.167C233.229 251.167 232.203 251.182 231.901 251.823C231.609 252.453 232.5 253.188 232.886 253.547C233.886 254.469 237.266 256.422 236.271 258.141C234.724 260.807 230.474 257.297 228.271 258.49C227.464 258.927 227.807 259.708 228.094 260.391C228.531 261.406 229.412 262.792 228.719 263.88C227.844 265.26 225.578 265.24 224.865 266.708C224.651 267.146 225.078 267.714 225.307 268.057C225.323 268.078 225.792 268.724 225.75 268.74C225.078 269.089 223.031 267.75 223.552 269.776C224.016 271.552 227.412 271.927 228.865 272.146C234.526 272.99 240.708 272.318 246.281 271.177C268.193 266.693 284.401 249.792 295.005 230.948" fill="#437EB1"/>
<path d="M271.724 94.9427C272.099 95.25 271.417 95.4636 271.188 95.5417C270.385 95.8177 269.531 95.9688 268.698 96.1198C265.536 96.6875 262.375 96.9063 259.182 97.1511C254.646 97.5052 250.063 97.875 245.521 97.3958C241.542 96.9688 237.688 95.8438 233.849 94.7656C223.844 91.9636 213.833 91.7188 203.51 91.5781C198.063 91.5052 192.625 91.1667 187.172 91.3281C182.849 91.4583 178.49 92.0104 174.161 91.9115C173.151 91.8906 170.521 91.9896 169.776 91.1511C169.589 90.9375 170.339 91.0573 170.62 91.0052C171.203 90.9011 171.776 90.7708 172.349 90.625C174.484 90.0781 176.578 89.3386 178.724 88.8542C179.552 88.6667 180.385 88.5104 181.208 88.3021C181.245 88.2917 182.078 88.0886 182.016 87.974C181.896 87.7708 180.948 87.8229 180.729 87.8125C179.495 87.7292 178.26 87.75 177.021 87.8229C171.708 88.1406 166.464 88.8646 161.13 89.099C159.547 89.1667 157.948 89.2708 156.375 89.4896C156.151 89.5208 153.698 89.7656 153.833 89.5365C154.151 89.0052 155.234 88.875 155.766 88.7917C157.589 88.5 159.464 88.5729 161.297 88.6094C168.245 88.75 175.453 87.5104 182.323 86.5417C184.724 86.2031 187.125 85.8229 189.51 85.3854C190.396 85.224 191.271 85.0521 192.151 84.875C192.417 84.8229 192.677 84.7656 192.943 84.7136C193.057 84.6875 193.359 84.7136 193.281 84.625C193.083 84.4011 191.797 84.5886 191.479 84.5938C189.563 84.6094 187.641 84.6771 185.724 84.7708C177.719 85.1667 169.828 86.4115 161.849 87.0521C159.578 87.2344 157.286 87.3646 155.005 87.2813C154.833 87.2708 152.901 87.125 152.906 87.0938C152.958 86.9323 153.74 86.8229 153.875 86.7865C154.661 86.5729 155.438 86.3073 156.198 86.0208C158.26 85.25 160.292 84.3698 162.245 83.3542C163.474 82.7136 164.807 81.7708 166.198 81.5261C167.38 81.3229 168.641 81.4688 169.839 81.4219C170.073 81.4115 170.875 81.474 171.047 81.2448C171.365 80.8333 170.411 79.7708 170.255 79.3438C169.62 77.6198 169.318 75.7917 169.37 73.9583C169.5 69.4375 171.755 64.8646 176.38 63.4427C178.563 62.7708 180.271 63.9115 181.734 65.4167C182.333 66.0261 183.458 67.5677 184.484 67.3177C185.578 67.0521 184.859 64.6615 185.771 64.0469C186.313 63.6823 187.234 64.3906 187.646 64.6875C187.87 64.8438 188.536 65.2969 188.271 65.224C186.656 64.7552 188.63 62.2708 189.609 62.1719C190.667 62.0573 191.661 63.3229 192.245 64.0417C192.438 64.2761 192.615 64.5208 192.792 64.7656C192.896 64.9063 193.005 65.3594 193.094 65.2083C193.771 64.0365 193.75 62.0365 194.297 60.7188C195.865 56.9531 199.469 56.3802 203.13 57.1719C205.25 57.625 208.036 58.4844 209.188 60.4896C210.151 62.1667 210.229 65.5729 212.063 66.6927C211.901 66.125 213.5 65.349 213.708 65.2136C215.469 64.0677 217.411 64.0729 219.458 64.2396C220.719 64.3438 221.635 64.8438 222.005 66.1406C222.135 66.5886 222.141 67.5729 222.578 67.8542C223.01 68.1354 224.219 67.5313 224.599 67.4063C225.729 67.0365 226.88 66.8281 228.01 67.3542C229.833 68.2031 229.422 70.8333 230.828 71.7188C232.229 72.599 234.49 71.7448 236.073 72.5573C236.943 73 237.516 73.9375 237.839 74.8333C237.953 75.1458 237.828 76.1979 238.177 76.3594C238.453 76.4896 238.839 76.0625 239.104 75.9896C239.766 75.7969 240.615 75.9115 241.266 76.0833C246.594 77.474 252.198 77.4844 257.635 78.4427C261.073 79.0469 264.516 79.6667 267.948 80.2969C268.875 80.4688 269.885 80.6511 270.802 80.8958C271.214 81.0052 272.057 81.1771 272.057 81.1771C272.057 81.1771 271.49 81.0261 271.193 81.0104C271.083 81.0052 270.182 81.0104 270.036 81.0156C268.474 81.0677 266.906 81.1094 265.339 81.1563C259.88 81.3229 254.411 81.5625 248.948 81.5417C247.099 81.5365 245.25 81.4688 243.401 81.4479C242.833 81.4427 242.266 81.4636 241.703 81.4427C241.344 81.4323 240.396 81.099 240.625 81.3854C241.271 82.1823 243.042 81.8646 243.901 82.4271C246.526 84.1354 250.266 85 252.708 89C253.172 89.75 253.922 90.1719 254.813 90.2656C258.042 90.5 266.068 91.4844 271.729 94.9479" fill="white" fill-opacity="0.2706"/>
<path d="M203.276 85.6614C198.297 85.0677 193.266 84.1979 188.339 84.5104C188.318 84.4844 189.063 84.1302 189.219 84.0521C189.24 84.0469 189.26 84.0364 189.281 84.0208C189.589 83.8125 189.969 83.5937 190.333 83.3646C190.74 83.1042 190.589 82.4792 190.109 82.4427C181.661 81.7552 173.115 83.026 164.661 82.026C164.651 82.026 164.641 82.0208 164.625 82.0208C162.438 81.9635 167.714 81.0781 168.234 81.0729C168.271 81.0729 168.302 81.0625 168.333 81.0573C175.198 79.3646 184.328 79.3958 189.339 74.4375C189.385 74.3854 189.422 74.3281 189.453 74.2604C191.344 69.3698 202.135 61.4062 210.036 66.0417C210.063 66.0573 210.083 66.0781 210.109 66.0989C211.964 67.6875 214.203 66.7135 217.219 67.6458C217.432 67.7135 217.568 67.9114 217.568 68.1354C217.568 68.3229 217.599 68.5156 217.62 68.4948C218.76 67.5885 219.167 66.6406 220.693 66.1198C223.089 65.3021 224.849 66.4166 226.589 67.8906C226.63 67.9323 226.672 67.9739 226.698 68.026C228.651 71.4271 230.469 68.9323 233.219 70.0312C233.25 70.0416 233.281 70.0573 233.307 70.0729C234.88 71 234.396 73.4167 235.516 74.6354C236.62 75.8333 238.714 74.7292 239.938 75.5C241.276 76.3333 241.734 78.2292 243.323 78.7448C243.354 78.7552 243.385 78.7656 243.417 78.7708C246.698 79.276 249.932 77.2708 253.271 77.526C255.479 77.5677 257.224 80.4271 259.229 81.2917C260.047 81.6406 261.818 80.7708 262.604 80.6719C264.88 80.3698 267.229 80.5 269.526 80.3854C271.656 80.3489 274.089 79.9114 276.271 80.1562C276.87 80.2239 276.859 81.0833 276.26 81.151C274.719 81.401 273.214 81.7083 271.656 81.8437C259.927 82.9635 248.026 79.9531 236.422 82.3594C236.365 82.3698 235.333 82.5364 235.729 82.8021C237.651 84.0989 241.12 83.9271 243.276 84.151C250.005 85.0104 256.859 84.776 263.604 85.2135C264.234 85.2552 264.224 86.1875 263.589 86.2135C243.698 86.9948 223.141 87.0521 203.276 85.6667V85.6614Z" fill="white" fill-opacity="0.5882"/>
<path d="M148.99 117.448C148.99 117.448 153.109 113.094 159.38 113.469C165.37 113.792 161.766 104.807 172.766 104.432C173.75 104.385 174.594 103.641 174.729 102.703C175.057 100.875 174.406 99.3333 177.958 98.2552C180.63 97.4115 180.953 93.5781 185.354 94.5573C186.667 94.8386 188.021 94.7917 189.24 94.2761C191.344 93.3854 194.385 93.2969 197.896 97.4115C202.062 102.375 204.682 97.7396 208.052 100.036C209.74 101.156 210.208 102.656 210.255 103.828C210.302 104.807 210.906 105.651 211.844 105.932C213.766 106.495 216.807 107.99 220.219 110.563C221.625 111.594 223.307 112.156 225.042 112.109C233.932 111.828 261.547 110.984 264.823 111.922C268.708 113.047 245.354 116.089 225.698 116.323C222.187 116.51 226.963 117.115 225.088 117.818C223.219 118.521 205.245 118.849 205.245 118.849L148.193 121.844L148.99 117.443V117.448Z" fill="white" fill-opacity="0.3412"/>
<path d="M217.031 114.505C216.776 115.177 217.656 115.552 218.151 115.755C219.557 116.333 221.094 116.573 222.583 116.839C227.698 117.76 232.703 118.76 237.896 119.182C239.182 119.286 240.479 119.203 241.771 119.339C242.115 119.375 242.943 119.375 243.172 119.719C243.313 119.938 242.703 120.005 242.604 120.026C241.922 120.151 241.229 120.208 240.537 120.266C237.542 120.51 234.537 120.51 231.531 120.568C228.412 120.625 225.188 119.786 222.177 120.583C221.677 120.714 221.063 120.401 220.542 120.401C218.599 120.391 216.781 120.005 214.823 119.766C212.604 119.495 210.302 119.573 208.068 119.448C207.005 119.391 205.125 118.844 204.083 119.12C203.964 119.151 204.307 119.208 204.422 119.25C204.636 119.323 204.839 119.427 205.057 119.479C205.698 119.635 206.37 119.76 207.021 119.927C209.443 120.552 212.031 120.87 214.5 121.286C215.136 121.396 215.776 121.516 216.417 121.568C216.734 121.599 217.505 121.49 217.349 121.766C217.333 121.792 216.62 121.714 216.542 121.714C215.729 121.688 214.943 121.484 214.141 121.427C210.229 121.156 206.24 121.24 202.307 121.219C193.214 121.167 184.125 121.417 175.026 121.411C172.005 121.411 168.906 121.359 165.891 121.104C164.682 121 163.438 121.016 162.287 120.604C161.906 120.469 161.516 120.344 161.13 120.208C160.974 120.156 160.526 120.063 160.682 120.021C162.115 119.641 164.031 119.995 165.531 119.922C169.479 119.724 173.417 119.167 177.359 118.948C179.063 118.849 179.021 118.911 180.734 118.755C180.755 118.755 183.016 118.729 182.917 118.354C182.844 118.078 181.63 117.776 181.474 117.724C180.422 117.365 179.031 117.005 177.912 117.141C176.307 117.328 174.698 117.182 173.083 117.224C169.271 117.318 165.516 117.38 161.698 117.203C159.599 117.109 156.859 117.313 154.927 116.38C154.229 116.042 153.563 115.62 152.943 115.172C152.708 115.005 151.849 113.958 152.063 114.208C152.292 113.214 152.568 112.151 152.948 111.167C152.328 111.021 153.755 109.25 153.958 109.042C154.88 108.099 156.568 107.031 157.969 107.125C158.776 107.177 159.63 108.443 160.052 109.026C160.104 109.099 160.458 109.5 160.396 109.604C160.333 109.714 159.995 109.214 159.984 109.135C159.943 108.74 160.057 108.339 160.208 107.974C160.719 106.745 161.552 105.599 162.984 105.693C163.5 105.724 164.401 106.073 164.755 106.443C164.875 106.568 164.927 106.927 164.927 106.927C164.927 106.927 165.391 105.88 165.677 105.385C165.823 105.141 165.943 104.88 166.109 104.651C166.656 103.87 166.75 103.672 167.375 103.26C168.104 102.776 168.87 102.344 169.776 102.531C170.021 102.583 170.224 102.719 170.438 102.839C170.547 102.906 170.891 103.104 170.776 103.036C169.511 102.302 170.813 99.8229 171.38 99.1302C172.943 97.2344 176.271 96.1563 178.5 97.3542C179.214 97.7396 179.859 98.8542 180.094 99.5782C180.172 99.8177 180.005 100.516 180.005 100.516C179.958 100.349 180.469 99.4792 180.495 99.2813C180.74 97.6407 181.125 95.6771 182.672 94.7761C183.052 94.5469 183.479 94.4063 183.917 94.5886C184.141 94.6823 184.386 95.2188 184.511 95.0104C184.797 94.5104 184.609 93.2657 184.938 92.6042C186.083 90.2709 189.068 88.8906 191.589 89.5C192.677 89.7656 193.229 90.4636 193.354 91.5834C193.38 91.7917 193.328 93.2396 193.594 93.3959C193.599 93.3959 194.042 92.599 194.12 92.4844C194.599 91.7865 195.136 91.1042 196.089 91.1979C197.333 91.3281 198.432 91.9584 198.818 93.1719C198.875 93.3646 199.234 95.8021 199.714 95.6719C200.333 95.5104 200.938 94.6094 201.568 94.3229C202.948 93.6927 204.458 94.2396 205.672 94.9479C206.255 95.2865 206.724 95.7136 206.729 96.4219C206.734 96.8386 206.115 97.4323 206.474 97.6459C206.662 97.7552 206.802 97.349 207 97.2657C207.563 97.0313 208.229 96.8594 208.844 96.974C209.344 97.0677 209.734 97.3334 210.125 97.6459C212.448 99.4948 210.359 101.099 209.75 103.245C209.677 103.505 210.906 103.62 211.026 103.797C211.214 104.073 210.818 104.552 210.682 104.786C210.62 104.891 210.865 104.625 210.964 104.563C211.13 104.453 211.287 104.318 211.464 104.229C212.25 103.833 212.787 103.693 213.609 104.068C214.886 104.656 214.636 105.896 214.917 106.911C214.979 107.135 215.208 106.531 215.422 106.438C215.813 106.276 216.229 106.182 216.651 106.156C217.443 106.109 217.578 106.807 218.057 107.271C218.13 107.344 218.208 107.396 218.287 107.432C217.938 107.198 219.906 106.901 220.12 107.542C220.219 107.828 220.208 108.182 220.167 108.484C220.156 108.573 220.021 108.698 220.099 108.745C220.255 108.833 220.537 108.526 220.604 108.479C221.011 108.182 221.474 107.969 221.99 108.031C222.693 108.115 223.25 108.641 223.865 108.932C224.516 109.245 225.271 109.271 225.979 109.276C227.979 109.292 229.958 108.938 231.969 109.01C236.057 109.156 240.141 109.583 244.208 109.969C245.886 110.13 247.552 110.417 249.224 110.552C249.792 110.599 250.323 110.75 250.88 110.839C251.188 110.891 251.162 110.891 251.458 110.958C251.511 110.974 251.651 111.031 251.609 111.005C251.057 110.682 249.406 111.073 248.922 111.083C247.094 111.12 245.261 111.099 243.432 111.078C237.636 111.01 231.818 111.177 226.031 111.521C224.651 111.599 223.266 111.755 221.891 111.839C221.339 111.87 220.511 111.745 219.979 111.891C218.828 112.203 217.682 113.401 217.099 114.406C217.078 114.438 217.052 114.469 217.031 114.505Z" fill="white" fill-opacity="0.6"/>
<mask id="mask0_2908_317" style="mask-type:luminance" maskUnits="userSpaceOnUse" x="122" y="0" width="215" height="296">
<path d="M122.333 0H337V296H122.333V0Z" fill="white"/>
</mask>
<g mask="url(#mask0_2908_317)">
<mask id="mask1_2908_317" style="mask-type:luminance" maskUnits="userSpaceOnUse" x="123" y="0" width="214" height="297">
<path fill-rule="evenodd" clip-rule="evenodd" d="M305.682 30.5313C304.698 29.5469 303.719 28.6094 302.734 27.6771C284.245 10.5469 259.49 0.0625 232.484 0.0625C172.297 0.0625 123.062 48.4063 123.062 109.484V187.734C123.062 198.453 124.656 208.797 127.557 218.578C130.974 230.089 136.307 240.854 143.141 250.448C162.844 278.203 195.281 296.359 231.688 296.359C250.13 296.359 267.495 291.536 282.563 283.068C314.484 265.146 336.198 230.932 336.198 191.901V103.771C336.104 75.2708 324.448 49.3438 305.682 30.5313ZM306.385 183.615C306.385 225.177 272.359 259.203 230.802 259.203C229.958 259.203 229.161 259.203 228.365 259.151C187.932 257.844 155.26 224.38 155.26 183.615V108.828C155.26 69.9844 184.938 37.7396 222.75 33.7135C225.417 33.4271 228.083 33.2917 230.849 33.2917C251.625 33.2917 270.536 41.8073 284.203 55.474C297.911 69.1875 306.385 88.0469 306.385 108.828V183.615Z" fill="white"/>
</mask>
<g mask="url(#mask1_2908_317)">
<path d="M333.547 319.609L90.2812 292.323L125.714 -23.5469L368.979 3.73958L333.547 319.609Z" fill="#234F68"/>
</g>
</g>
<path d="M230.87 263.276C224.422 263.276 218.12 262.5 212.062 261.089C177.349 252.781 151.349 221.87 151.349 184.839V107.125C151.349 63.6302 186.901 28.8802 230.427 28.6354H230.87C252.734 28.6354 272.625 37.4844 287.005 51.6719C301.432 65.9115 310.344 83.8438 310.344 107.078V184.786H310.391C310.391 227.943 274.594 263.276 230.87 263.276ZM230.87 11C180.844 11 135.646 55.4167 135.745 104.068V192.078C135.599 238.714 182.687 282.573 229.937 282.573C230.25 282.573 230.557 282.573 230.87 282.568C249.776 282.568 268.047 276.786 283.458 266.922C308.911 250.641 326.542 223.13 326.542 192.031V104.016C326.542 68.0521 307.536 39.4271 280.156 23.875C265.583 15.5677 248.594 11 230.87 11Z" fill="#F5F4F9"/>
<path d="M293.901 57.9792L290.766 61.4896C289.781 62.6146 288 62.7083 286.88 61.724C285.755 60.7396 285.662 58.9635 286.646 57.8385L289.781 54.3281C290.766 53.2031 292.542 53.1146 293.667 54.0938C294.792 55.125 294.932 56.8594 293.901 57.9792Z" fill="#234F68"/>
<path d="M356.156 132.734L353.016 136.245C352.036 137.37 350.255 137.464 349.135 136.479C348.01 135.5 347.917 133.719 348.901 132.594L352.036 129.083C353.016 127.964 354.797 127.87 355.922 128.849C357.042 129.833 357.135 131.615 356.156 132.734Z" fill="#234F68"/>
<path d="M311.135 58.8489L307.995 62.3593C307.016 63.4843 305.234 63.5781 304.115 62.5937C302.99 61.6093 302.896 59.8333 303.88 58.7083L307.016 55.1979C307.995 54.0729 309.776 53.9843 310.901 54.9635C312.021 55.9479 312.115 57.677 311.135 58.8489Z" fill="#234F68"/>
<path fill-rule="evenodd" clip-rule="evenodd" d="M286.505 57.9948L289.688 54.4323L285.312 56.6093L286.505 57.9948Z" fill="#437EB1"/>
<path fill-rule="evenodd" clip-rule="evenodd" d="M228.703 252.255C230.162 252.031 231.531 253.047 231.761 254.521C231.985 256 230.979 257.38 229.516 257.604C228.052 257.828 226.682 256.807 226.458 255.333C226.235 253.854 227.24 252.474 228.698 252.255H228.703ZM228.813 253.292C229.714 253.151 230.557 253.776 230.698 254.682C230.833 255.589 230.214 256.437 229.313 256.573C228.406 256.714 227.563 256.089 227.422 255.182C227.287 254.276 227.906 253.427 228.813 253.292Z" fill="white" fill-opacity="0.2588"/>
<mask id="mask2_2908_317" style="mask-type:luminance" maskUnits="userSpaceOnUse" x="64" y="134" width="212" height="128">
<path d="M64.4949 134H275.667V262H64.4949V134Z" fill="white"/>
</mask>
<g mask="url(#mask2_2908_317)">
<path d="M274.979 134.661C275.01 134.62 275.042 134.578 275.073 134.536C271.162 137.604 267.255 140.62 263.37 143.578C205.214 187.359 150.641 215.464 124.938 219.063C117.964 220.047 113.099 219.156 110.896 216.349C107.245 211.667 110.943 201.698 120.443 188.172V134.964C75.3282 182.604 53.5157 228.656 69.9427 249.625C80.474 263.057 105.984 265.771 140.521 250.885C177.422 234.984 224.604 199.037 274.969 134.677C275.016 134.635 275.052 134.604 275.073 134.589C275.042 134.609 275.01 134.635 274.979 134.661Z" fill="#234F68"/>
<path d="M275.073 134.589C224.672 198.984 177.448 234.974 140.521 250.885C105.984 265.771 80.474 263.057 69.9427 249.625C53.5157 228.656 75.3282 182.604 120.443 134.958V149.516C94.9844 173.151 73.224 210.495 76.6407 232.87C77.5261 238.719 81.5521 243.583 87.0261 245.787C148.01 270.307 273.203 136.552 275.073 134.583V134.589Z" fill="#ADE8FF"/>
</g>
<mask id="mask3_2908_317" style="mask-type:luminance" maskUnits="userSpaceOnUse" x="91" y="134" width="185" height="100">
<path d="M275.667 134H91.6667V234H275.667V134Z" fill="white"/>
</mask>
<g mask="url(#mask3_2908_317)">
<mask id="mask4_2908_317" style="mask-type:luminance" maskUnits="userSpaceOnUse" x="92" y="134" width="184" height="100">
<path d="M92.521 134.318H275.24V233.839H92.521V134.318Z" fill="white"/>
</mask>
<g mask="url(#mask4_2908_317)">
<path d="M275.073 134.589C273.016 136.318 124.281 258.844 95.6876 228.703C85.7657 218.219 103.078 186.162 120.443 168.469V188.172C110.943 201.698 107.245 211.667 110.896 216.349C113.094 219.156 117.964 220.047 124.938 219.063C152.365 215.224 212.641 183.495 275.073 134.589Z" fill="#00BBFF"/>
</g>
</g>
<path d="M355.641 107.51L352.266 111.302C351.333 112.375 349.693 112.469 348.62 111.536C347.542 110.599 347.448 108.964 348.385 107.885L351.755 104.094C352.687 103.016 354.328 102.922 355.406 103.859C356.479 104.839 356.573 106.479 355.641 107.51Z" fill="#234F68"/>
<mask id="mask5_2908_317" style="mask-type:luminance" maskUnits="userSpaceOnUse" x="247" y="36" width="133" height="129">
<path d="M247.667 36.6666H379.495V164.667H247.667V36.6666Z" fill="white"/>
</mask>
<g mask="url(#mask5_2908_317)">
<path d="M247.953 122.276L252.12 118.63L278.557 122.979L311.323 87.4583L297.844 75.1042L251.042 60.2187L257.125 54.3698L334.531 63.9635C335.328 64.0573 336.125 63.776 336.688 63.2604L358.495 42.1979C359.667 41.0729 361.026 40.2344 362.521 39.6719C366.453 38.2187 374.078 36.1615 377.729 39.9531C381.615 44.026 377.964 52.1667 376 55.8177C375.391 56.9896 374.547 58.0156 373.563 58.9062L351.474 78.7969C350.911 79.3125 350.583 80.0625 350.583 80.8073L352.693 159.016L346.745 164.349L335.516 115.958L324.563 101.917L286.516 132.151L288.245 158.078L284.552 161.823L273.036 139.219C272.333 137.859 271.302 136.734 269.995 135.943L247.953 122.276Z" fill="#234F68"/>
</g>
<path fill-rule="evenodd" clip-rule="evenodd" d="M311.328 87.4167L297.802 75.0417L282.438 70.1459L296.547 75.8594L308.073 87.8073L302.198 97.3542L311.328 87.4115V87.4167Z" fill="#437EB1"/>
<path fill-rule="evenodd" clip-rule="evenodd" d="M324.568 101.901L336.068 116.12L339.391 132.578L335.172 117.318L323.964 104.937L313.964 110.344L324.568 101.901Z" fill="#437EB1"/>
<path d="M0.171143 328.145H39.1086V337.895H24.7336V382.229H14.5461V337.895H0.171143V328.145Z" fill="#07A5E1"/>
<path d="M45.133 343.916H61.3621V349.479H62.758C63.4767 347.369 64.7007 345.739 66.4246 344.583C68.1434 343.416 70.2163 342.833 72.633 342.833C76.4507 342.833 79.5132 344.036 81.8205 346.437C84.1382 348.828 85.2996 352.468 85.2996 357.354V359.062L75.258 359.979V358.895C75.258 356.786 74.7163 355.098 73.633 353.833C72.5601 352.572 70.9455 351.937 68.7788 351.937C66.6121 351.937 64.909 352.687 63.6746 354.187C62.4351 355.687 61.8205 357.828 61.8205 360.604V372.958H70.633V382.229H44.2163V372.958H52.0913V353.187H45.133V343.916Z" fill="#07A5E1"/>
<path d="M116.741 376.666C115.71 379.083 114.267 380.802 112.408 381.812C110.559 382.812 108.397 383.312 105.928 383.312C103.621 383.312 101.449 382.874 99.4076 381.999C97.3763 381.124 95.5846 379.843 94.0326 378.145C92.4909 376.437 91.2669 374.374 90.3659 371.958C89.4596 369.541 89.0117 366.786 89.0117 363.687V362.458C89.0117 359.416 89.4492 356.687 90.3242 354.27C91.1992 351.843 92.3763 349.781 93.8659 348.083C95.3659 346.39 97.1055 345.093 99.0951 344.187C101.079 343.286 103.204 342.833 105.47 342.833C108.204 342.833 110.408 343.302 112.074 344.229C113.751 345.145 115.079 346.583 116.053 348.541H117.449V343.916H127.178V370.645C127.178 372.187 127.871 372.958 129.262 372.958H130.741V382.229H124.095C122.345 382.229 120.913 381.718 119.803 380.687C118.689 379.661 118.137 378.322 118.137 376.666H116.741ZM108.095 374.041C110.928 374.041 113.189 373.104 114.887 371.229C116.595 369.343 117.449 366.781 117.449 363.541V362.604C117.449 359.369 116.595 356.812 114.887 354.937C113.189 353.052 110.928 352.104 108.095 352.104C105.262 352.104 102.996 353.052 101.303 354.937C99.6055 356.812 98.7617 359.369 98.7617 362.604V363.541C98.7617 366.781 99.6055 369.343 101.303 371.229C102.996 373.104 105.262 374.041 108.095 374.041Z" fill="#07A5E1"/>
<path d="M134.203 343.916H144.724L153.765 377.604H155.14L164.182 343.916H174.682L163.724 382.229H145.182L134.203 343.916Z" fill="#07A5E1"/>
<path d="M182.582 372.958H195.561V353.187H183.498V343.916H205.29V372.958H216.415V382.229H182.582V372.958ZM207.686 332.562C207.686 333.593 207.488 334.557 207.102 335.458C206.712 336.364 206.186 337.135 205.519 337.77C204.852 338.411 204.066 338.926 203.165 339.312C202.259 339.702 201.316 339.895 200.332 339.895C199.3 339.895 198.352 339.702 197.477 339.312C196.602 338.926 195.832 338.411 195.165 337.77C194.498 337.135 193.967 336.364 193.582 335.458C193.191 334.557 192.998 333.593 192.998 332.562C192.998 331.536 193.191 330.572 193.582 329.666C193.967 328.765 194.498 327.994 195.165 327.354C195.832 326.702 196.602 326.187 197.477 325.812C198.352 325.426 199.3 325.229 200.332 325.229C201.316 325.229 202.259 325.426 203.165 325.812C204.066 326.187 204.852 326.702 205.519 327.354C206.186 327.994 206.712 328.765 207.102 329.666C207.488 330.572 207.686 331.536 207.686 332.562Z" fill="#07A5E1"/>
<path d="M236.565 361.833V382.229H226.377V328.145H247.544C250.32 328.145 252.737 328.598 254.794 329.499C256.862 330.406 258.575 331.593 259.94 333.062C261.299 334.536 262.325 336.208 263.023 338.083C263.716 339.958 264.065 341.874 264.065 343.833V345.687C264.065 347.703 263.716 349.677 263.023 351.604C262.325 353.536 261.299 355.265 259.94 356.791C258.575 358.307 256.862 359.531 254.794 360.458C252.737 361.374 250.32 361.833 247.544 361.833H236.565ZM236.565 352.104H246.544C248.804 352.104 250.591 351.489 251.898 350.249C253.216 349.015 253.877 347.416 253.877 345.458V344.52C253.877 342.578 253.216 340.989 251.898 339.749C250.591 338.515 248.804 337.895 246.544 337.895H236.565V352.104Z" fill="#234F68"/>
<path d="M280.381 366.229C280.433 367.369 280.704 368.416 281.193 369.374C281.678 370.322 282.344 371.14 283.193 371.833C284.037 372.531 285.016 373.072 286.131 373.458C287.24 373.848 288.412 374.041 289.652 374.041C292.068 374.041 293.912 373.619 295.193 372.77C296.485 371.927 297.412 370.906 297.985 369.708L306.339 374.354C305.865 375.328 305.219 376.343 304.402 377.395C303.579 378.453 302.511 379.416 301.193 380.291C299.886 381.166 298.287 381.89 296.402 382.458C294.527 383.025 292.323 383.312 289.797 383.312C286.922 383.312 284.297 382.843 281.922 381.916C279.547 380.989 277.495 379.645 275.777 377.895C274.053 376.145 272.714 374.015 271.756 371.499C270.808 368.973 270.339 366.114 270.339 362.916V362.458C270.339 359.515 270.839 356.833 271.839 354.416C272.839 351.999 274.214 349.947 275.964 348.249C277.725 346.541 279.777 345.218 282.11 344.27C284.454 343.312 286.969 342.833 289.652 342.833C292.943 342.833 295.766 343.416 298.131 344.583C300.506 345.739 302.464 347.203 304.006 348.979C305.558 350.76 306.698 352.718 307.422 354.854C308.141 356.979 308.506 359.052 308.506 361.062V366.229H280.381ZM289.568 351.645C287.094 351.645 285.089 352.281 283.547 353.541C282.006 354.791 280.995 356.244 280.527 357.895H298.61C298.303 356.093 297.339 354.598 295.714 353.416C294.089 352.239 292.037 351.645 289.568 351.645Z" fill="#234F68"/>
<path d="M344.26 376.666H342.885C342.468 377.541 341.957 378.385 341.364 379.187C340.78 379.979 340.01 380.687 339.051 381.312C338.093 381.927 336.952 382.406 335.635 382.77C334.327 383.13 332.749 383.312 330.905 383.312C328.53 383.312 326.322 382.885 324.28 382.041C322.249 381.197 320.478 379.937 318.968 378.27C317.452 376.593 316.265 374.541 315.405 372.124C314.556 369.697 314.135 366.911 314.135 363.77V362.374C314.135 359.291 314.582 356.541 315.489 354.124C316.39 351.697 317.624 349.645 319.197 347.979C320.765 346.302 322.593 345.02 324.676 344.145C326.76 343.27 328.957 342.833 331.28 342.833C334.374 342.833 336.822 343.416 338.614 344.583C340.416 345.739 341.843 347.369 342.885 349.479H344.26V328.145H353.989V382.229H344.26V376.666ZM334.072 374.041C337.114 374.041 339.572 373.078 341.447 371.145C343.322 369.218 344.26 366.682 344.26 363.541V362.604C344.26 359.468 343.322 356.932 341.447 354.999C339.572 353.072 337.114 352.104 334.072 352.104C331.03 352.104 328.562 353.052 326.676 354.937C324.801 356.812 323.864 359.369 323.864 362.604V363.541C323.864 366.781 324.801 369.343 326.676 371.229C328.562 373.104 331.03 374.041 334.072 374.041Z" fill="#234F68"/>
<path d="M362.43 372.958H375.409V353.187H363.347V343.916H385.138V372.958H396.263V382.229H362.43V372.958ZM387.534 332.562C387.534 333.593 387.336 334.557 386.951 335.458C386.56 336.364 386.034 337.135 385.367 337.77C384.701 338.411 383.914 338.926 383.013 339.312C382.107 339.702 381.164 339.895 380.18 339.895C379.149 339.895 378.201 339.702 377.326 339.312C376.451 338.926 375.68 338.411 375.013 337.77C374.347 337.135 373.815 336.364 373.43 335.458C373.039 334.557 372.847 333.593 372.847 332.562C372.847 331.536 373.039 330.572 373.43 329.666C373.815 328.765 374.347 327.994 375.013 327.354C375.68 326.702 376.451 326.187 377.326 325.812C378.201 325.426 379.149 325.229 380.18 325.229C381.164 325.229 382.107 325.426 383.013 325.812C383.914 326.187 384.701 326.702 385.367 327.354C386.034 327.994 386.56 328.765 386.951 329.666C387.336 330.572 387.534 331.536 387.534 332.562Z" fill="#234F68"/>
<path d="M431.475 376.666C430.444 379.083 429.001 380.802 427.142 381.812C425.293 382.812 423.132 383.312 420.663 383.312C418.355 383.312 416.184 382.874 414.142 381.999C412.111 381.124 410.319 379.843 408.767 378.145C407.225 376.437 406.001 374.374 405.1 371.958C404.194 369.541 403.746 366.786 403.746 363.687V362.458C403.746 359.416 404.184 356.687 405.059 354.27C405.934 351.843 407.111 349.781 408.6 348.083C410.1 346.39 411.84 345.093 413.829 344.187C415.814 343.286 417.939 342.833 420.204 342.833C422.939 342.833 425.142 343.302 426.809 344.229C428.486 345.145 429.814 346.583 430.788 348.541H432.184V343.916H441.913V370.645C441.913 372.187 442.605 372.958 443.996 372.958H445.475V382.229H438.829C437.079 382.229 435.647 381.718 434.538 380.687C433.423 379.661 432.871 378.322 432.871 376.666H431.475ZM422.829 374.041C425.663 374.041 427.923 373.104 429.621 371.229C431.329 369.343 432.184 366.781 432.184 363.541V362.604C432.184 359.369 431.329 356.812 429.621 354.937C427.923 353.052 425.663 352.104 422.829 352.104C419.996 352.104 417.73 353.052 416.038 354.937C414.34 356.812 413.496 359.369 413.496 362.604V363.541C413.496 366.781 414.34 369.343 416.038 371.229C417.73 373.104 419.996 374.041 422.829 374.041Z" fill="#234F68"/>
</svg>
