<svg width="446" height="388" viewBox="0 0 446 388" fill="none" xmlns="http://www.w3.org/2000/svg">
<path d="M0.171143 332.145H39.1086V341.895H24.7336V386.229H14.5461V341.895H0.171143V332.145Z" fill="#07A5E1"/>
<path d="M45.133 347.916H61.3621V353.479H62.758C63.4767 351.369 64.7007 349.739 66.4246 348.583C68.1434 347.416 70.2163 346.833 72.633 346.833C76.4507 346.833 79.5132 348.036 81.8205 350.437C84.1382 352.828 85.2996 356.468 85.2996 361.354V363.062L75.258 363.979V362.895C75.258 360.786 74.7163 359.098 73.633 357.833C72.5601 356.572 70.9455 355.937 68.7788 355.937C66.6121 355.937 64.909 356.687 63.6746 358.187C62.4351 359.687 61.8205 361.828 61.8205 364.604V376.958H70.633V386.229H44.2163V376.958H52.0913V357.187H45.133V347.916Z" fill="#07A5E1"/>
<path d="M116.741 380.666C115.71 383.083 114.267 384.802 112.408 385.812C110.559 386.812 108.397 387.312 105.928 387.312C103.621 387.312 101.449 386.874 99.4076 385.999C97.3763 385.124 95.5846 383.843 94.0326 382.145C92.4909 380.437 91.2669 378.374 90.3659 375.958C89.4596 373.541 89.0117 370.786 89.0117 367.687V366.458C89.0117 363.416 89.4492 360.687 90.3242 358.27C91.1992 355.843 92.3763 353.781 93.8659 352.083C95.3659 350.39 97.1055 349.093 99.0951 348.187C101.079 347.286 103.204 346.833 105.47 346.833C108.204 346.833 110.408 347.302 112.074 348.229C113.751 349.145 115.079 350.583 116.053 352.541H117.449V347.916H127.178V374.645C127.178 376.187 127.871 376.958 129.262 376.958H130.741V386.229H124.095C122.345 386.229 120.913 385.718 119.803 384.687C118.689 383.661 118.137 382.322 118.137 380.666H116.741ZM108.095 378.041C110.928 378.041 113.189 377.104 114.887 375.229C116.595 373.343 117.449 370.781 117.449 367.541V366.604C117.449 363.369 116.595 360.812 114.887 358.937C113.189 357.052 110.928 356.104 108.095 356.104C105.262 356.104 102.996 357.052 101.303 358.937C99.6055 360.812 98.7617 363.369 98.7617 366.604V367.541C98.7617 370.781 99.6055 373.343 101.303 375.229C102.996 377.104 105.262 378.041 108.095 378.041Z" fill="#07A5E1"/>
<path d="M134.203 347.916H144.724L153.765 381.604H155.14L164.182 347.916H174.682L163.724 386.229H145.182L134.203 347.916Z" fill="#07A5E1"/>
<path d="M182.582 376.958H195.561V357.187H183.498V347.916H205.29V376.958H216.415V386.229H182.582V376.958ZM207.686 336.562C207.686 337.593 207.488 338.557 207.102 339.458C206.712 340.364 206.186 341.135 205.519 341.77C204.852 342.411 204.066 342.926 203.165 343.312C202.259 343.702 201.316 343.895 200.332 343.895C199.3 343.895 198.352 343.702 197.477 343.312C196.602 342.926 195.832 342.411 195.165 341.77C194.498 341.135 193.967 340.364 193.582 339.458C193.191 338.557 192.998 337.593 192.998 336.562C192.998 335.536 193.191 334.572 193.582 333.666C193.967 332.765 194.498 331.994 195.165 331.354C195.832 330.702 196.602 330.187 197.477 329.812C198.352 329.426 199.3 329.229 200.332 329.229C201.316 329.229 202.259 329.426 203.165 329.812C204.066 330.187 204.852 330.702 205.519 331.354C206.186 331.994 206.712 332.765 207.102 333.666C207.488 334.572 207.686 335.536 207.686 336.562Z" fill="#07A5E1"/>
<path d="M236.565 365.833V386.229H226.377V332.145H247.544C250.32 332.145 252.737 332.598 254.794 333.499C256.862 334.406 258.575 335.593 259.94 337.062C261.299 338.536 262.325 340.208 263.023 342.083C263.716 343.958 264.065 345.874 264.065 347.833V349.687C264.065 351.703 263.716 353.677 263.023 355.604C262.325 357.536 261.299 359.265 259.94 360.791C258.575 362.307 256.862 363.531 254.794 364.458C252.737 365.374 250.32 365.833 247.544 365.833H236.565ZM236.565 356.104H246.544C248.804 356.104 250.591 355.489 251.898 354.249C253.216 353.015 253.877 351.416 253.877 349.458V348.52C253.877 346.578 253.216 344.989 251.898 343.749C250.591 342.515 248.804 341.895 246.544 341.895H236.565V356.104Z" fill="white"/>
<path d="M280.381 370.229C280.433 371.369 280.704 372.416 281.193 373.374C281.678 374.322 282.344 375.14 283.193 375.833C284.037 376.531 285.016 377.072 286.131 377.458C287.24 377.848 288.412 378.041 289.652 378.041C292.068 378.041 293.912 377.619 295.193 376.77C296.485 375.927 297.412 374.906 297.985 373.708L306.339 378.354C305.865 379.328 305.219 380.343 304.402 381.395C303.579 382.453 302.511 383.416 301.193 384.291C299.886 385.166 298.287 385.89 296.402 386.458C294.527 387.025 292.323 387.312 289.797 387.312C286.922 387.312 284.297 386.843 281.922 385.916C279.547 384.989 277.495 383.645 275.777 381.895C274.053 380.145 272.714 378.015 271.756 375.499C270.808 372.973 270.339 370.114 270.339 366.916V366.458C270.339 363.515 270.839 360.833 271.839 358.416C272.839 355.999 274.214 353.947 275.964 352.249C277.725 350.541 279.777 349.218 282.11 348.27C284.454 347.312 286.969 346.833 289.652 346.833C292.943 346.833 295.766 347.416 298.131 348.583C300.506 349.739 302.464 351.203 304.006 352.979C305.558 354.76 306.698 356.718 307.422 358.854C308.141 360.979 308.506 363.052 308.506 365.062V370.229H280.381ZM289.568 355.645C287.094 355.645 285.089 356.281 283.547 357.541C282.006 358.791 280.995 360.244 280.527 361.895H298.61C298.303 360.093 297.339 358.598 295.714 357.416C294.089 356.239 292.037 355.645 289.568 355.645Z" fill="white"/>
<path d="M344.26 380.666H342.885C342.468 381.541 341.957 382.385 341.364 383.187C340.78 383.979 340.01 384.687 339.051 385.312C338.093 385.927 336.952 386.406 335.635 386.77C334.327 387.13 332.749 387.312 330.905 387.312C328.53 387.312 326.322 386.885 324.28 386.041C322.249 385.197 320.478 383.937 318.968 382.27C317.452 380.593 316.265 378.541 315.405 376.124C314.556 373.697 314.135 370.911 314.135 367.77V366.374C314.135 363.291 314.582 360.541 315.489 358.124C316.39 355.697 317.624 353.645 319.197 351.979C320.765 350.302 322.593 349.02 324.676 348.145C326.76 347.27 328.957 346.833 331.28 346.833C334.374 346.833 336.822 347.416 338.614 348.583C340.416 349.739 341.843 351.369 342.885 353.479H344.26V332.145H353.989V386.229H344.26V380.666ZM334.072 378.041C337.114 378.041 339.572 377.078 341.447 375.145C343.322 373.218 344.26 370.682 344.26 367.541V366.604C344.26 363.468 343.322 360.932 341.447 358.999C339.572 357.072 337.114 356.104 334.072 356.104C331.03 356.104 328.562 357.052 326.676 358.937C324.801 360.812 323.864 363.369 323.864 366.604V367.541C323.864 370.781 324.801 373.343 326.676 375.229C328.562 377.104 331.03 378.041 334.072 378.041Z" fill="white"/>
<path d="M362.43 376.958H375.409V357.187H363.347V347.916H385.138V376.958H396.263V386.229H362.43V376.958ZM387.534 336.562C387.534 337.593 387.336 338.557 386.951 339.458C386.56 340.364 386.034 341.135 385.367 341.77C384.701 342.411 383.914 342.926 383.013 343.312C382.107 343.702 381.164 343.895 380.18 343.895C379.149 343.895 378.201 343.702 377.326 343.312C376.451 342.926 375.68 342.411 375.013 341.77C374.347 341.135 373.815 340.364 373.43 339.458C373.039 338.557 372.847 337.593 372.847 336.562C372.847 335.536 373.039 334.572 373.43 333.666C373.815 332.765 374.347 331.994 375.013 331.354C375.68 330.702 376.451 330.187 377.326 329.812C378.201 329.426 379.149 329.229 380.18 329.229C381.164 329.229 382.107 329.426 383.013 329.812C383.914 330.187 384.701 330.702 385.367 331.354C386.034 331.994 386.56 332.765 386.951 333.666C387.336 334.572 387.534 335.536 387.534 336.562Z" fill="white"/>
<path d="M431.475 380.666C430.444 383.083 429.001 384.802 427.142 385.812C425.293 386.812 423.132 387.312 420.663 387.312C418.355 387.312 416.184 386.874 414.142 385.999C412.111 385.124 410.319 383.843 408.767 382.145C407.225 380.437 406.001 378.374 405.1 375.958C404.194 373.541 403.746 370.786 403.746 367.687V366.458C403.746 363.416 404.184 360.687 405.059 358.27C405.934 355.843 407.111 353.781 408.6 352.083C410.1 350.39 411.84 349.093 413.829 348.187C415.814 347.286 417.939 346.833 420.204 346.833C422.939 346.833 425.142 347.302 426.809 348.229C428.486 349.145 429.814 350.583 430.788 352.541H432.184V347.916H441.913V374.645C441.913 376.187 442.605 376.958 443.996 376.958H445.475V386.229H438.829C437.079 386.229 435.647 385.718 434.538 384.687C433.423 383.661 432.871 382.322 432.871 380.666H431.475ZM422.829 378.041C425.663 378.041 427.923 377.104 429.621 375.229C431.329 373.343 432.184 370.781 432.184 367.541V366.604C432.184 363.369 431.329 360.812 429.621 358.937C427.923 357.052 425.663 356.104 422.829 356.104C419.996 356.104 417.73 357.052 416.038 358.937C414.34 360.812 413.496 363.369 413.496 366.604V367.541C413.496 370.781 414.34 373.343 416.038 375.229C417.73 377.104 419.996 378.041 422.829 378.041Z" fill="white"/>
<path d="M320.546 108.196V190.174C320.595 236.713 278.56 274.484 232.26 274.484C188.359 274.995 144.312 233.909 144.457 190.174V108.196C144.409 62.8711 186.115 21.5159 232.26 21.5159C278.415 21.5159 320.546 56.8104 320.546 108.196Z" fill="#ADE8FF"/>
<path d="M153.685 205.861L164.217 194.568C164.682 194.105 165.426 194.154 165.804 194.712C166.51 195.734 167.632 196.996 168.802 196.293C169.701 195.772 170.398 194.626 171.027 193.826C172.032 192.554 173.125 191.273 173.947 189.885C174.683 188.652 175.166 187.284 176.037 186.147C176.24 185.877 177.13 184.711 177.526 184.894C177.845 185.038 177.797 185.963 178.252 185.857C178.638 185.771 179.025 185.183 179.267 184.884C180.07 183.911 180.708 182.813 181.327 181.714C182.933 178.814 184.461 175.923 186.502 173.303C187.45 172.088 188.62 170.711 190.148 170.248C193.427 169.236 195.313 173.505 197.325 175.23C198.34 176.097 199.791 176.058 200.932 176.685C201.6 177.06 201.803 177.86 202.364 178.351C203.283 179.151 204.492 179.527 205.333 180.413C208.303 183.564 209.009 188.18 210.962 191.909C212.036 193.97 213.245 197.189 211.61 199.251C210.566 200.571 208.989 201.399 207.625 202.353C205.662 203.731 203.708 205.186 201.426 205.976C199.956 206.487 198.408 206.593 196.89 206.892C195.681 207.123 194.384 207.537 193.146 207.528C190.603 207.499 188.301 206.246 185.709 206.352C183.059 206.458 180.486 207.132 177.855 207.373C169.943 208.096 162.022 208.693 154.1 209.358L153.685 205.861Z" fill="#07A5E1"/>
<path d="M163.995 207.238C167.399 203.153 170.591 198.461 175.514 196.061C179.992 193.884 186.202 194.048 189.451 189.75C189.664 189.471 188.958 188.999 188.813 188.816C188.349 188.247 188.368 187.65 188.707 187.023C189.5 185.578 190.477 184.229 191.144 182.707C191.308 182.341 191.734 181.493 191.434 181.098C191.163 180.741 190.544 181.204 190.293 181.358C189.49 181.868 187.42 183.747 187.14 181.83C186.859 179.874 188.088 178.323 188.89 176.675C189.461 175.499 189.751 174.208 190.274 173.023C190.428 172.667 191.483 170.479 192.102 170.845C192.769 171.241 192.856 172.426 193.224 173.042C193.726 173.881 194.645 174.565 195.361 175.22C196.483 176.251 198.118 176.405 199.278 177.378C203.234 180.693 206 184.875 210.488 187.592C212.664 188.912 218.264 191.735 217.191 195.04C216.736 196.447 215.218 197.256 213.951 197.786C211.001 199.039 207.79 199.405 204.675 200.07C201.638 200.706 198.717 199.761 195.69 200.311C193.165 200.773 190.757 201.708 188.252 202.257C180.195 204.03 172.071 205.581 163.995 207.238Z" fill="white"/>
<path d="M180.012 237.398C180.263 236.819 180.166 236.155 179.712 235.721C175.495 231.693 179.074 224.457 179.596 218.493C179.731 217.028 180.447 214.889 181.54 213.415C186.473 206.738 191.415 200.07 196.251 193.325C198.456 190.251 200.449 187.024 202.731 184.017C204.511 181.686 207.132 180.019 208.767 177.629C210.324 175.355 211.02 172.137 213.274 170.383C213.893 169.901 213.903 171.337 214.367 171.511C214.918 171.713 215.876 170.634 216.214 170.287C218.961 167.435 219.725 163.311 222.675 160.613C223.342 159.996 222.801 161.711 223.391 161.586C223.613 161.538 223.903 161.066 224.058 160.902C224.629 160.276 225.219 159.669 225.809 159.052C228.159 156.624 230.587 154.225 232.531 151.44C233.314 150.303 233.546 149.021 234.165 147.817C234.388 147.393 234.726 146.825 235.249 146.728C237.386 146.324 239.33 149.359 240.665 150.554C242.986 152.644 245.791 154.764 247.687 157.241C248.374 158.127 248.267 159.572 249.186 160.189C249.824 160.623 249.795 161.297 250.211 161.885C251.024 163.012 252.126 163.976 253.181 164.862C253.78 165.363 254.167 166.105 254.873 166.491C255.241 166.683 255.357 166.404 255.366 166.076C255.396 165.354 255.308 164.351 256.198 164.958C256.343 165.055 256.44 165.17 256.556 165.325C256.692 165.508 256.885 165.922 256.982 166.095C257.427 166.963 258.162 167.618 258.626 168.466C259.052 169.217 259.274 170.075 259.787 170.788C259.999 171.077 260.338 171.347 260.715 171.231C260.831 171.202 260.928 171.087 261.034 170.952C261.092 170.884 261.16 170.817 261.237 170.749C261.45 170.576 261.682 170.412 261.924 170.296C262.891 169.815 262.882 171.154 263.278 171.703C264.458 173.361 265.803 174.902 267.147 176.415C268.153 177.552 269.139 178.699 270.126 179.845C270.281 180.028 270.958 180.529 270.987 180.818C271.026 181.088 271.171 181.329 271.354 181.522C277.544 188.074 283.667 194.693 289.751 201.342L291.008 202.527C291.298 202.835 292.13 204.194 292.41 204.772C293.068 206.121 293.852 207.566 294.258 209.021C295.515 213.521 292.642 216.903 290.66 220.526C289.528 222.598 288.058 224.65 286.597 226.211C283.744 229.294 280.253 231.896 276.722 234.15C273.231 236.395 269.023 237.629 265.164 239.074C257.282 242.032 249.467 244.345 241.216 246.079C237.493 246.869 233.972 247.428 230.161 247.255C222.307 246.888 214.415 246.291 206.794 244.248C201.31 242.774 191.144 246.754 186.057 244.277C184.219 243.372 178.164 241.512 180.002 237.388L180.012 237.398Z" fill="#07A5E1"/>
<path d="M209.318 189.625C209.676 189.143 210.053 188.69 210.488 188.363C212.2 186.243 213.874 184.094 215.837 182.196C217.762 180.327 219.996 178.891 221.785 176.877C224.726 173.563 226.931 169.68 229.852 166.356C231.612 164.361 233.74 162.896 235.703 161.133C236.458 160.459 237.754 159.485 237.967 158.426C238.112 157.761 237.154 158.156 236.854 158.262C235.694 158.705 234.581 159.312 233.479 159.9C233.401 159.948 231.98 160.709 231.98 160.7C231.719 160.092 232.628 159.158 232.947 158.763C233.866 157.635 236.052 155.891 235.994 154.292C235.965 153.762 235.326 154.456 235.2 154.571C234.939 154.832 233.498 156.595 233.102 155.901C232.85 155.467 233.169 154.832 233.372 154.446C233.924 153.386 234.997 152.452 235.355 151.305C235.655 150.322 235.326 149.147 235.365 148.135C235.384 147.807 235.394 147.056 235.732 146.863C235.936 146.747 236.439 147.566 236.564 147.721C237.406 148.703 238.276 149.657 239.224 150.534C239.727 151.016 240.259 151.469 240.839 151.864C241.023 151.989 241.216 152.114 241.41 152.22C241.497 152.269 241.768 152.355 241.671 152.365C241.246 152.394 240.153 151.507 239.785 151.787C239.727 151.825 240.433 152.481 240.491 152.538C241.216 153.232 241.961 153.887 242.725 154.533C244.756 156.248 246.875 157.819 248.538 159.9C250.821 162.762 251.856 166.394 254.196 169.14C255.299 170.422 256.643 170.296 257.978 171.096C258.143 171.202 259.468 171.954 259.255 172.301C258.829 173.004 257.775 173.389 257.175 174.064C256.111 175.259 254.902 176.434 253.771 177.581C253.742 177.61 253.761 175.567 253.355 175.769C252.475 176.203 251.314 177.687 250.637 178.448C250.405 178.698 249.931 179.113 250.328 179.267C250.105 179.604 249.834 179.922 249.505 180.231C248.799 180.905 248.461 179.431 247.822 180.173C247.203 180.886 246.73 181.618 246.304 182.466C246.149 182.784 245.675 184.056 245.24 184.316C245.143 184.374 245.211 184.085 245.211 183.969C245.201 183.67 245.259 182.967 245.066 182.726C244.892 182.514 244.592 183.006 244.36 183.15C242.542 184.354 242.058 187.062 241.226 188.893C241.187 188.97 239.92 191.398 239.94 191.215C239.243 192.034 238.663 192.737 238.276 193.248C238.228 193.325 240.307 194.048 240.375 194.125C240.82 194.674 240.259 195.127 241.178 195.387C241.758 195.551 242.319 195.705 242.861 195.994C242.919 196.033 243.296 196.187 243.277 196.302C243.19 196.726 241.729 196.341 242.242 196.794C243.161 197.603 244.186 197.565 245.23 197.863C245.569 197.96 245.907 198.162 246.256 198.21C246.72 198.258 247.184 198.249 247.639 198.21C247.803 198.191 248.354 197.902 248.364 198.056C249.699 198.451 250.86 197.594 251.595 196.543C252.185 195.686 252.62 194.684 253.374 193.942C255.618 191.735 258.462 190.251 260.425 187.756C261.102 186.889 262.911 185.617 262.785 184.383C262.746 184.017 261.992 184.441 261.808 184.509C261.005 184.846 260.203 185.241 259.371 185.501C259.148 185.569 258.733 185.742 258.51 185.617C258.384 185.54 258.965 184.942 259.013 184.894C259.4 184.47 260.725 183.439 260.686 182.803C260.628 181.946 259.052 182.784 258.684 182.36C258.52 182.167 258.81 181.666 258.907 181.493C259.274 180.857 260.28 180.134 260.338 179.363C260.377 178.843 259.574 178.766 259.584 178.226C259.603 177.292 260.503 176.569 260.754 175.712C260.996 174.835 260.58 173.939 260.802 173.062C260.851 172.859 261.247 171.462 261.45 171.433C261.46 171.433 261.586 171.8 261.586 171.809C261.76 172.291 261.944 172.773 262.195 173.226C262.795 174.295 264.091 174.941 264.574 176.058C264.913 176.848 264.246 177.793 264.903 178.496C265.774 179.431 267.379 179.951 268.434 180.693C268.753 180.915 269.478 181.329 269.536 181.772C269.594 182.321 268.937 183.092 268.627 183.478C267.534 184.807 266.093 185.781 264.816 186.908C261.799 189.587 258.152 191.716 255.415 194.684C253.239 197.054 252.165 200.253 249.573 202.267C249.002 202.71 248.161 203.163 247.629 203.577C246.971 204.078 244.94 202.797 244.428 202.565C241.362 201.188 239.408 199.578 237.116 197.131C236.439 196.408 235.694 195.695 235.104 194.905C234.939 194.684 234.649 193.498 234.233 193.71C231.428 195.165 231.283 200.32 228.024 201.313C227.105 201.592 226.563 200.214 225.77 200.417C225.006 200.609 224.058 202.055 223.546 202.623C221.843 204.492 219.774 207.46 217.278 208.347C216.669 208.568 216.495 208.009 216.408 207.508C216.398 207.479 216.301 206.68 216.272 206.699C215.092 207.335 213.999 208.78 213.081 209.734C210.701 212.239 208.525 214.937 206.291 217.568C204.946 219.148 203.602 220.757 201.996 222.087C200.052 223.706 197.866 224.997 196.009 226.721C192.644 229.853 189.549 233.89 185.361 235.981C180.621 238.342 177.081 234.757 174.731 230.884C173.938 229.573 172.497 227.829 172.768 226.182C173.309 222.925 176.104 219.418 178.194 216.98C184.268 209.927 192.605 205.398 199.994 199.896C201.484 198.788 203.409 197.622 204.53 196.129C205.507 194.819 205.875 192.969 207.384 192.13C207.674 191.966 207.819 191.62 208.041 191.369C208.486 190.858 208.893 190.222 209.337 189.625" fill="white"/>
<path d="M315.449 208.048C310.671 212.249 293.494 187.852 287.274 180.625C281.461 173.823 280.997 174.285 280.059 174.285C279.131 174.285 260.454 182.119 241.071 206.699C221.688 231.269 307.915 231.182 307.915 231.182L315.449 208.048Z" fill="#07A5E1"/>
<path d="M302.701 222.588C302.73 222.27 303.204 221.884 303.417 221.663C304.114 220.93 304.82 220.246 305.352 219.379C306.058 218.242 306.793 217.125 307.479 215.978C308.098 214.957 309.559 212.943 309.433 211.623C309.298 210.071 308.089 209.108 307.276 207.875C306.802 207.133 306.512 206.554 305.893 205.909C305.148 205.148 304.897 204.367 303.92 203.828C303.891 203.808 303.088 203.365 303.079 203.375C302.769 203.616 303.108 204.888 302.363 204.666C301.58 204.425 301.057 203.327 300.632 202.729C299.529 201.178 298.233 199.761 297.237 198.114C296.918 197.574 296.415 197.208 296.086 196.678C296.076 196.669 295.341 195.474 295.341 195.493C295.128 197.083 295.941 199 296.289 200.523C296.328 200.715 296.802 202.17 296.589 202.45C296.453 202.614 296.308 202.132 296.202 201.949C295.689 201.11 295.293 200.291 294.886 199.405C293.794 197.015 292.817 194.597 291.733 192.207C289.731 187.842 286.955 183.757 283.88 180.096C283.483 179.623 283.241 178.988 282.825 178.554C282.487 178.207 281.936 178.053 281.578 177.687C281.51 177.619 280.968 176.839 280.872 176.945C279.508 178.477 278.986 180.558 277.931 182.254C276.78 183.111 275.127 184.48 275.136 185.453C275.156 186.619 278.222 186.291 277.554 187.235C276.326 188.989 273.879 190.078 272.341 191.581C271.712 192.198 270.784 193.113 270.861 194.086C270.997 195.85 274.362 195.03 275.426 195.002C275.871 194.982 276.742 194.934 276.887 195.512C277.022 196.1 276.036 196.832 275.678 197.15C274.372 198.307 272.244 199.463 271.519 201.12C270.658 203.134 275.252 202.325 275.097 203.77C275.02 204.579 273.618 205.311 273.047 205.716C271.335 206.911 268.134 208.53 267.669 210.794C267.35 212.355 269.642 211.565 269.73 213.01C269.884 215.573 267.321 217.953 268.559 220.564C269.759 223.108 273.927 224.235 276.403 224.842C283.957 226.712 293.116 226.625 300.467 223.898C301.415 223.551 302.14 223.098 302.701 222.597V222.588Z" fill="white"/>
<path d="M185.138 250.386C188.562 248.064 188.204 246.435 191.028 243.391C193.998 240.211 200.352 235.384 204.124 233.013C205.585 232.079 205.381 233.909 205.411 234.863C205.42 235.172 205.401 235.846 205.884 235.692C207.538 235.191 208.96 233.408 210.024 232.146C212.307 229.429 214.26 226.558 217.007 224.264C217.617 223.744 219.106 222.414 220.006 222.713C220.712 222.944 220.557 224.804 221.534 223.975C224.493 221.47 226.66 218.155 229.774 215.776C231.593 214.388 234.011 214.427 235.645 212.683C237.957 210.197 239.814 205.678 243.422 204.82C244.756 204.502 247.068 206.429 248.074 207.075C252.842 210.139 257.833 213.579 262.156 217.23C265.561 220.111 268.666 223.493 272.438 225.922C273.734 226.75 276.297 228.215 277.922 227.887C278.579 227.762 277.912 226.211 278.686 226.394C280.166 226.76 281.703 227.945 282.912 228.832C286.027 231.144 288.629 234.044 291.637 236.492C295.07 239.276 299.461 240.452 302.992 243.092C304.539 244.239 306.299 246.031 306.512 248.064C306.812 250.858 302.682 253.855 300.941 255.589C294.364 262.141 286.888 267.604 278.618 271.863C271.761 275.399 264.449 278.059 256.837 279.466C229.107 284.572 202.548 271.603 185.148 250.386" fill="#07A5E1"/>
<path d="M298.542 230.113C293.639 227.733 288.232 224.785 282.787 223.917C281.413 223.696 281.423 225.931 280.146 225.565C277.09 224.688 274.817 220.584 271.209 221.509C270.59 221.672 271.751 224.149 271.393 223.994C267.776 222.501 266.547 217.799 264.052 215.149C263.065 214.099 262.582 215.853 261.847 215.506C259.671 214.455 258.287 211.517 255.811 210.977C255.541 210.91 255.589 211.69 255.589 211.806C255.579 212.654 255.686 213.511 255.734 214.369C255.734 214.398 255.773 215.255 255.676 215.197C253.326 214.051 252.097 210.505 250.521 208.568C249.912 207.817 248.896 206.651 247.822 206.67C246.536 206.699 246.942 209.484 247.068 210.254C247.097 210.418 247.387 211.468 247 211.353C245.927 211.016 244.969 208.79 244.466 207.923C242.793 205.061 241.129 200.561 237.783 199.241C236.796 198.846 236.032 197.112 235.52 196.244C235.481 196.177 235.036 195.223 234.997 195.223C234.891 195.223 234.862 195.83 234.862 195.84C234.804 196.505 234.978 197.025 235.22 197.632C235.8 199.039 236.419 200.474 237.115 201.823C237.647 202.854 238.392 203.885 238.528 205.071C238.74 207.007 236.293 207.46 234.968 208.125C234.011 208.607 233.479 209.272 234.088 210.293C234.678 211.295 235.839 212.056 236.738 212.75C238.595 214.195 240.53 215.525 242.319 217.047C243.247 217.837 244.979 219.109 245.017 220.478C245.056 221.971 241.313 220.844 240.617 220.68C240.443 220.641 238.76 220.314 238.866 220.449C241.816 224.341 247.155 225.777 250.869 228.783C251.798 229.535 252.832 230.152 253.713 230.961C253.887 231.125 254.457 231.578 254.264 231.876C254.148 232.05 253.558 231.847 253.422 231.818C252.629 231.626 251.856 231.346 251.082 231.086C248.422 230.171 245.791 229.149 243.054 228.504C242.493 228.369 240.646 227.791 240.172 228.388C239.92 228.697 242.009 229.593 242.232 229.728C244.224 230.951 246.246 232.252 247.996 233.823C248.151 233.967 249.612 235.22 249.099 235.547C248.267 236.068 246.517 235.827 245.598 235.73C242.474 235.403 239.495 234.208 236.351 234.035C235.529 233.986 232.705 233.418 232.318 234.362C232.125 234.854 232.744 235.326 233.073 235.567C234.088 236.299 235.278 236.723 236.4 237.243C240.249 239.016 244.166 240.77 248.18 242.128C248.973 242.398 251.846 243.034 251.981 244.027C252.039 244.422 251.353 244.45 251.121 244.45C250.134 244.46 249.138 244.2 248.2 243.959C245.076 243.169 241.99 242.09 238.769 241.772C237.831 241.675 235.781 241.435 235.065 242.302C234.688 242.755 236.845 244.017 237.183 244.239C239.021 245.433 240.897 246.59 242.638 247.929C243.151 248.324 244.302 249.027 244.379 249.76C244.495 250.704 242.89 250.714 242.319 250.694C240.655 250.646 239.021 250.251 237.348 250.251C236.758 250.251 235.732 250.261 235.432 250.906C235.142 251.533 236.032 252.265 236.409 252.621C237.415 253.537 240.8 255.483 239.804 257.198C238.257 259.848 234.001 256.36 231.805 257.545C230.993 257.979 231.332 258.759 231.622 259.434C232.067 260.455 232.947 261.833 232.25 262.912C231.37 264.29 229.107 264.271 228.391 265.735C228.178 266.169 228.604 266.737 228.836 267.074C228.856 267.103 229.32 267.739 229.281 267.759C228.604 268.105 226.563 266.776 227.086 268.79C227.54 270.562 230.945 270.938 232.395 271.15C238.054 271.989 244.244 271.324 249.815 270.187C271.732 265.716 287.942 248.883 298.542 230.103" fill="white"/>
<path d="M275.262 94.5909C275.639 94.8992 274.953 95.1112 274.721 95.1883C273.918 95.4677 273.067 95.6123 272.235 95.7664C269.072 96.3253 265.909 96.5469 262.718 96.7974C258.181 97.1443 253.597 97.5201 249.051 97.0383C245.076 96.6143 241.217 95.4966 237.377 94.4175C227.376 91.6232 217.365 91.3823 207.036 91.2378C201.59 91.1703 196.145 90.8331 190.7 90.9969C186.376 91.1222 182.014 91.6714 177.681 91.575C176.675 91.5461 174.044 91.6521 173.3 90.8138C173.106 90.6019 173.861 90.7271 174.141 90.6693C174.721 90.5633 175.302 90.438 175.872 90.2935C178.01 89.7443 180.099 89.012 182.246 88.5302C183.078 88.3375 183.91 88.1834 184.732 87.9714C184.771 87.9617 185.603 87.7594 185.535 87.6534C185.419 87.4511 184.471 87.4992 184.258 87.4896C183.02 87.4125 181.782 87.4318 180.544 87.4992C175.224 87.8172 169.982 88.5399 164.653 88.7711C163.067 88.8386 161.471 88.9446 159.894 89.1565C159.672 89.1854 157.215 89.436 157.351 89.2047C157.67 88.6748 158.753 88.5495 159.285 88.4628C161.103 88.1737 162.989 88.2508 164.817 88.2797C171.762 88.4242 178.977 87.1909 185.844 86.2177C188.253 85.8805 190.651 85.5047 193.04 85.0711C193.92 84.9073 194.801 84.7435 195.681 84.5604C195.942 84.5123 196.203 84.4545 196.464 84.3966C196.58 84.3774 196.88 84.3966 196.803 84.3099C196.609 84.0883 195.323 84.281 195.004 84.281C193.089 84.3003 191.164 84.3677 189.249 84.4545C181.24 84.8495 173.348 86.0925 165.369 86.7284C163.096 86.9115 160.803 87.0367 158.531 86.9597C158.356 86.95 156.422 86.8055 156.432 86.7766C156.48 86.6128 157.263 86.5068 157.399 86.4683C158.182 86.2563 158.956 85.9865 159.72 85.7071C161.78 84.9362 163.811 84.0594 165.765 83.0477C166.994 82.4117 168.328 81.4675 169.721 81.2266C170.901 81.0242 172.158 81.1688 173.358 81.1206C173.6 81.111 174.393 81.1784 174.567 80.9472C174.886 80.5328 173.928 79.4826 173.774 79.049C173.145 77.3339 172.835 75.5128 172.893 73.6821C173.019 69.1823 175.273 64.6248 179.906 63.2084C182.092 62.5339 183.794 63.6709 185.254 65.174C185.854 65.781 186.986 67.313 188.011 67.0722C189.104 66.8024 188.388 64.4224 189.297 63.8154C189.839 63.4492 190.758 64.1526 191.174 64.4417C191.396 64.6055 192.063 65.0584 191.793 64.9813C190.177 64.5188 192.15 62.0425 193.137 61.9365C194.191 61.8305 195.188 63.0927 195.768 63.8058C195.961 64.037 196.145 64.2779 196.319 64.5284C196.416 64.6729 196.532 65.1162 196.619 64.962C197.296 63.7961 197.277 61.8112 197.828 60.4912C199.395 56.743 202.993 56.1745 206.659 56.955C208.777 57.4078 211.562 58.2654 212.713 60.2696C213.68 61.9365 213.758 65.3281 215.586 66.4459C215.431 65.8774 217.027 65.1065 217.24 64.9716C218.99 63.8347 220.944 63.8347 222.985 63.9985C224.242 64.1044 225.161 64.6055 225.538 65.8966C225.664 66.3399 225.664 67.3227 226.109 67.6021C226.544 67.8815 227.744 67.2841 228.13 67.1589C229.262 66.7831 230.413 66.5808 231.545 67.1107C233.363 67.949 232.957 70.5698 234.359 71.4563C235.762 72.3331 238.015 71.4852 239.601 72.2849C240.472 72.7281 241.043 73.6628 241.371 74.5589C241.488 74.8672 241.362 75.9175 241.71 76.0813C241.981 76.2065 242.377 75.7826 242.638 75.7055C243.296 75.5128 244.147 75.6284 244.795 75.8018C250.125 77.1893 255.725 77.199 261.17 78.1529C264.613 78.7599 268.047 79.3766 271.48 80.0029C272.409 80.1763 273.425 80.3498 274.334 80.6003C274.75 80.7063 275.591 80.8797 275.591 80.8797C275.591 80.8797 275.02 80.7255 274.73 80.7159C274.614 80.7063 273.715 80.7159 273.579 80.7159C272.012 80.7737 270.436 80.8123 268.869 80.8604C263.414 81.0242 257.949 81.2651 252.485 81.2459C250.637 81.2362 248.78 81.1688 246.933 81.1495C246.362 81.1399 245.801 81.1591 245.231 81.1399C244.873 81.1302 243.925 80.8026 244.157 81.0821C244.805 81.8818 246.575 81.5638 247.436 82.1227C250.057 83.8281 253.8 84.6857 256.237 88.6748C256.711 89.4167 257.456 89.8406 258.346 89.937C261.576 90.1683 269.604 91.1511 275.262 94.6005" fill="white" fill-opacity="0.2706"/>
<path d="M206.803 85.3408C201.822 84.7531 196.793 83.8859 191.86 84.1942C191.841 84.1749 192.585 83.8184 192.75 83.7413C192.769 83.7317 192.779 83.7221 192.808 83.7124C193.117 83.5101 193.495 83.2885 193.862 83.0572C194.268 82.7971 194.114 82.1804 193.63 82.1419C185.186 81.4577 176.636 82.72 168.183 81.7179C168.173 81.7179 168.163 81.7179 168.144 81.7179C165.958 81.6601 171.23 80.7736 171.761 80.7736C171.791 80.7736 171.82 80.764 171.858 80.7544C178.716 79.0682 187.856 79.1067 192.866 74.1637C192.914 74.1059 192.953 74.0481 192.972 73.9807C194.868 69.1148 205.662 61.1848 213.564 65.8002C213.583 65.8098 213.612 65.8291 213.632 65.8484C215.489 67.4382 217.733 66.465 220.75 67.3997C220.963 67.4575 221.099 67.6598 221.099 67.8814C221.099 68.0645 221.128 68.2572 221.147 68.2476C222.288 67.3418 222.694 66.3976 224.223 65.8773C226.612 65.0583 228.382 66.176 230.123 67.6405C230.161 67.6791 230.2 67.7273 230.229 67.7754C232.183 71.1671 234.001 68.6812 236.748 69.77C236.777 69.7796 236.816 69.7989 236.845 69.8182C238.411 70.7335 237.928 73.1424 239.05 74.3564C240.152 75.5512 242.242 74.4528 243.47 75.214C244.805 76.0523 245.259 77.9408 246.855 78.4515C246.884 78.4708 246.923 78.4708 246.952 78.4804C250.231 78.9814 253.471 76.9869 256.808 77.2374C259.013 77.276 260.754 80.1377 262.766 80.9952C263.578 81.3421 265.358 80.4749 266.141 80.3689C268.414 80.0702 270.764 80.2051 273.066 80.0895C275.194 80.051 277.622 79.6174 279.808 79.8583C280.407 79.9257 280.398 80.7833 279.798 80.8507C278.251 81.1012 276.751 81.4096 275.194 81.5445C263.462 82.6525 251.565 79.6559 239.959 82.0551C239.891 82.0648 238.866 82.2382 239.263 82.4984C241.178 83.7895 244.65 83.6161 246.807 83.8377C253.539 84.6952 260.386 84.464 267.137 84.8976C267.776 84.9361 267.756 85.8708 267.128 85.89C247.232 86.6705 226.67 86.7283 206.803 85.3504V85.3408Z" fill="white" fill-opacity="0.5882"/>
<path d="M152.505 117.013C152.505 117.013 156.625 112.677 162.902 113.052C168.889 113.38 165.291 104.419 176.288 104.053C177.275 104.005 178.116 103.253 178.251 102.328C178.58 100.507 177.923 98.9654 181.482 97.8959C184.151 97.0576 184.48 93.2324 188.881 94.2152C190.187 94.4946 191.551 94.4464 192.76 93.9261C194.868 93.0397 197.915 92.9529 201.426 97.0576C205.585 102.001 208.206 97.3852 211.581 99.6688C213.264 100.787 213.738 102.28 213.777 103.446C213.825 104.419 214.435 105.267 215.373 105.546C217.288 106.105 220.334 107.599 223.749 110.162C225.151 111.183 226.834 111.742 228.575 111.694C237.464 111.414 265.087 110.576 268.356 111.511C272.244 112.628 248.886 115.664 229.223 115.895C225.712 116.078 230.49 116.685 228.623 117.388C226.747 118.092 208.767 118.41 208.767 118.41L151.711 121.397L152.505 117.013Z" fill="white" fill-opacity="0.3412"/>
<path d="M220.567 114.084C220.305 114.758 221.186 115.124 221.679 115.326C223.081 115.905 224.629 116.145 226.118 116.415C231.225 117.331 236.235 118.323 241.429 118.747C242.715 118.853 244.012 118.766 245.298 118.901C245.646 118.94 246.478 118.94 246.7 119.277C246.845 119.499 246.236 119.566 246.139 119.585C245.453 119.711 244.756 119.768 244.07 119.826C241.071 120.067 238.073 120.067 235.065 120.125C231.941 120.183 228.72 119.344 225.702 120.135C225.209 120.269 224.59 119.961 224.077 119.961C222.124 119.951 220.315 119.566 218.352 119.325C216.137 119.055 213.825 119.132 211.591 119.007C210.527 118.949 208.651 118.41 207.606 118.68C207.49 118.718 207.838 118.776 207.954 118.814C208.157 118.892 208.36 118.988 208.583 119.036C209.221 119.2 209.898 119.316 210.546 119.489C212.964 120.106 215.556 120.424 218.023 120.838C218.661 120.944 219.299 121.069 219.948 121.127C220.267 121.146 221.04 121.04 220.876 121.32C220.857 121.349 220.151 121.272 220.073 121.262C219.261 121.243 218.468 121.04 217.665 120.982C213.757 120.713 209.763 120.79 205.836 120.77C196.735 120.722 187.643 120.973 178.551 120.963C175.524 120.963 172.429 120.915 169.411 120.655C168.202 120.559 166.954 120.568 165.813 120.163C165.426 120.029 165.039 119.903 164.653 119.768C164.498 119.72 164.043 119.624 164.198 119.576C165.639 119.2 167.554 119.556 169.053 119.479C172.999 119.287 176.936 118.728 180.882 118.506C182.584 118.41 182.546 118.477 184.258 118.323C184.277 118.323 186.54 118.294 186.444 117.918C186.366 117.639 185.157 117.35 185.002 117.292C183.948 116.936 182.555 116.579 181.433 116.704C179.828 116.897 178.222 116.753 176.607 116.791C172.787 116.887 169.034 116.945 165.213 116.772C163.124 116.675 160.377 116.878 158.443 115.953C157.747 115.616 157.079 115.201 156.46 114.748C156.228 114.585 155.367 113.544 155.58 113.794C155.812 112.792 156.083 111.742 156.47 110.759C155.851 110.615 157.273 108.851 157.476 108.639C158.395 107.695 160.087 106.635 161.49 106.732C162.302 106.78 163.153 108.042 163.569 108.62C163.627 108.697 163.975 109.092 163.917 109.208C163.859 109.304 163.511 108.813 163.502 108.736C163.463 108.341 163.579 107.936 163.734 107.58C164.237 106.356 165.068 105.209 166.5 105.306C167.022 105.335 167.922 105.681 168.28 106.057C168.396 106.173 168.454 106.539 168.454 106.539C168.454 106.539 168.908 105.489 169.198 104.997C169.343 104.756 169.46 104.496 169.624 104.265C170.175 103.494 170.272 103.292 170.901 102.878C171.626 102.396 172.39 101.962 173.299 102.155C173.541 102.203 173.744 102.338 173.957 102.463C174.073 102.531 174.412 102.723 174.296 102.656C173.038 101.924 174.334 99.4569 174.905 98.7632C176.462 96.8747 179.789 95.8051 182.023 96.9999C182.739 97.3757 183.387 98.4934 183.619 99.2161C183.697 99.4569 183.523 100.151 183.523 100.151C183.484 99.9773 183.987 99.1101 184.016 98.9174C184.267 97.2793 184.645 95.3233 186.192 94.4273C186.579 94.196 187.005 94.0611 187.44 94.2442C187.662 94.3309 187.914 94.8705 188.03 94.6585C188.32 94.1671 188.136 92.9241 188.455 92.2593C189.606 89.9371 192.595 88.5689 195.11 89.1663C196.203 89.4361 196.754 90.1299 196.88 91.2476C196.909 91.4499 196.851 92.8952 197.112 93.0494C197.122 93.0494 197.566 92.2593 197.644 92.1437C198.127 91.4499 198.659 90.7658 199.617 90.8621C200.855 90.9874 201.958 91.6233 202.344 92.8278C202.402 93.0205 202.76 95.4486 203.234 95.3233C203.863 95.1595 204.463 94.2635 205.091 93.9744C206.474 93.3481 207.983 93.8877 209.202 94.6007C209.782 94.9379 210.256 95.3619 210.256 96.0653C210.256 96.4796 209.647 97.077 210.005 97.289C210.188 97.395 210.324 96.9903 210.527 96.9132C211.088 96.6723 211.755 96.4989 212.374 96.6145C212.868 96.7108 213.264 96.9806 213.651 97.289C215.972 99.1293 213.883 100.729 213.283 102.868C213.206 103.128 214.434 103.244 214.56 103.417C214.744 103.687 214.347 104.169 214.212 104.4C214.144 104.506 214.396 104.246 214.492 104.178C214.657 104.063 214.812 103.937 214.986 103.851C215.779 103.456 216.311 103.311 217.143 103.687C218.41 104.265 218.158 105.508 218.448 106.52C218.506 106.741 218.739 106.134 218.951 106.048C219.338 105.884 219.754 105.797 220.18 105.768C220.973 105.72 221.108 106.414 221.582 106.876C221.659 106.944 221.737 107.001 221.814 107.04C221.466 106.809 223.439 106.51 223.652 107.146C223.749 107.435 223.739 107.792 223.7 108.081C223.691 108.177 223.555 108.302 223.633 108.35C223.778 108.437 224.068 108.129 224.136 108.081C224.542 107.792 225.006 107.57 225.519 107.637C226.215 107.724 226.776 108.244 227.395 108.534C228.043 108.842 228.797 108.871 229.503 108.871C231.506 108.89 233.488 108.543 235.5 108.611C239.591 108.755 243.673 109.179 247.745 109.564C249.418 109.728 251.082 110.008 252.755 110.143C253.326 110.191 253.858 110.345 254.419 110.432C254.718 110.48 254.699 110.48 254.989 110.557C255.038 110.567 255.183 110.624 255.144 110.595C254.593 110.278 252.939 110.663 252.455 110.673C250.627 110.711 248.79 110.692 246.961 110.673C241.168 110.605 235.345 110.769 229.562 111.106C228.178 111.193 226.795 111.347 225.422 111.424C224.871 111.463 224.039 111.337 223.507 111.482C222.356 111.79 221.215 112.985 220.625 113.987C220.605 114.016 220.576 114.055 220.557 114.084" fill="white" fill-opacity="0.6"/>
<mask id="mask0_2908_316" style="mask-type:luminance" maskUnits="userSpaceOnUse" x="126" y="0" width="216" height="296">
<path d="M126.187 0H341.602V296H126.187V0Z" fill="white"/>
</mask>
<g mask="url(#mask0_2908_316)">
<mask id="mask1_2908_316" style="mask-type:luminance" maskUnits="userSpaceOnUse" x="126" y="0" width="214" height="296">
<path fill-rule="evenodd" clip-rule="evenodd" d="M309.22 30.4189C308.244 29.4361 307.257 28.5015 306.27 27.5668C287.787 10.5025 263.027 0.0577393 236.013 0.0577393C175.824 0.0577393 126.583 48.2252 126.583 109.082V187.043C126.583 197.728 128.17 208.029 131.071 217.78C134.486 229.246 139.825 239.97 146.663 249.528C166.365 277.182 198.805 295.277 235.22 295.277C253.664 295.277 271.026 290.469 286.104 282.038C318.022 264.174 339.745 230.084 339.745 191.195V103.388C339.649 74.9924 327.994 49.1598 309.22 30.4189ZM309.926 182.948C309.926 224.351 275.9 258.248 234.33 258.248C233.488 258.248 232.695 258.248 231.893 258.21C191.454 256.899 158.782 223.561 158.782 182.948V108.427C158.782 69.7218 188.455 37.5973 226.283 33.589C228.943 33.2999 231.612 33.165 234.378 33.165C255.163 33.165 274.072 41.6538 287.739 55.2687C301.454 68.9317 309.926 87.7208 309.926 108.427V182.948Z" fill="white"/>
</mask>
<g mask="url(#mask1_2908_316)">
<path d="M337.095 318.797L93.7568 291.606L129.224 -23.4622L372.572 3.72899L337.095 318.797Z" fill="#07A5E1"/>
</g>
</g>
<path d="M234.398 262.315C227.946 262.315 221.65 261.534 215.586 260.137C180.873 251.85 154.874 221.056 154.874 184.162V106.731C154.874 63.3914 190.429 28.7713 233.962 28.5304H234.398C256.266 28.5304 276.161 37.3468 290.544 51.482C304.974 65.6653 313.882 83.539 313.882 106.683V184.114H313.931C313.931 227.107 278.135 262.315 234.398 262.315ZM234.398 10.9554C184.364 10.9554 139.157 55.2109 139.264 103.687V191.379C139.109 237.841 186.212 281.547 233.469 281.547C233.779 281.547 234.088 281.537 234.398 281.537C253.316 281.537 271.577 275.775 286.994 265.947C312.451 249.721 330.083 222.318 330.083 191.33V103.639C330.083 67.8044 311.078 39.2836 283.696 23.7898C269.12 15.5034 252.126 10.9554 234.398 10.9554Z" fill="white"/>
<path d="M297.44 57.7644L294.306 61.262C293.32 62.3797 291.54 62.4761 290.418 61.4933C289.296 60.5201 289.199 58.7472 290.186 57.6295L293.32 54.1318C294.306 53.0045 296.086 52.9177 297.208 53.8909C298.33 54.9219 298.465 56.6466 297.44 57.7644Z" fill="#07A5E1"/>
<path d="M359.699 132.246L356.565 135.744C355.579 136.862 353.799 136.958 352.677 135.975C351.555 135.002 351.468 133.229 352.445 132.111L355.579 128.614C356.565 127.496 358.345 127.4 359.467 128.382C360.589 129.356 360.685 131.129 359.699 132.246Z" fill="#07A5E1"/>
<path d="M314.676 58.6315L311.542 62.1292C310.555 63.2469 308.776 63.3433 307.654 62.3604C306.532 61.3873 306.435 59.6144 307.422 58.487L310.555 54.999C311.542 53.8716 313.322 53.7849 314.444 54.7581C315.565 55.7409 315.662 57.4657 314.676 58.6315Z" fill="#07A5E1"/>
<path fill-rule="evenodd" clip-rule="evenodd" d="M290.05 57.7836L293.223 54.2281L288.851 56.3961L290.05 57.7836Z" fill="white"/>
<path fill-rule="evenodd" clip-rule="evenodd" d="M232.231 251.33C233.692 251.108 235.065 252.12 235.288 253.594C235.52 255.059 234.514 256.437 233.044 256.658C231.583 256.88 230.21 255.868 229.987 254.404C229.765 252.929 230.771 251.552 232.231 251.33ZM232.338 252.361C233.247 252.226 234.088 252.852 234.224 253.749C234.369 254.654 233.74 255.502 232.841 255.637C231.941 255.772 231.09 255.155 230.955 254.25C230.819 253.344 231.438 252.506 232.338 252.361Z" fill="white" fill-opacity="0.2588"/>
<mask id="mask2_2908_316" style="mask-type:luminance" maskUnits="userSpaceOnUse" x="68" y="133" width="212" height="129">
<path d="M68 133.2H279.701V261.467H68V133.2Z" fill="white"/>
</mask>
<g mask="url(#mask2_2908_316)">
<path d="M278.521 134.164C278.55 134.125 278.579 134.087 278.608 134.048C274.691 137.102 270.793 140.109 266.905 143.047C208.738 186.677 154.158 214.677 128.45 218.262C121.477 219.244 116.612 218.358 114.406 215.554C110.76 210.89 114.455 200.956 123.962 187.486V134.462C78.8326 181.936 57.0221 227.82 73.4549 248.709C83.9878 262.093 109.493 264.801 144.041 249.972C180.94 234.121 228.13 198.307 278.502 134.183C278.55 134.144 278.589 134.106 278.608 134.096C278.579 134.115 278.55 134.144 278.521 134.164Z" fill="#07A5E1"/>
<path d="M278.608 134.096C228.198 198.259 180.969 234.112 144.041 249.972C109.493 264.801 83.9878 262.093 73.4549 248.71C57.0221 227.82 78.8326 181.936 123.962 134.462V148.964C98.4958 172.513 76.7337 209.725 80.148 232.021C81.0378 237.85 85.0614 242.697 90.5357 244.884C151.528 269.32 276.742 136.052 278.608 134.087V134.096Z" fill="#ADE8FF"/>
</g>
<path d="M359.186 107.117L355.82 110.894C354.882 111.964 353.238 112.06 352.164 111.125C351.09 110.191 350.994 108.562 351.932 107.493L355.298 103.706C356.236 102.636 357.871 102.55 358.954 103.475C360.027 104.458 360.124 106.086 359.186 107.117Z" fill="#07A5E1"/>
<path d="M251.488 121.83L255.647 118.188L282.1 122.534L314.859 87.1331L301.386 74.8287L254.574 59.9998L260.657 54.1704L338.082 63.7287C338.875 63.8154 339.668 63.536 340.229 63.0253L362.049 42.0394C363.22 40.9217 364.574 40.0834 366.073 39.5245C370 38.0792 377.631 36.0269 381.287 39.8039C385.165 43.8605 381.519 51.9735 379.546 55.6157C378.946 56.7719 378.095 57.8029 377.118 58.6894L355.018 78.5094C354.457 79.0201 354.128 79.762 354.128 80.5136L356.236 158.435L350.298 163.744L339.059 115.529L328.11 101.538L290.051 131.668L291.782 157.501L288.087 161.229L276.578 138.702C275.871 137.353 274.837 136.235 273.531 135.445L251.488 121.821V121.83Z" fill="#07A5E1"/>
<path fill-rule="evenodd" clip-rule="evenodd" d="M314.869 87.0945L301.337 74.7611L285.978 69.8856L300.09 75.5802L311.609 87.4895L305.738 96.99L314.869 87.0945Z" fill="white"/>
<path fill-rule="evenodd" clip-rule="evenodd" d="M328.11 101.529L339.61 115.693L342.937 132.092L338.72 116.887L327.51 104.554L317.509 109.94L328.11 101.529Z" fill="white"/>
</svg>
