<svg width="28" height="34" viewBox="0 0 28 34" fill="none" xmlns="http://www.w3.org/2000/svg">
<path d="M27.5563 6.7063V15.7625C27.5563 23.975 21.9876 31.175 14.0001 33.2C6.0126 31.175 0.443848 23.975 0.443848 15.7625V6.7063C6.6876 5.97505 10.2876 3.61255 14.0001 0.800049C17.7126 3.61255 21.3126 5.97505 27.5563 6.7063Z" fill="#FFD15D"/>
<path d="M14 29.6001C7.98125 27.6876 3.875 22.1188 3.875 15.7626V9.63132C8.09375 8.73132 11.1875 6.98757 14 5.07507C16.8687 7.04382 19.9062 8.73132 24.125 9.63132V15.7626C24.125 22.1188 20.0187 27.6876 14 29.6001Z" fill="#F5B92D"/>
<path d="M11.75 22.5126L8.375 19.1938L10.1188 17.5063L11.75 19.1376L17.8813 13.0063L19.625 14.6938L11.75 22.5126Z" fill="white"/>
</svg>
