<svg width="24" height="24" viewBox="0 0 24 24" fill="none" xmlns="http://www.w3.org/2000/svg">
<g clip-path="url(#clip0_38_4524)">
<path d="M23.6573 20.3428L21.3371 18.0226C21.192 17.8775 20.9907 17.803 20.786 17.8187L18.954 17.9597L17.2082 16.2138C20.5447 12.695 22.2359 8.98045 22.9604 7.02717C23.8769 4.55606 24.4922 1.55147 23.4705 0.529641C22.4486 -0.492188 19.444 0.123141 16.9729 1.03969C15.0196 1.76419 11.3051 3.45539 7.78622 6.79191L6.04041 5.04609L6.18131 3.21408C6.19706 3.00942 6.12258 2.80809 5.97745 2.66297L3.65723 0.342703C3.2003 -0.114234 2.45686 -0.114234 1.99997 0.342703L0.342703 1.99997C-0.114234 2.45691 -0.114234 3.20034 0.342703 3.65723L2.66287 5.97741C2.808 6.12253 3.00933 6.19702 3.21398 6.18127L5.046 6.04036L6.79181 7.78617C3.45534 11.305 1.76414 15.0195 1.03964 16.9728C0.123047 19.444 -0.492234 22.4486 0.529594 23.4704C1.55142 24.4922 4.55602 23.8769 7.02717 22.9604C8.9805 22.2358 12.695 20.5447 16.2138 17.2082L17.9596 18.954L17.8187 20.786C17.803 20.9907 17.8775 21.192 18.0226 21.3371L20.3428 23.6573C20.7997 24.1143 21.5431 24.1143 22 23.6573L23.6573 22.0001C24.1142 21.5431 24.1142 20.7997 23.6573 20.3428ZM14.9831 13.9887L15.8118 13.1601C17.0123 11.9595 17.1613 10.0997 16.2589 8.73544L18.3576 6.63675C19.1426 7.28344 20.0476 7.75266 21.0305 8.02191C20.1665 9.93492 18.6584 12.631 16.2128 15.2184L14.9831 13.9887ZM9.18262 14.8174C8.3602 13.995 8.36016 12.6567 9.18262 11.8343L10.0113 11.0056L12.9944 13.9887L12.1658 14.8174C11.3433 15.6398 10.0051 15.6398 9.18262 14.8174ZM11.0056 10.0113L11.8343 9.18262C12.6568 8.36016 13.995 8.3602 14.8174 9.18262C15.6399 10.0051 15.6399 11.3433 14.8174 12.1658L13.9888 12.9944L11.0056 10.0113ZM20.8924 1.46011C21.9186 1.33397 22.3726 1.45927 22.4751 1.52489C22.5407 1.62736 22.666 2.08144 22.5399 3.10767C22.4135 4.13639 22.0839 5.37333 21.5869 6.68484C21.5838 6.69286 21.5805 6.70153 21.5774 6.70959C20.5341 6.45741 19.5924 5.93236 18.83 5.16998C18.0676 4.40761 17.5421 3.46608 17.2899 2.42283C17.2982 2.41969 17.307 2.41622 17.3152 2.41313C18.6267 1.91611 19.8637 1.58653 20.8924 1.46011ZM15.9785 2.96934C16.2477 3.95227 16.7164 4.85756 17.3631 5.64253L15.2646 7.74108C13.9003 6.83873 12.0405 6.9877 10.8399 8.18827L10.0113 9.01692L8.78161 7.7872C11.3692 5.34141 14.0654 3.8333 15.9785 2.96934ZM1.50281 2.82863L2.82863 1.50281L4.75444 3.42862L4.6597 4.65975L3.42858 4.75448L1.50281 2.82863ZM9.01692 10.0113L8.18827 10.8399C6.98775 12.0404 6.83878 13.9003 7.74113 15.2645L5.64234 17.3633C4.85733 16.7166 3.95203 16.248 2.96916 15.9788C3.83306 14.0658 5.34122 11.3693 7.7872 8.78156L9.01692 10.0113ZM3.10767 22.5399C2.08144 22.666 1.62741 22.5407 1.52489 22.4751C1.45927 22.3726 1.33397 21.9186 1.46011 20.8924C1.58658 19.8637 1.91611 18.6267 2.41313 17.3152C2.41627 17.3069 2.41978 17.298 2.42292 17.2897C3.46608 17.542 4.40756 18.0676 5.16994 18.8301C5.93231 19.5925 6.45797 20.534 6.71034 21.5771C6.702 21.5803 6.69309 21.5838 6.6848 21.5869C5.37333 22.0839 4.13639 22.4135 3.10767 22.5399ZM8.02228 21.0303C7.75303 20.0474 7.28428 19.1418 6.63755 18.3569L8.73548 16.2589C10.0998 17.1613 11.9596 17.0123 13.1601 15.8118L13.9888 14.9831L15.2184 16.2128C12.6312 18.6583 9.9353 20.1663 8.02228 21.0303ZM21.1714 22.4972L19.2456 20.5715L19.3403 19.3403L20.5714 19.2457L22.4972 21.1714L21.1714 22.4972Z" fill="#737373"/>
</g>
<defs>
<clipPath id="clip0_38_4524">
<rect width="24" height="24" fill="white"/>
</clipPath>
</defs>
</svg>
