<svg width="24" height="24" viewBox="0 0 24 24" fill="none" xmlns="http://www.w3.org/2000/svg">
<path d="M15 3.75C15.4142 3.75 15.75 3.41421 15.75 3C15.75 2.58579 15.4142 2.25 15 2.25H11.9548C10.1182 2.24999 8.67861 2.24999 7.53648 2.37373C6.37094 2.50001 5.42656 2.76232 4.62024 3.34815C4.13209 3.70281 3.70281 4.13209 3.34815 4.62023C2.76232 5.42656 2.50001 6.37094 2.37373 7.53648C2.24999 8.67861 2.24999 10.1182 2.25 11.9548V12.0452C2.24999 13.8818 2.24999 15.3214 2.37373 16.4635C2.50001 17.6291 2.76232 18.5734 3.34815 19.3798C3.70281 19.8679 4.13209 20.2972 4.62023 20.6518C5.42656 21.2377 6.37094 21.5 7.53648 21.6263C8.67859 21.75 10.1182 21.75 11.9547 21.75H12.0453C13.8818 21.75 15.3214 21.75 16.4635 21.6263C17.6291 21.5 18.5734 21.2377 19.3798 20.6518C19.8679 20.2972 20.2972 19.8679 20.6518 19.3798C21.2377 18.5734 21.5 17.6291 21.6263 16.4635C21.75 15.3214 21.75 13.8818 21.75 12.0453V9C21.75 8.58579 21.4142 8.25 21 8.25C20.5858 8.25 20.25 8.58579 20.25 9V12C20.25 13.8916 20.249 15.25 20.135 16.302C20.0225 17.3399 19.8074 17.9901 19.4383 18.4981C19.1762 18.8589 18.8589 19.1762 18.4981 19.4383C17.9901 19.8074 17.3399 20.0225 16.302 20.135C15.25 20.249 13.8916 20.25 12 20.25C10.1084 20.25 8.74999 20.249 7.69804 20.135C6.66013 20.0225 6.00992 19.8074 5.50191 19.4383C5.14111 19.1762 4.82382 18.8589 4.56168 18.4981C4.19259 17.9901 3.97745 17.3399 3.865 16.302C3.75103 15.25 3.75 13.8916 3.75 12C3.75 10.1084 3.75103 8.74999 3.865 7.69805C3.97745 6.66013 4.19259 6.00992 4.56168 5.50191C4.82382 5.14111 5.14111 4.82382 5.50191 4.56168C6.00992 4.19259 6.66013 3.97745 7.69805 3.865C8.74999 3.75103 10.1084 3.75 12 3.75H15Z" fill="black"/>
<path d="M6.32657 14.5267C6.14415 14.8986 6.29774 15.348 6.66962 15.5304C7.0415 15.7128 7.49085 15.5592 7.67327 15.1873L9.13361 12.2103C9.58624 11.2875 10.9166 11.3326 11.3057 12.2839C12.1849 14.4329 15.1903 14.5347 16.2129 12.4501L17.6733 9.47305C17.8557 9.10116 17.7021 8.65181 17.3302 8.4694C16.9583 8.28698 16.509 8.44057 16.3265 8.81245L14.8662 11.7895C14.4136 12.7123 13.0832 12.6672 12.6941 11.7159C11.8149 9.56687 8.80947 9.46506 7.7869 11.5497L6.32657 14.5267Z" fill="black"/>
<path fill-rule="evenodd" clip-rule="evenodd" d="M17.5 4C17.5 5.38071 18.6193 6.5 20 6.5C21.3807 6.5 22.5 5.38071 22.5 4C22.5 2.61929 21.3807 1.5 20 1.5C18.6193 1.5 17.5 2.61929 17.5 4ZM19 4C19 4.55228 19.4477 5 20 5C20.5523 5 21 4.55228 21 4C21 3.44772 20.5523 3 20 3C19.4477 3 19 3.44772 19 4Z" fill="black"/>
</svg>
