<svg width="12" height="16" viewBox="0 0 12 16" fill="none" xmlns="http://www.w3.org/2000/svg">
<path d="M6.00016 0C2.805 0 0.205566 2.59944 0.205566 5.79456C0.205566 9.75981 5.39116 15.581 5.61194 15.8269C5.81932 16.0579 6.18138 16.0575 6.38838 15.8269C6.60916 15.581 11.7948 9.75981 11.7948 5.79456C11.7947 2.59944 9.19529 0 6.00016 0ZM6.00016 8.70997C4.3926 8.70997 3.08478 7.40212 3.08478 5.79456C3.08478 4.187 4.39263 2.87919 6.00016 2.87919C7.60769 2.87919 8.9155 4.18703 8.9155 5.79459C8.9155 7.40216 7.60769 8.70997 6.00016 8.70997Z" fill="#575756"/>
</svg>
