<svg width="16" height="23" viewBox="0 0 16 23" fill="none" xmlns="http://www.w3.org/2000/svg">
<path d="M8.00016 5C4.805 5 2.20557 7.59944 2.20557 10.7946C2.20557 14.7598 7.39116 20.581 7.61194 20.8269C7.81932 21.0579 8.18138 21.0575 8.38838 20.8269C8.60916 20.581 13.7948 14.7598 13.7948 10.7946C13.7947 7.59944 11.1953 5 8.00016 5ZM8.00016 13.71C6.3926 13.71 5.08478 12.4021 5.08478 10.7946C5.08478 9.187 6.39263 7.87919 8.00016 7.87919C9.60769 7.87919 10.9155 9.18703 10.9155 10.7946C10.9155 12.4022 9.60769 13.71 8.00016 13.71Z" fill="#575756"/>
</svg>
