<svg width="24" height="24" viewBox="0 0 24 24" fill="none" xmlns="http://www.w3.org/2000/svg">
<g clip-path="url(#clip0_78_5663)">
<path d="M23.6068 4.47287C23.3773 4.25666 23.0737 4.13669 22.7585 4.1377L1.65503 4.1377L4.36951 18.877L4.55158 19.8618H22.7585C23.4441 19.8618 23.9999 19.3061 23.9999 18.6205V5.37908C24.0007 5.03545 23.8583 4.70703 23.6068 4.47287Z" fill="#F0C419"/>
<path d="M23.611 19.5226C23.3804 19.7401 23.0756 19.8614 22.7586 19.8619H4.5517L4.36963 18.877L11.6855 11.855L12.8276 12.9102C13.3032 13.3529 14.0402 13.3529 14.5158 12.9102L15.6372 11.8674L23.611 19.5226Z" fill="#F29C1F"/>
<path d="M23.607 4.47287L15.6373 11.8674L14.5159 12.9101C14.0403 13.3529 13.3033 13.3529 12.8277 12.9101L11.6856 11.8549L3.35181 4.1377L22.7587 4.1377C23.0739 4.13669 23.3776 4.25666 23.607 4.47287Z" fill="#F3D55B"/>
<path d="M12.5379 23.3378L11.9917 23.4992L11.2014 23.7309L10.4317 23.9585C10.2676 24.0073 10.0938 24.013 9.92687 23.9751L6.57928 23.2013C6.40085 23.1623 6.23722 23.0733 6.10756 22.9447C5.32549 22.1792 2.56549 19.2164 1.00549 14.0523C-0.554511 8.88817 0.107558 4.91161 0.339282 3.8523C0.377061 3.67521 0.462973 3.51198 0.587558 3.38058L2.96273 0.922649C3.08046 0.799054 3.22901 0.709069 3.39308 0.661959L4.15859 0.438511L4.95308 0.202649L5.49928 0.0412697C6.01765 -0.112419 6.56332 0.178852 6.72411 0.695063L8.13101 5.35437C8.20523 5.60242 8.17697 5.86986 8.05256 6.09691C7.92814 6.32397 7.71794 6.49171 7.46894 6.56265L6.92273 6.72403L6.13239 6.95575V6.95989L3.9517 7.60127C3.78978 7.64648 3.66386 7.77398 3.62066 7.93644C3.20346 9.6823 3.27648 11.5095 3.8317 13.2164C4.31896 14.9505 5.27041 16.5186 6.58342 17.7516C6.71157 17.8634 6.88846 17.901 7.05101 17.8509L9.22756 17.2095L10.022 16.9778L10.5682 16.8164C11.0868 16.6608 11.6338 16.9528 11.7931 17.4702L13.2 22.1295C13.2742 22.3776 13.2459 22.645 13.1215 22.8721C12.9971 23.0991 12.7869 23.2669 12.5379 23.3378Z" fill="#3B97D3"/>
<path d="M16.9654 6.20674H10.3447C10.1162 6.20674 9.93091 6.02148 9.93091 5.79294C9.93091 5.56441 10.1162 5.37915 10.3447 5.37915H16.9654C17.1939 5.37915 17.3792 5.56441 17.3792 5.79294C17.3792 6.02148 17.1939 6.20674 16.9654 6.20674Z" fill="#F9EAB0"/>
<path d="M22.3447 15.3101C22.1162 15.3101 21.9309 15.1249 21.9309 14.8963V9.10325C21.9309 8.87471 22.1162 8.68945 22.3447 8.68945C22.5732 8.68945 22.7585 8.87471 22.7585 9.10325V14.8963C22.7585 15.1249 22.5732 15.3101 22.3447 15.3101Z" fill="#F3D55B"/>
<path d="M10.0262 18.4219C9.98723 18.4335 9.94677 18.4391 9.90616 18.4385C9.7234 18.439 9.56192 18.3196 9.50892 18.1447L9.22754 17.2136V17.2095L10.022 16.9778L10.3034 17.9047C10.3356 18.01 10.3244 18.1239 10.2723 18.221C10.2203 18.318 10.1317 18.3904 10.0262 18.4219Z" fill="#2980BA"/>
<path d="M11.9917 23.4951V23.4992L11.2013 23.7309L10.0717 20.0068C10.0066 19.7874 10.1316 19.5567 10.351 19.4916C10.5704 19.4265 10.801 19.5515 10.8662 19.7709L11.9917 23.4951Z" fill="#2980BA"/>
<path d="M6.92278 6.72394L6.13244 6.95566L5.85106 6.02876C5.8007 5.81612 5.92438 5.60097 6.13348 5.53747C6.34258 5.47397 6.56501 5.58402 6.6414 5.78876L6.92278 6.72394Z" fill="#2980BA"/>
<path d="M5.80145 4.44402C5.76217 4.45386 5.72193 4.45941 5.68145 4.46057C5.4999 4.46023 5.34009 4.3408 5.28835 4.16677L4.15869 0.438499L4.95317 0.202637L6.07869 3.92677C6.11085 4.03213 6.09967 4.14596 6.04763 4.24305C5.99559 4.34013 5.90699 4.41246 5.80145 4.44402Z" fill="#2980BA"/>
</g>
<defs>
<clipPath id="clip0_78_5663">
<rect width="24" height="24" fill="white"/>
</clipPath>
</defs>
</svg>
