<svg width="24" height="24" viewBox="0 0 24 24" fill="none" xmlns="http://www.w3.org/2000/svg">
<g clip-path="url(#clip0_38_4599)">
<path d="M23.7938 21.3577L22.0897 19.6536V17.3185C22.0897 16.9295 21.7743 16.6141 21.3853 16.6141H7.95386L6.38411 15.0443L10.7298 12.9659C10.9745 12.8488 11.1303 12.6016 11.1303 12.3304V7.23321H18.2311C18.6201 7.23321 18.9355 6.91784 18.9355 6.52882C18.9355 5.01499 18.0027 3.61863 16.3088 2.59713C14.7264 1.6428 12.6371 1.11719 10.426 1.11719C8.21477 1.11719 6.12554 1.64275 4.54313 2.59713C2.8493 3.61868 1.91644 5.01494 1.91644 6.52882C1.91644 6.91784 2.23182 7.23321 2.62083 7.23321H9.72157V11.8865L5.32773 13.988L3.05991 11.7202C2.7849 11.4452 2.33888 11.4452 2.06377 11.7202L0.206344 13.5777C0.0742501 13.7098 0 13.8889 0 14.0758C0 14.2626 0.0742501 14.4418 0.206344 14.5738L5.57795 19.9454L3.84338 21.6799C3.56832 21.9549 3.56832 22.401 3.84338 22.6761C3.98091 22.8136 4.1612 22.8824 4.34143 22.8824C4.52167 22.8824 4.70199 22.8136 4.83948 22.6761L6.86575 20.6498H21.0936L22.7976 22.3539C22.9351 22.4914 23.1154 22.5602 23.2957 22.5602C23.4759 22.5602 23.6562 22.4914 23.7937 22.3539C24.0688 22.0788 24.0688 21.6328 23.7938 21.3577ZM3.44054 5.82448C4.05052 3.97661 7.00187 2.52602 10.426 2.52602C13.85 2.52602 16.8013 3.97666 17.4113 5.82448H3.44054ZM20.681 19.241H6.86575L1.70049 14.0758L2.56182 13.2144L7.16401 17.8166C7.29611 17.9487 7.47527 18.023 7.66206 18.023H20.6809V19.241H20.681Z" fill="black"/>
</g>
<defs>
<clipPath id="clip0_38_4599">
<rect width="24" height="24" fill="white"/>
</clipPath>
</defs>
</svg>
