<svg width="24" height="24" viewBox="0 0 24 24" fill="none" xmlns="http://www.w3.org/2000/svg">
<g clip-path="url(#clip0_38_4240)">
<path d="M21.5993 9.48724C22.2546 8.07953 22.7344 6.60443 22.7344 5.30109C22.7344 2.37799 20.3571 0 17.4351 0C15.3765 0 13.5884 1.1803 12.7114 2.89984C12.4056 2.87347 12.0963 2.85938 11.7891 2.85938C5.9469 2.85938 1.21875 7.58698 1.21875 13.4297C1.21875 19.2719 5.94635 24 11.7891 24C17.6312 24 22.3594 19.2724 22.3594 13.4297C22.3594 12.1126 22.123 10.7964 21.5993 9.48724ZM17.4351 1.40625C19.5817 1.40625 21.3281 3.15344 21.3281 5.30109C21.3281 8.07275 18.605 12.0386 17.4124 13.6425C15.8795 11.5587 13.5421 7.88324 13.5421 5.30109C13.5419 3.15344 15.2884 1.40625 17.4351 1.40625ZM5.05829 7.21765L9.77563 9.57623L9.23492 12.2796L7.3678 13.5244C7.17224 13.6547 7.05469 13.8743 7.05469 14.1094V17.1237L3.9613 18.1904C3.11389 16.8019 2.625 15.1719 2.625 13.4297C2.625 11.0349 3.54895 8.85187 5.05829 7.21765ZM4.82538 19.3799L7.98706 18.2897C8.27069 18.1919 8.46094 17.9249 8.46094 17.625V14.4857L10.2572 13.2881C10.4123 13.1847 10.5201 13.0239 10.5566 12.841L11.2597 9.32538C11.322 9.01447 11.1683 8.70044 10.8847 8.55872L6.16553 6.19904C7.888 4.85632 10.0206 4.17059 12.2355 4.27679C11.7907 6.53979 13.0248 9.23877 14.1724 11.2544L12.2307 12.865C11.9421 13.1045 11.8922 13.5282 12.1172 13.8281L13.3828 15.5156H10.5703C10.1819 15.5156 9.86719 15.8304 9.86719 16.2188V20.4375C9.86719 20.8259 10.1819 21.1406 10.5703 21.1406H13.7891L14.4481 22.1999C11.0292 23.2385 7.24127 22.203 4.82538 19.3799ZM15.7798 21.6782L14.7766 20.066C14.6483 19.8598 14.4227 19.7344 14.1797 19.7344H11.2734V16.9219H14.7891C15.3671 16.9219 15.6989 16.2599 15.3516 15.7969L13.6439 13.52L14.9059 12.4731C15.8904 14.0264 16.7787 15.1379 16.8618 15.241C17.1422 15.5889 17.6722 15.5903 17.9544 15.2439C18.0595 15.115 19.4385 13.409 20.6884 11.2328C20.8641 11.9469 20.9531 12.6819 20.9531 13.4297C20.9531 17.0532 18.8392 20.192 15.7798 21.6782Z" fill="#737373"/>
<path d="M17.4362 7.77264C18.7961 7.77264 19.9025 6.66595 19.9025 5.30585C19.9025 3.94556 18.796 2.83887 17.4362 2.83887C16.0763 2.83887 14.97 3.94556 14.97 5.30585C14.97 6.66595 16.0763 7.77264 17.4362 7.77264ZM17.4362 4.24512C18.0207 4.24512 18.4962 4.72101 18.4962 5.30585C18.4962 5.8905 18.0207 6.36639 17.4362 6.36639C16.8517 6.36639 16.3762 5.8905 16.3762 5.30585C16.3762 4.72101 16.8517 4.24512 17.4362 4.24512Z" fill="#737373"/>
</g>
<defs>
<clipPath id="clip0_38_4240">
<rect width="24" height="24" fill="white"/>
</clipPath>
</defs>
</svg>
