<svg width="16" height="12" viewBox="0 0 16 12" fill="none" xmlns="http://www.w3.org/2000/svg">
<path d="M14.5938 0.458496H1.40625C0.629281 0.458496 0 1.09168 0 1.86475V10.3022C0 11.0799 0.633906 11.7085 1.40625 11.7085H14.5938C15.3642 11.7085 16 11.0826 16 10.3022V1.86475C16 1.09306 15.3732 0.458496 14.5938 0.458496ZM14.3968 1.396C14.1095 1.68178 9.16509 6.60015 8.99438 6.76997C8.72875 7.03559 8.37563 7.18184 8 7.18184C7.62437 7.18184 7.27125 7.03556 7.00475 6.76909C6.88994 6.65487 2.00009 1.79081 1.60319 1.396H14.3968ZM0.9375 10.1114V2.05615L4.98869 6.086L0.9375 10.1114ZM1.60378 10.771L5.65338 6.74715L6.34272 7.43287C6.78541 7.87556 7.37397 8.11934 8 8.11934C8.62603 8.11934 9.21459 7.87556 9.65641 7.43375L10.3466 6.74715L14.3962 10.771H1.60378ZM15.0625 10.1114L11.0113 6.086L15.0625 2.05615V10.1114Z" fill="black"/>
</svg>
