<svg width="24" height="24" viewBox="0 0 24 24" fill="none" xmlns="http://www.w3.org/2000/svg">
<g clip-path="url(#clip0_38_4690)">
<path d="M21.8584 8.29719H18.7269V5.1146C18.7269 4.72631 18.4121 4.41151 18.0238 4.41151H17.3207V2.78464C17.3207 1.24917 16.0715 0 14.536 0H9.46399C7.92848 0 6.67931 1.24917 6.67931 2.78464V4.41146H5.97621C5.58792 4.41146 5.27312 4.72626 5.27312 5.11456V8.29714H2.14157C1.75328 8.29714 1.43848 8.61194 1.43848 9.00024V23.2969C1.43848 23.6852 1.75328 24 2.14157 24H21.8584C22.2467 24 22.5615 23.6852 22.5615 23.2969V9.00029C22.5615 8.61199 22.2467 8.29719 21.8584 8.29719ZM8.0855 2.78464C8.0855 2.02454 8.7039 1.40619 9.46399 1.40619H14.536C15.2961 1.40619 15.9145 2.02454 15.9145 2.78464V4.41146H8.0855V2.78464ZM17.3207 5.81765V22.5938H15.8091V19.1664C15.8091 18.7781 15.4943 18.4633 15.106 18.4633H8.89397C8.50567 18.4633 8.19087 18.7781 8.19087 19.1664V22.5938H6.67931V5.81765H17.3207ZM12.7031 19.8695H14.4029V22.5938H12.7031V19.8695ZM11.2969 22.5938H9.59702V19.8695H11.2969V22.5938ZM2.84467 9.70338H5.27312V22.5938H2.84467V9.70338ZM21.1553 22.5938H18.7269V9.70338H21.1553V22.5938Z" fill="#737373"/>
<path d="M14.4167 16.5074C14.5066 16.9919 15.09 17.2332 15.4962 16.9545C15.987 16.6313 15.874 15.8643 15.3101 15.6974C14.81 15.5393 14.3084 15.9944 14.4167 16.5074Z" fill="#737373"/>
<path d="M11.5541 16.9132C12.0093 17.2882 12.7036 16.9594 12.703 16.3699C12.707 15.845 12.1296 15.4981 11.6685 15.7498C11.2309 15.9757 11.1685 16.6065 11.5541 16.9132Z" fill="#737373"/>
<path d="M8.20458 16.5073C8.30245 17.0229 8.9372 17.2493 9.33984 16.9131C9.87195 16.4677 9.51618 15.6088 8.82471 15.6701C8.42301 15.7008 8.11585 16.1139 8.20458 16.5073Z" fill="#737373"/>
<path d="M15.7954 13.4197C15.6969 12.9041 15.0633 12.6777 14.6601 13.0138C14.2039 13.3866 14.39 14.1328 14.9685 14.2465C15.4501 14.3507 15.899 13.9011 15.7954 13.4197Z" fill="#737373"/>
<path d="M11.3104 13.6949C11.4015 14.1797 11.9833 14.4207 12.3904 14.1421C12.881 13.8156 12.7691 13.0545 12.2042 12.8849C11.7039 12.7269 11.2026 13.1814 11.3104 13.6949Z" fill="#737373"/>
<path d="M8.20461 13.6949C8.29447 14.1794 8.8778 14.4207 9.28405 14.142C9.77519 13.8161 9.66297 13.0539 9.09796 12.8849C8.59778 12.7268 8.09619 13.1817 8.20461 13.6949Z" fill="#737373"/>
<path d="M15.8057 10.6759C15.7579 10.1532 15.1503 9.86548 14.7159 10.1603C14.2252 10.4833 14.3379 11.251 14.902 11.4174C15.3713 11.5682 15.8608 11.165 15.8057 10.6759Z" fill="#737373"/>
<path d="M11.3104 10.8828C11.4013 11.3678 11.9833 11.6086 12.3903 11.33C12.8811 11.0037 12.7689 10.2419 12.2037 10.0729C11.7036 9.91483 11.2027 10.3699 11.3104 10.8828Z" fill="#737373"/>
<path d="M8.20462 10.8829C8.29447 11.3675 8.87781 11.6088 9.28406 11.33C9.77501 11.0043 9.66279 10.242 9.09797 10.0729C8.59793 9.91476 8.09615 10.3699 8.20462 10.8829Z" fill="#737373"/>
<path d="M14.4167 8.07034C14.5065 8.55496 15.0901 8.79594 15.4962 8.51751C15.9868 8.19418 15.874 7.42724 15.3101 7.26037C14.81 7.10236 14.3084 7.55727 14.4167 8.07034Z" fill="#737373"/>
<path d="M11.3104 8.07036C11.4011 8.5547 11.9834 8.79623 12.3898 8.51753C12.8813 8.19213 12.769 7.42993 12.2042 7.26039C11.7037 7.10238 11.2028 7.55691 11.3104 8.07036Z" fill="#737373"/>
<path d="M8.20475 8.07034C8.29461 8.555 8.87794 8.79593 9.28419 8.51751C9.77505 8.19446 9.66213 7.42714 9.09811 7.26037C8.59764 7.10241 8.0968 7.55703 8.20475 8.07034Z" fill="#737373"/>
</g>
<defs>
<clipPath id="clip0_38_4690">
<rect width="24" height="24" fill="white"/>
</clipPath>
</defs>
</svg>
