<svg width="16" height="16" viewBox="0 0 16 16" fill="none" xmlns="http://www.w3.org/2000/svg">
<path d="M7.99984 0.666504C6.54944 0.666504 5.13162 1.0966 3.92566 1.90239C2.7197 2.70819 1.77977 3.8535 1.22472 5.19349C0.669681 6.53348 0.524457 8.00797 0.807415 9.4305C1.09037 10.853 1.78881 12.1597 2.81439 13.1853C3.83998 14.2109 5.14665 14.9093 6.56918 15.1923C7.99171 15.4752 9.4662 15.33 10.8062 14.775C12.1462 14.2199 13.2915 13.28 14.0973 12.074C14.9031 10.8681 15.3332 9.45023 15.3332 7.99984C15.3309 6.05562 14.5575 4.19169 13.1828 2.81692C11.808 1.44215 9.94406 0.668798 7.99984 0.666504ZM10.4712 10.4712C10.3462 10.5962 10.1766 10.6664 9.99984 10.6664C9.82306 10.6664 9.65353 10.5962 9.52851 10.4712L7.52851 8.47117C7.40347 8.34618 7.33321 8.17663 7.33317 7.99984V3.99984C7.33317 3.82303 7.40341 3.65346 7.52844 3.52843C7.65346 3.40341 7.82303 3.33317 7.99984 3.33317C8.17665 3.33317 8.34622 3.40341 8.47124 3.52843C8.59627 3.65346 8.66651 3.82303 8.66651 3.99984V7.72384L10.4712 9.5285C10.5962 9.65352 10.6664 9.82306 10.6664 9.99984C10.6664 10.1766 10.5962 10.3462 10.4712 10.4712Z" fill="#575756"/>
</svg>
