<svg width="16" height="16" viewBox="0 0 16 16" fill="none" xmlns="http://www.w3.org/2000/svg">
<g clip-path="url(#clip0_75_5616)">
<path d="M8.00008 0.666748C6.54969 0.666748 5.13186 1.09684 3.9259 1.90264C2.71994 2.70843 1.78001 3.85374 1.22497 5.19374C0.669925 6.53373 0.524701 8.00822 0.807659 9.43074C1.09062 10.8533 1.78905 12.1599 2.81464 13.1855C3.84022 14.2111 5.1469 14.9095 6.56942 15.1925C7.99195 15.4755 9.46644 15.3302 10.8064 14.7752C12.1464 14.2202 13.2917 13.2802 14.0975 12.0743C14.9033 10.8683 15.3334 9.45048 15.3334 8.00008C15.3311 6.05586 14.5578 4.19194 13.183 2.81717C11.8082 1.4424 9.9443 0.669042 8.00008 0.666748ZM10.4714 10.4714C10.3464 10.5964 10.1769 10.6666 10.0001 10.6666C9.82331 10.6666 9.65377 10.5964 9.52875 10.4714L7.52875 8.47141C7.40372 8.34642 7.33346 8.17688 7.33342 8.00008V4.00008C7.33342 3.82327 7.40366 3.6537 7.52868 3.52868C7.6537 3.40365 7.82327 3.33341 8.00008 3.33341C8.1769 3.33341 8.34647 3.40365 8.47149 3.52868C8.59651 3.6537 8.66675 3.82327 8.66675 4.00008V7.72408L10.4714 9.52875C10.5964 9.65377 10.6666 9.82331 10.6666 10.0001C10.6666 10.1769 10.5964 10.3464 10.4714 10.4714Z" fill="#575756"/>
</g>
<defs>
<clipPath id="clip0_75_5616">
<rect width="16" height="16" fill="white"/>
</clipPath>
</defs>
</svg>
