<svg width="60" height="60" viewBox="0 0 60 60" fill="none" xmlns="http://www.w3.org/2000/svg">
<path d="M53.2354 48.8158C52.5503 48.8158 51.9165 49.0168 51.3697 49.3467L42.8021 41.0789C45.3331 38.0879 46.8658 34.2251 46.8658 30.0001C46.8658 25.7412 45.3065 21.8525 42.739 18.8517L50.8714 10.4251C51.5079 10.9758 52.3276 11.3208 53.2354 11.3208C55.2405 11.3208 56.8659 9.69541 56.8659 7.6903C56.8659 5.68526 55.2405 4.05984 53.2354 4.05984C51.2304 4.05984 49.605 5.68526 49.605 7.6903C49.605 8.37601 49.8063 9.01018 50.1366 9.55729L41.9764 18.0127C38.9822 14.9456 34.8503 13.0086 30.2617 12.8588V8.70042C31.5209 8.43917 32.4674 7.32423 32.4674 5.98763C32.4674 4.45707 31.2266 3.21631 29.6961 3.21631C28.1656 3.21631 26.9249 4.45707 26.9249 5.98763C26.9249 7.32395 27.871 8.43855 29.1296 8.70014V12.8588C24.5883 13.0073 20.4906 14.9025 17.504 17.9155L9.49961 10.1905C10.0502 9.55397 10.3951 8.73442 10.3951 7.82677C10.3951 5.82173 8.76967 4.1963 6.7645 4.1963C4.75946 4.1963 3.13403 5.82173 3.13403 7.82677C3.13403 9.83187 4.75946 11.4573 6.7645 11.4573C7.44979 11.4573 8.08355 11.2562 8.63038 10.9262L16.7417 18.7542C14.123 21.7681 12.5263 25.6938 12.5263 30.0001C12.5263 34.485 14.2601 38.5552 17.0758 41.6135L9.12898 49.8482C8.49246 49.2973 7.67242 48.9522 6.7645 48.9522C4.75946 48.9522 3.13403 50.5776 3.13403 52.5827C3.13403 54.5878 4.75946 56.2132 6.7645 56.2132C8.76967 56.2132 10.3951 54.5878 10.3951 52.5827C10.3951 51.8971 10.1939 51.2631 9.86361 50.7161L17.8661 42.4235C20.8183 45.2355 24.7655 46.9985 29.1296 47.1412V51.3C27.871 51.5616 26.9249 52.6762 26.9249 54.0125C26.9249 55.5431 28.1656 56.7838 29.6961 56.7838C31.2266 56.7838 32.4674 55.5431 32.4674 54.0125C32.4674 52.6759 31.5209 51.561 30.2617 51.2997V47.1413C34.8838 46.9904 39.0405 45.0238 42.0399 41.9177L50.5006 50.0824C49.9499 50.7189 49.605 51.5386 49.605 52.4463C49.605 54.4513 51.2304 56.0767 53.2354 56.0767C55.2405 56.0767 56.8659 54.4513 56.8659 52.4463C56.8659 50.4412 55.2405 48.8158 53.2354 48.8158ZM37.7285 36.2762L25.6748 34.179L25.2412 34.2693L26.295 39.3552C26.5681 40.6382 25.74 41.9079 24.4488 42.1826C24.2862 42.2158 24.1237 42.2318 23.9634 42.2318C22.8468 42.2318 21.8485 41.4563 21.6175 40.333L20.4196 34.5816C18.9011 34.0507 17.6873 32.7623 17.3357 31.0758C17.077 29.837 17.3158 28.5701 18.0068 27.5076C18.7077 26.4469 19.7723 25.7233 21.0083 25.4662L23.7456 24.8963L33.9575 18.1652C34.6253 17.7269 35.4611 17.6473 36.1951 17.9502C36.9303 18.2542 37.4665 18.9004 37.629 19.6798L38.2152 22.4964C40.0304 22.4013 41.6987 23.627 42.0766 25.4591C42.2823 26.4353 42.0943 27.4352 41.5449 28.2721C41.1029 28.9479 40.4631 29.4409 39.7182 29.7186L40.4891 33.4223C40.6516 34.2017 40.4183 35.0087 39.8644 35.5809C39.4079 36.0524 38.7854 36.3116 38.1409 36.3116C38.0038 36.3116 37.8667 36.3 37.7285 36.2762Z" fill="black"/>
<path d="M24.1333 34.5L22.9396 34.7485C22.6156 34.8159 22.2917 34.8485 21.9722 34.8485C21.8545 34.8485 21.7409 34.827 21.6245 34.8183L22.7251 40.1037C22.8644 40.7798 23.5388 41.212 24.2176 41.0749C24.893 40.9307 25.3308 40.2629 25.1871 39.588L24.1333 34.5Z" fill="black"/>
<path d="M22.7095 33.6399L25.0005 33.1624L23.529 26.0972L21.238 26.5743C20.2972 26.77 19.4858 27.3217 18.9529 28.1282C18.4289 28.9347 18.2464 29.9004 18.4432 30.8445C18.849 32.7903 20.7505 34.0478 22.7095 33.6399Z" fill="black"/>
<path d="M36.521 19.9109C36.4337 19.493 36.1573 19.1597 35.7626 18.9972C35.3679 18.8352 34.9379 18.8755 34.5808 19.1105L24.6022 25.6871L26.148 33.112L37.9229 35.1607C38.3441 35.2359 38.7542 35.0999 39.0505 34.7937C39.3479 34.4869 39.4684 34.0712 39.3811 33.6533L36.521 19.9109Z" fill="black"/>
<path d="M40.5984 27.652C40.9809 27.0682 41.1125 26.3717 40.9687 25.6902C40.8272 25.0069 40.4281 24.4205 39.8455 24.0379C39.4228 23.7609 38.9398 23.6182 38.4473 23.6123L39.4851 28.5994C39.9356 28.3962 40.3221 28.0739 40.5984 27.652Z" fill="black"/>
</svg>
