<svg width="16" height="16" viewBox="0 0 16 16" fill="none" xmlns="http://www.w3.org/2000/svg">
<path fill-rule="evenodd" clip-rule="evenodd" d="M1.96396 3.07378L6.28646 7.39816C7.22921 8.33909 8.77028 8.33991 9.71381 7.39816L14.0363 3.07378C14.0798 3.03025 14.0735 2.95856 14.023 2.92334C13.5821 2.61588 13.0457 2.43359 12.4679 2.43359H3.5324C2.95456 2.43359 2.41815 2.61591 1.97728 2.92334C1.92678 2.95856 1.92043 3.03025 1.96396 3.07378ZM0.808838 5.15713C0.808838 4.70275 0.921494 4.27344 1.11993 3.89609C1.15096 3.83706 1.22962 3.82513 1.27678 3.87228L5.54456 8.14006C6.89603 9.4935 9.10346 9.49428 10.4557 8.14006L14.7235 3.87228C14.7707 3.82513 14.8493 3.83706 14.8804 3.89609C15.0788 4.27344 15.1915 4.70278 15.1915 5.15713V10.8427C15.1915 12.3456 13.9689 13.5662 12.4679 13.5662H3.5324C2.0314 13.5662 0.808838 12.3456 0.808838 10.8427V5.15713Z" fill="#575756"/>
</svg>
