<svg width="16" height="16" viewBox="0 0 16 16" fill="none" xmlns="http://www.w3.org/2000/svg">
<path fill-rule="evenodd" clip-rule="evenodd" d="M1.96372 3.07378L6.28622 7.39816C7.22897 8.33909 8.77003 8.33991 9.71356 7.39816L14.0361 3.07378C14.0796 3.03025 14.0732 2.95856 14.0227 2.92334C13.5819 2.61588 13.0455 2.43359 12.4677 2.43359H3.53216C2.95431 2.43359 2.41791 2.61591 1.97703 2.92334C1.92653 2.95856 1.92019 3.03025 1.96372 3.07378ZM0.808594 5.15713C0.808594 4.70275 0.92125 4.27344 1.11969 3.89609C1.15072 3.83706 1.22938 3.82513 1.27653 3.87228L5.54431 8.14006C6.89578 9.4935 9.10322 9.49428 10.4555 8.14006L14.7233 3.87228C14.7704 3.82513 14.8491 3.83706 14.8801 3.89609C15.0785 4.27344 15.1912 4.70278 15.1912 5.15713V10.8427C15.1912 12.3456 13.9687 13.5662 12.4677 13.5662H3.53216C2.03116 13.5662 0.808594 12.3456 0.808594 10.8427V5.15713Z" fill="#575756"/>
</svg>
