<svg width="24" height="24" viewBox="0 0 24 24" fill="none" xmlns="http://www.w3.org/2000/svg">
<path fill-rule="evenodd" clip-rule="evenodd" d="M15.2731 3.27365C15.41 3.23843 15.554 3.24262 15.6887 3.28573L20.5286 4.83572L20.5477 4.84209C20.897 4.96436 21.1938 5.19167 21.4026 5.4875C21.5893 5.75202 21.7311 6.08694 21.7491 6.46434C21.7496 6.47622 21.7499 6.4881 21.7499 6.49998V18.5999C21.7627 18.8723 21.7104 19.1395 21.6092 19.3754C21.6061 19.3827 21.6029 19.39 21.5995 19.3972C21.4763 19.6613 21.3019 19.8663 21.11 20.0262C21.1025 20.0324 21.0949 20.0385 21.0872 20.0445C20.8515 20.2258 20.5776 20.3363 20.2991 20.3734L20.293 20.3743C20.0366 20.4063 19.7884 20.3792 19.5625 20.3133C19.5381 20.3081 19.514 20.3016 19.4903 20.294L15.4667 19.0004L8.75676 20.7263C8.62032 20.7614 8.47674 20.7574 8.34246 20.7147L3.47247 19.1647C3.46568 19.1625 3.45891 19.1603 3.45217 19.1579C3.08735 19.0302 2.81418 18.7971 2.61417 18.5356C2.60838 18.528 2.60273 18.5203 2.59722 18.5125C2.39621 18.2278 2.27768 17.8905 2.26078 17.5357C2.26022 17.5238 2.25993 17.5119 2.25993 17.5V5.39007C2.24694 5.11286 2.30148 4.83735 2.42026 4.58283C2.54489 4.31578 2.72478 4.10313 2.94266 3.93553C3.17448 3.7572 3.45674 3.6376 3.76935 3.61312C4.0365 3.58326 4.30645 3.61623 4.56072 3.71283L8.56302 4.99963L15.2731 3.27365ZM15.4372 4.78025L8.72676 6.50634C8.58954 6.54162 8.44518 6.53736 8.31036 6.49398L4.08036 5.13402C4.06383 5.1287 4.0475 5.12282 4.03137 5.11637C4.00079 5.10413 3.96878 5.09972 3.93297 5.10419C3.91761 5.10611 3.90219 5.10756 3.88673 5.10852C3.88673 5.10852 3.88461 5.10866 3.88113 5.11001C3.87734 5.11149 3.86912 5.11532 3.85723 5.12447C3.81512 5.15686 3.79491 5.18421 3.77954 5.21715C3.76213 5.25446 3.75636 5.28942 3.75847 5.32321C3.75944 5.33879 3.75993 5.35439 3.75993 5.36999V17.4772C3.76473 17.5336 3.7834 17.5879 3.81536 17.6367C3.86728 17.7014 3.90891 17.7272 3.94132 17.7398L8.59194 19.2199L15.3031 17.4937C15.4403 17.4584 15.5846 17.4626 15.7195 17.506L19.8941 18.8482C19.9187 18.8537 19.943 18.8605 19.9671 18.8685C20.0212 18.8865 20.0671 18.8902 20.1036 18.8862C20.1217 18.8833 20.1428 18.8759 20.1631 18.8623C20.1983 18.8309 20.2199 18.8024 20.2349 18.7738C20.2475 18.7399 20.2535 18.7014 20.2514 18.6668C20.2504 18.6512 20.2499 18.6356 20.2499 18.62V6.52464C20.2455 6.48222 20.2261 6.42174 20.1772 6.3525C20.1473 6.3102 20.1064 6.2784 20.0585 6.26022L15.4372 4.78025Z" fill="black"/>
<path fill-rule="evenodd" clip-rule="evenodd" d="M8.56006 5.02002C8.97424 5.02002 9.31006 5.3558 9.31006 5.77002V19.92C9.31006 20.3343 8.97424 20.67 8.56006 20.67C8.14582 20.67 7.81006 20.3343 7.81006 19.92V5.77002C7.81006 5.3558 8.14582 5.02002 8.56006 5.02002Z" fill="black"/>
<path fill-rule="evenodd" clip-rule="evenodd" d="M15.49 3.33008C15.9042 3.33008 16.24 3.66586 16.24 4.08008V18.2301C16.24 18.6443 15.9042 18.9801 15.49 18.9801C15.0758 18.9801 14.74 18.6443 14.74 18.2301V4.08008C14.74 3.66586 15.0758 3.33008 15.49 3.33008Z" fill="black"/>
</svg>
