<svg width="16" height="17" viewBox="0 0 16 17" fill="none" xmlns="http://www.w3.org/2000/svg">
<path d="M11.5 6.0835V4.4385C11.4987 3.5491 11.1448 2.69651 10.5159 2.06761C9.88698 1.43872 9.0344 1.08482 8.145 1.0835H7.855C6.9656 1.08482 6.11302 1.43872 5.48412 2.06761C4.85522 2.69651 4.50132 3.5491 4.5 4.4385V6.0835C4.10218 6.0835 3.72064 6.24153 3.43934 6.52284C3.15804 6.80414 3 7.18567 3 7.5835V12.2335C3.00132 12.989 3.30201 13.7131 3.83621 14.2473C4.3704 14.7815 5.09454 15.0822 5.85 15.0835H10.15C10.9055 15.0822 11.6296 14.7815 12.1638 14.2473C12.698 13.7131 12.9987 12.989 13 12.2335V7.5835C13 7.18567 12.842 6.80414 12.5607 6.52284C12.2794 6.24153 11.8978 6.0835 11.5 6.0835ZM5.5 4.4385C5.5 3.81391 5.74812 3.21491 6.18976 2.77326C6.63141 2.33161 7.23042 2.0835 7.855 2.0835H8.145C8.76959 2.0835 9.36859 2.33161 9.81024 2.77326C10.2519 3.21491 10.5 3.81391 10.5 4.4385V6.0835H5.5V4.4385ZM12 12.2335C12 12.7241 11.8051 13.1947 11.4581 13.5416C11.1112 13.8886 10.6407 14.0835 10.15 14.0835H5.85C5.35935 14.0835 4.88879 13.8886 4.54185 13.5416C4.19491 13.1947 4 12.7241 4 12.2335V7.5835C4 7.45089 4.05268 7.32371 4.14645 7.22994C4.24021 7.13617 4.36739 7.0835 4.5 7.0835H11.5C11.6326 7.0835 11.7598 7.13617 11.8536 7.22994C11.9473 7.32371 12 7.45089 12 7.5835V12.2335Z" fill="black"/>
<path d="M8.5 10.4437V12.0837C8.5 12.2163 8.44732 12.3434 8.35355 12.4372C8.25979 12.531 8.13261 12.5837 8 12.5837C7.86739 12.5837 7.74022 12.531 7.64645 12.4372C7.55268 12.3434 7.5 12.2163 7.5 12.0837V10.4437C7.30936 10.3336 7.16036 10.1637 7.07612 9.96032C6.99188 9.75694 6.9771 9.53145 7.03407 9.31882C7.09105 9.10618 7.21659 8.91829 7.39124 8.78428C7.56588 8.65027 7.77987 8.57764 8 8.57764C8.22013 8.57764 8.43412 8.65027 8.60876 8.78428C8.78341 8.91829 8.90895 9.10618 8.96593 9.31882C9.0229 9.53145 9.00812 9.75694 8.92388 9.96032C8.83964 10.1637 8.69064 10.3336 8.5 10.4437Z" fill="black"/>
</svg>
