<svg width="22" height="23" viewBox="0 0 22 23" fill="none" xmlns="http://www.w3.org/2000/svg">
<g clip-path="url(#clip0_31_170)">
<path d="M11 1.78906C13.2406 1.78997 15.412 2.56545 17.1463 3.98411C18.8806 5.40278 20.0711 7.37739 20.5161 9.57336C20.9611 11.7693 20.6333 14.0516 19.5881 16.0336C18.5429 18.0155 16.8447 19.5751 14.7812 20.4482C12.408 21.4511 9.73363 21.4701 7.34639 20.5011C4.95914 19.5321 3.05461 17.6545 2.05176 15.2812C1.04891 12.908 1.02989 10.2336 1.99889 7.84639C2.96789 5.45914 4.84553 3.55461 7.21875 2.55176C8.41496 2.04554 9.70109 1.78613 11 1.78906ZM11 0.5C4.92508 0.5 0 5.42508 0 11.5C0 17.5749 4.92508 22.5 11 22.5C17.0749 22.5 22 17.5749 22 11.5C22 5.42508 17.0749 0.5 11 0.5Z" fill="#575756"/>
<path d="M14.2094 17.424C13.5705 17.381 12.6699 17.1606 11.7907 16.846C8.69097 15.7366 5.6664 12.7808 5.02359 8.64632C4.90929 7.91026 5.02961 7.2378 5.58734 6.69038C5.77425 6.50733 5.94054 6.30366 6.12316 6.11632C6.81066 5.40862 7.81527 5.39057 8.52726 6.07034C8.75285 6.28518 8.9823 6.49702 9.2023 6.71874C9.50356 7.01582 9.67798 7.41808 9.68896 7.84103C9.69994 8.26399 9.54661 8.67475 9.26117 8.98706C9.08929 9.17784 8.90882 9.35917 8.7275 9.54007C8.52941 9.73772 8.2832 9.85116 8.01894 9.93366C7.69281 10.0359 7.63222 10.1726 7.78047 10.4841C8.71718 12.446 10.1834 13.8587 12.1792 14.7221C12.446 14.8373 12.5693 14.7853 12.6768 14.5206C12.9122 13.9401 13.3441 13.5168 13.8403 13.1748C14.4019 12.7881 15.2063 12.874 15.7383 13.3312C16.0299 13.5818 16.3086 13.8471 16.5732 14.1261C16.8579 14.4307 17.016 14.8322 17.0156 15.2491C17.0152 15.666 16.8563 16.0672 16.571 16.3712C16.4881 16.4615 16.4026 16.5496 16.3231 16.6424C15.8444 17.1988 15.2373 17.4592 14.2094 17.424Z" fill="#575756"/>
</g>
<defs>
<clipPath id="clip0_31_170">
<rect width="22" height="22" fill="white" transform="translate(0 0.5)"/>
</clipPath>
</defs>
</svg>
