<svg width="36" height="34" viewBox="0 0 36 34" fill="none" xmlns="http://www.w3.org/2000/svg">
<path fill-rule="evenodd" clip-rule="evenodd" d="M10.3683 0.688965H25.6317C26.9832 0.688965 28.0892 1.79498 28.0892 3.14639V18.4098C28.0892 19.7612 26.9832 20.8672 25.6317 20.8672H10.3683C9.0169 20.8672 7.91089 19.7612 7.91089 18.4098V3.14639C7.91089 1.79498 9.0169 0.688965 10.3683 0.688965Z" fill="#FFD164"/>
<path fill-rule="evenodd" clip-rule="evenodd" d="M14.7332 0.688965H21.2667V8.71514C21.2667 8.92467 21.1591 9.10396 20.9735 9.2031C20.79 9.30295 20.5811 9.29451 20.4054 9.18131L18.3044 7.80811C18.1153 7.68436 17.884 7.68436 17.6948 7.80811L15.5939 9.18131C15.4188 9.29521 15.2093 9.30295 15.0257 9.2031C14.8401 9.10326 14.7325 8.92396 14.7325 8.71514V0.688965H14.7332Z" fill="#FF4155"/>
<path fill-rule="evenodd" clip-rule="evenodd" d="M10.3683 0.688965H12.1739C10.8225 0.688965 9.71651 1.79498 9.71651 3.14639V18.4098C9.71651 19.7612 10.8225 20.8672 12.1739 20.8672H10.3683C9.0169 20.8672 7.91089 19.7612 7.91089 18.4098V3.14639C7.91089 1.79498 9.0169 0.688965 10.3683 0.688965Z" fill="#E6BC5A"/>
<path fill-rule="evenodd" clip-rule="evenodd" d="M2.86035 27.4365L4.7834 27.8492C12.2478 28.6403 16.1684 37.115 27.8937 28.5587L32.4141 27.5919L30.4868 17.6462L26.7856 18.4372C19.7122 14.3513 14.0555 16.8186 8.8798 18.3655L6.90051 17.9429L5.07309 17.552L2.86035 27.4365Z" fill="#FFDAA2"/>
<path fill-rule="evenodd" clip-rule="evenodd" d="M30.4869 17.6462L26.7856 18.4373C23.6581 16.5416 19.8894 15.6466 15.0266 16.6176L11.3035 20.0875C8.5093 22.6708 13.299 22.9794 16.4237 19.8646C18.7637 24.3351 24.7388 24.4729 27.8937 28.5587L32.4141 27.5919L30.4869 17.6462Z" fill="#FBBD80"/>
<path fill-rule="evenodd" clip-rule="evenodd" d="M9.60685 30.0114L11.4722 28.3654C12.0565 27.8514 12.1142 26.95 11.5981 26.3664C11.082 25.7821 10.1827 25.7244 9.59701 26.2405L7.73162 27.8851C7.14732 28.4012 7.09178 29.3005 7.60576 29.8862C8.12256 30.4698 9.02326 30.5261 9.60685 30.0114Z" fill="#FBBD80"/>
<path fill-rule="evenodd" clip-rule="evenodd" d="M12.9059 30.8805L14.7713 29.2359C15.3556 28.7198 15.4133 27.8205 14.8972 27.2348C14.3811 26.6505 13.4818 26.5949 12.8961 27.1089L11.0307 28.7549C10.4464 29.2689 10.3908 30.1703 10.9048 30.7539C11.4209 31.3389 12.3216 31.3966 12.9059 30.8805Z" fill="#FBBD80"/>
<path fill-rule="evenodd" clip-rule="evenodd" d="M15.5785 32.3015L17.4439 30.6569C18.0282 30.1429 18.0858 29.2415 17.5697 28.6579C17.0558 28.0722 16.1543 28.0159 15.5708 28.532L13.7054 30.1766C13.1197 30.6906 13.0634 31.592 13.5795 32.1756C14.0935 32.762 14.9942 32.8183 15.5785 32.3015Z" fill="#FBBD80"/>
<path fill-rule="evenodd" clip-rule="evenodd" d="M17.7631 30.3763L17.247 30.8327C16.6613 31.3488 16.605 32.2481 17.1197 32.8316C17.6358 33.4173 18.5365 33.4736 19.1208 32.9589L19.639 32.5005C20.2233 31.9865 20.281 31.0851 19.7649 30.5015C19.2474 29.9179 18.3488 29.8602 17.7631 30.3763Z" fill="#FBBD80"/>
<path fill-rule="evenodd" clip-rule="evenodd" d="M0.00170898 26.826L2.11872 16.9197L6.90274 17.942L4.78573 27.8484L0.00170898 26.826Z" fill="#0593FC"/>
<path fill-rule="evenodd" clip-rule="evenodd" d="M29.1018 17.9457L33.8858 16.9233L36.0028 26.8297L31.2188 27.8521L29.1018 17.9457Z" fill="#0593FC"/>
<path fill-rule="evenodd" clip-rule="evenodd" d="M2.11711 16.9207L3.11977 17.1365L1.00266 27.04L0 26.827L2.11711 16.9207Z" fill="#0584E3"/>
</svg>
