<svg width="24" height="24" viewBox="0 0 24 24" fill="none" xmlns="http://www.w3.org/2000/svg">
<path d="M21.854 12.1591L19.1831 11.7051C19.1166 11.6683 19.0433 11.6426 18.9658 11.629L16.929 8.96159C16.3602 8.21675 15.5476 7.78517 14.625 7.73258V5.63281C14.625 5.2445 14.3102 4.92969 13.9219 4.92969H11.3907V4.08594C11.3907 3.69762 11.0759 3.38281 10.6875 3.38281H5.10938C4.72106 3.38281 4.40625 3.69762 4.40625 4.08594V7.727H3.72656C2.84536 7.727 2.09475 8.23536 1.7678 9.05366L0.0502031 13.352C0.0170156 13.4349 0 13.5235 0 13.6129V17.852C0 18.2404 0.314812 18.5552 0.703125 18.5552H2.87381C3.13209 19.7331 4.18313 20.6176 5.4375 20.6176C6.69187 20.6176 7.74291 19.7331 8.00119 18.5552H15.9989C16.2571 19.7331 17.3082 20.6176 18.5625 20.6176C19.8169 20.6176 20.868 19.7331 21.1262 18.5552H23.2969C23.6852 18.5552 24 18.2404 24 17.852V14.7008C24 13.4395 23.0975 12.3705 21.854 12.1591ZM15.8113 9.81505L17.1878 11.6177H11.3341V9.14839L14.4329 9.13325C15.0021 9.13325 15.4658 9.36261 15.8113 9.81505ZM6.03614 9.14844H9.92784V11.6177H5.18198L6.03614 9.14844ZM13.2188 6.33594V7.727H11.3906V6.33594H13.2188ZM5.8125 4.78906H9.98438V7.727H5.8125V4.78906ZM5.4375 19.2114C4.76545 19.2114 4.21875 18.6647 4.21875 17.9927C4.21875 17.3206 4.76545 16.7739 5.4375 16.7739C6.10955 16.7739 6.65625 17.3206 6.65625 17.9927C6.65625 18.6647 6.10955 19.2114 5.4375 19.2114ZM18.5625 19.2114C17.8905 19.2114 17.3438 18.6647 17.3438 17.9927C17.3438 17.3206 17.8905 16.7739 18.5625 16.7739C19.2345 16.7739 19.7812 17.3206 19.7812 17.9927C19.7812 18.6647 19.2345 19.2114 18.5625 19.2114ZM21.0476 17.1489C20.6953 16.1143 19.7148 15.3676 18.5625 15.3676C17.4102 15.3676 16.4297 16.1143 16.0774 17.1489H7.92258C7.57031 16.1143 6.58978 15.3676 5.4375 15.3676C4.28522 15.3676 3.30469 16.1143 2.95242 17.1489H1.40625V15.0864H1.45308C1.84139 15.0864 2.1562 14.7716 2.1562 14.3833C2.1562 13.995 1.84139 13.6802 1.45308 13.6802H1.43339L3.07359 9.57552C3.18427 9.29862 3.42834 9.13325 3.72656 9.13325H4.55339L3.5303 12.091C3.45595 12.3059 3.49017 12.5435 3.62208 12.7287C3.75398 12.9139 3.96736 13.0239 4.1948 13.0239H18.5503L21.6183 13.5455C22.0667 13.6217 22.4085 13.9285 22.5373 14.3364H22.5234C22.1351 14.3364 21.8203 14.6512 21.8203 15.0395C21.8203 15.4278 22.1351 15.7426 22.5234 15.7426H22.5938V17.1489H21.0476Z" fill="#737373"/>
</svg>
