<svg width="24" height="24" viewBox="0 0 24 24" fill="none" xmlns="http://www.w3.org/2000/svg">
<g clip-path="url(#clip0_38_4182)">
<path d="M21.183 10.8508H18.5179V8.71402C18.5179 8.32514 18.2025 8.00986 17.8135 8.00986H14.0067C13.6537 6.93248 12.637 6.15961 11.4551 6.15961H10.2332V0.704156C10.2332 0.315281 9.91791 0 9.52894 0H4.61077C4.2218 0 3.90642 0.315281 3.90642 0.704156V6.15966H2.68458C1.20431 6.15966 0 7.36359 0 8.84348V21.3161C0 22.796 1.20431 24 2.68458 24H21.183C22.7363 24 24 22.7366 24 21.1838V13.667C24 12.1141 22.7363 10.8508 21.183 10.8508ZM22.5914 13.667V18.1203H8.66423V13.667C8.66423 12.8907 9.29602 12.259 10.0726 12.259H21.183C21.9596 12.259 22.5914 12.8906 22.5914 13.667ZM17.1092 10.8508H14.1464V9.41817H17.1092V10.8508ZM5.31506 1.40827H8.82459V6.15961H5.31506V1.40827ZM1.40864 21.3161V8.84348C1.40864 8.14012 1.98103 7.56792 2.68458 7.56792H11.4551C12.1261 7.56792 12.6855 8.09147 12.7283 8.75986C12.73 8.78592 12.7333 8.81147 12.7377 8.83659V10.8508H10.0725C8.51925 10.8508 7.25555 12.1141 7.25555 13.667V21.1838C7.25555 21.6965 7.39397 22.1772 7.63444 22.5917H2.68458C1.98103 22.5917 1.40864 22.0195 1.40864 21.3161ZM21.183 22.5917H11.4551H10.0726C9.29602 22.5917 8.66423 21.9601 8.66423 21.1838V19.5286H22.5914V21.1838C22.5914 21.9601 21.9596 22.5917 21.183 22.5917Z" fill="#737373"/>
</g>
<defs>
<clipPath id="clip0_38_4182">
<rect width="24" height="24" fill="white"/>
</clipPath>
</defs>
</svg>
