<svg width="16" height="17" viewBox="0 0 16 17" fill="none" xmlns="http://www.w3.org/2000/svg">
<g clip-path="url(#clip0_2_22349)">
<path d="M8.00008 8.58366C5.88675 8.58366 4.16675 6.86366 4.16675 4.75033C4.16675 2.63699 5.88675 0.916992 8.00008 0.916992C10.1134 0.916992 11.8334 2.63699 11.8334 4.75033C11.8334 6.86366 10.1134 8.58366 8.00008 8.58366ZM8.00008 1.91699C6.44008 1.91699 5.16675 3.19033 5.16675 4.75033C5.16675 6.31033 6.44008 7.58366 8.00008 7.58366C9.56008 7.58366 10.8334 6.31033 10.8334 4.75033C10.8334 3.19033 9.56008 1.91699 8.00008 1.91699Z" fill="white"/>
<path d="M13.7267 15.2502C13.4534 15.2502 13.2267 15.0235 13.2267 14.7502C13.2267 12.4502 10.8801 10.5835 8.00013 10.5835C5.1201 10.5835 2.77344 12.4502 2.77344 14.7502C2.77344 15.0235 2.54677 15.2502 2.27344 15.2502C2.0001 15.2502 1.77344 15.0235 1.77344 14.7502C1.77344 11.9035 4.56676 9.5835 8.00013 9.5835C11.4335 9.5835 14.2267 11.9035 14.2267 14.7502C14.2267 15.0235 14.0001 15.2502 13.7267 15.2502Z" fill="white"/>
</g>
<defs>
<clipPath id="clip0_2_22349">
<rect width="16" height="16" fill="white" transform="translate(0 0.0834961)"/>
</clipPath>
</defs>
</svg>
